%TF.GenerationSoftware,KiCad,Pcbnew,5.1.0*%
%TF.CreationDate,2019-05-24T21:58:45+02:00*%
%TF.ProjectId,c4-blinkenrocket,63342d62-6c69-46e6-9b65-6e726f636b65,rev?*%
%TF.SameCoordinates,PX5f5e100PY8f0d180*%
%TF.FileFunction,Soldermask,Top*%
%TF.FilePolarity,Negative*%
%FSLAX46Y46*%
G04 Gerber Fmt 4.6, Leading zero omitted, Abs format (unit mm)*
G04 Created by KiCad (PCBNEW 5.1.0) date 2019-05-24 21:58:45*
%MOMM*%
%LPD*%
G04 APERTURE LIST*
%ADD10C,0.150000*%
%ADD11C,0.010000*%
G04 APERTURE END LIST*
D10*
X8493601Y41400284D02*
G75*
G02X8493600Y38860285I-1813748J-1269999D01*
G01*
X8493601Y38860285D02*
G75*
G03X5953600Y760285I28064427J-21005629D01*
G01*
X13573600Y7745285D02*
G75*
G02X19288600Y19175285I9668372J2309564D01*
G01*
X21828600Y19810285D02*
X28178600Y19810285D01*
X28178600Y19810285D02*
G75*
G02X30718600Y19175285I-162149J-6046100D01*
G01*
X25003600Y96645284D02*
G75*
G02X41513600Y41400285I-21889669J-36631251D01*
G01*
X41513600Y41400285D02*
G75*
G03X41513600Y38860285I1813748J-1270000D01*
G01*
X41513600Y38860284D02*
G75*
G02X44053600Y760285I-28064427J-21005628D01*
G01*
X44053599Y760285D02*
G75*
G02X42148600Y760285I-952499J922906D01*
G01*
X42148600Y760285D02*
G75*
G02X37068600Y5840285I27666882J32746882D01*
G01*
X37068600Y5840284D02*
G75*
G02X36433600Y7745285I1332279J1502427D01*
G01*
X36433601Y7745286D02*
G75*
G03X30718600Y19175285I-9668372J2309563D01*
G01*
X21828600Y19810285D02*
G75*
G03X19288600Y19175285I162150J-6046100D01*
G01*
X25003601Y96645286D02*
G75*
G03X8493600Y41400285I21889669J-36631253D01*
G01*
X5953601Y760285D02*
G75*
G03X7858600Y760285I952499J922906D01*
G01*
X12938600Y5840285D02*
G75*
G03X13573600Y7745285I-1332278J1502426D01*
G01*
X7858600Y760285D02*
G75*
G03X12938600Y5840285I-27666882J32746882D01*
G01*
D11*
G36*
X26056572Y82429498D02*
G01*
X26109323Y82411085D01*
X26151201Y82378719D01*
X26184792Y82330999D01*
X26185558Y82329577D01*
X26189198Y82322563D01*
X26192393Y82315132D01*
X26195178Y82306025D01*
X26197585Y82293983D01*
X26199648Y82277746D01*
X26201401Y82256055D01*
X26202876Y82227651D01*
X26204106Y82191274D01*
X26205126Y82145666D01*
X26205969Y82089566D01*
X26206666Y82021716D01*
X26207253Y81940856D01*
X26207762Y81845728D01*
X26208226Y81735070D01*
X26208680Y81607625D01*
X26209155Y81462134D01*
X26209247Y81433250D01*
X26211995Y80576000D01*
X27061307Y80576000D01*
X27061546Y81218327D01*
X27061755Y81356599D01*
X27062267Y81481332D01*
X27063070Y81591711D01*
X27064151Y81686921D01*
X27065498Y81766149D01*
X27067099Y81828577D01*
X27068942Y81873392D01*
X27071015Y81899779D01*
X27071816Y81904616D01*
X27094201Y81963302D01*
X27131013Y82011629D01*
X27170199Y82041015D01*
X27219613Y82059121D01*
X27276001Y82064389D01*
X27334332Y82057851D01*
X27389575Y82040540D01*
X27436699Y82013490D01*
X27469452Y81979578D01*
X27483627Y81950935D01*
X27495925Y81913166D01*
X27501146Y81888949D01*
X27502891Y81868492D01*
X27504518Y81830180D01*
X27506005Y81775699D01*
X27507326Y81706732D01*
X27508459Y81624964D01*
X27509380Y81532079D01*
X27510065Y81429761D01*
X27510492Y81319695D01*
X27510635Y81209754D01*
X27510726Y81078260D01*
X27510989Y80965124D01*
X27511447Y80869165D01*
X27512123Y80789203D01*
X27513039Y80724058D01*
X27514218Y80672549D01*
X27515684Y80633496D01*
X27517460Y80605719D01*
X27519568Y80588038D01*
X27522031Y80579271D01*
X27522904Y80578152D01*
X27539370Y80569656D01*
X27566522Y80559999D01*
X27578987Y80556407D01*
X27634387Y80534708D01*
X27675147Y80502353D01*
X27702258Y80457863D01*
X27716714Y80399758D01*
X27719848Y80346423D01*
X27718442Y80300016D01*
X27713382Y80266033D01*
X27703402Y80237508D01*
X27698115Y80226761D01*
X27664385Y80182286D01*
X27617524Y80148609D01*
X27562536Y80129255D01*
X27558702Y80128560D01*
X27515577Y80121205D01*
X27510299Y79637891D01*
X27509012Y79523378D01*
X27507747Y79426698D01*
X27506338Y79346149D01*
X27504621Y79280025D01*
X27502428Y79226623D01*
X27499594Y79184240D01*
X27495954Y79151171D01*
X27491342Y79125713D01*
X27485591Y79106161D01*
X27478536Y79090812D01*
X27470011Y79077962D01*
X27459851Y79065907D01*
X27454021Y79059553D01*
X27418055Y79033841D01*
X27367756Y79016745D01*
X27306657Y79008971D01*
X27238291Y79011225D01*
X27222122Y79013207D01*
X27165916Y79026320D01*
X27124426Y79048989D01*
X27094355Y79083195D01*
X27088269Y79093721D01*
X27083322Y79103287D01*
X27079165Y79113035D01*
X27075718Y79124680D01*
X27072902Y79139939D01*
X27070638Y79160528D01*
X27068844Y79188165D01*
X27067443Y79224564D01*
X27066353Y79271443D01*
X27065495Y79330518D01*
X27064790Y79403505D01*
X27064158Y79492120D01*
X27063520Y79598081D01*
X27063330Y79630827D01*
X27060468Y80126616D01*
X25762000Y80126616D01*
X25762000Y81176327D01*
X25762092Y81370222D01*
X25762371Y81544774D01*
X25762838Y81700180D01*
X25763496Y81836634D01*
X25764345Y81954333D01*
X25765388Y82053470D01*
X25766626Y82134242D01*
X25768063Y82196845D01*
X25769699Y82241472D01*
X25771536Y82268321D01*
X25772502Y82275008D01*
X25793576Y82335638D01*
X25827766Y82381863D01*
X25875178Y82413764D01*
X25935920Y82431419D01*
X25990362Y82435360D01*
X26056572Y82429498D01*
X26056572Y82429498D01*
G37*
X26056572Y82429498D02*
X26109323Y82411085D01*
X26151201Y82378719D01*
X26184792Y82330999D01*
X26185558Y82329577D01*
X26189198Y82322563D01*
X26192393Y82315132D01*
X26195178Y82306025D01*
X26197585Y82293983D01*
X26199648Y82277746D01*
X26201401Y82256055D01*
X26202876Y82227651D01*
X26204106Y82191274D01*
X26205126Y82145666D01*
X26205969Y82089566D01*
X26206666Y82021716D01*
X26207253Y81940856D01*
X26207762Y81845728D01*
X26208226Y81735070D01*
X26208680Y81607625D01*
X26209155Y81462134D01*
X26209247Y81433250D01*
X26211995Y80576000D01*
X27061307Y80576000D01*
X27061546Y81218327D01*
X27061755Y81356599D01*
X27062267Y81481332D01*
X27063070Y81591711D01*
X27064151Y81686921D01*
X27065498Y81766149D01*
X27067099Y81828577D01*
X27068942Y81873392D01*
X27071015Y81899779D01*
X27071816Y81904616D01*
X27094201Y81963302D01*
X27131013Y82011629D01*
X27170199Y82041015D01*
X27219613Y82059121D01*
X27276001Y82064389D01*
X27334332Y82057851D01*
X27389575Y82040540D01*
X27436699Y82013490D01*
X27469452Y81979578D01*
X27483627Y81950935D01*
X27495925Y81913166D01*
X27501146Y81888949D01*
X27502891Y81868492D01*
X27504518Y81830180D01*
X27506005Y81775699D01*
X27507326Y81706732D01*
X27508459Y81624964D01*
X27509380Y81532079D01*
X27510065Y81429761D01*
X27510492Y81319695D01*
X27510635Y81209754D01*
X27510726Y81078260D01*
X27510989Y80965124D01*
X27511447Y80869165D01*
X27512123Y80789203D01*
X27513039Y80724058D01*
X27514218Y80672549D01*
X27515684Y80633496D01*
X27517460Y80605719D01*
X27519568Y80588038D01*
X27522031Y80579271D01*
X27522904Y80578152D01*
X27539370Y80569656D01*
X27566522Y80559999D01*
X27578987Y80556407D01*
X27634387Y80534708D01*
X27675147Y80502353D01*
X27702258Y80457863D01*
X27716714Y80399758D01*
X27719848Y80346423D01*
X27718442Y80300016D01*
X27713382Y80266033D01*
X27703402Y80237508D01*
X27698115Y80226761D01*
X27664385Y80182286D01*
X27617524Y80148609D01*
X27562536Y80129255D01*
X27558702Y80128560D01*
X27515577Y80121205D01*
X27510299Y79637891D01*
X27509012Y79523378D01*
X27507747Y79426698D01*
X27506338Y79346149D01*
X27504621Y79280025D01*
X27502428Y79226623D01*
X27499594Y79184240D01*
X27495954Y79151171D01*
X27491342Y79125713D01*
X27485591Y79106161D01*
X27478536Y79090812D01*
X27470011Y79077962D01*
X27459851Y79065907D01*
X27454021Y79059553D01*
X27418055Y79033841D01*
X27367756Y79016745D01*
X27306657Y79008971D01*
X27238291Y79011225D01*
X27222122Y79013207D01*
X27165916Y79026320D01*
X27124426Y79048989D01*
X27094355Y79083195D01*
X27088269Y79093721D01*
X27083322Y79103287D01*
X27079165Y79113035D01*
X27075718Y79124680D01*
X27072902Y79139939D01*
X27070638Y79160528D01*
X27068844Y79188165D01*
X27067443Y79224564D01*
X27066353Y79271443D01*
X27065495Y79330518D01*
X27064790Y79403505D01*
X27064158Y79492120D01*
X27063520Y79598081D01*
X27063330Y79630827D01*
X27060468Y80126616D01*
X25762000Y80126616D01*
X25762000Y81176327D01*
X25762092Y81370222D01*
X25762371Y81544774D01*
X25762838Y81700180D01*
X25763496Y81836634D01*
X25764345Y81954333D01*
X25765388Y82053470D01*
X25766626Y82134242D01*
X25768063Y82196845D01*
X25769699Y82241472D01*
X25771536Y82268321D01*
X25772502Y82275008D01*
X25793576Y82335638D01*
X25827766Y82381863D01*
X25875178Y82413764D01*
X25935920Y82431419D01*
X25990362Y82435360D01*
X26056572Y82429498D01*
G36*
X24442775Y82412616D02*
G01*
X24490609Y82375291D01*
X24525160Y82326427D01*
X24545457Y82269658D01*
X24550531Y82208616D01*
X24539410Y82146935D01*
X24523750Y82109569D01*
X24501543Y82074073D01*
X24474626Y82047989D01*
X24443154Y82027857D01*
X24389423Y81997423D01*
X23920500Y81992539D01*
X23809548Y81991399D01*
X23716363Y81990341D01*
X23639177Y81989143D01*
X23576220Y81987584D01*
X23525724Y81985444D01*
X23485921Y81982500D01*
X23455040Y81978532D01*
X23431314Y81973319D01*
X23412973Y81966640D01*
X23398250Y81958273D01*
X23385374Y81947997D01*
X23372577Y81935591D01*
X23359661Y81922417D01*
X23348688Y81906970D01*
X23330250Y81875918D01*
X23305354Y81831258D01*
X23275008Y81774991D01*
X23240220Y81709116D01*
X23201999Y81635632D01*
X23161353Y81556539D01*
X23119289Y81473835D01*
X23076815Y81389520D01*
X23034940Y81305593D01*
X22994672Y81224054D01*
X22957018Y81146901D01*
X22922987Y81076134D01*
X22893587Y81013753D01*
X22869826Y80961756D01*
X22852711Y80922143D01*
X22844421Y80900531D01*
X22825100Y80820034D01*
X22817329Y80731055D01*
X22821438Y80641108D01*
X22830616Y80585769D01*
X22838633Y80559343D01*
X22853986Y80519947D01*
X22877021Y80466818D01*
X22908086Y80399194D01*
X22947527Y80316310D01*
X22995691Y80217405D01*
X23026014Y80155923D01*
X23067258Y80072511D01*
X23107796Y79990342D01*
X23146353Y79912012D01*
X23181657Y79840114D01*
X23212436Y79777242D01*
X23237414Y79725988D01*
X23255321Y79688947D01*
X23258753Y79681772D01*
X23290419Y79618331D01*
X23318358Y79570176D01*
X23345144Y79534101D01*
X23373351Y79506897D01*
X23405554Y79485356D01*
X23424238Y79475571D01*
X23479538Y79448515D01*
X23919827Y79446722D01*
X24044907Y79445967D01*
X24150817Y79444795D01*
X24237924Y79443196D01*
X24306593Y79441159D01*
X24357188Y79438675D01*
X24390075Y79435733D01*
X24402188Y79433554D01*
X24456229Y79409425D01*
X24499715Y79370793D01*
X24530647Y79320722D01*
X24547024Y79262275D01*
X24548165Y79209980D01*
X24534131Y79142476D01*
X24505913Y79087061D01*
X24464444Y79044962D01*
X24410657Y79017408D01*
X24399192Y79013937D01*
X24380415Y79011541D01*
X24344545Y79009500D01*
X24294026Y79007813D01*
X24231300Y79006481D01*
X24158810Y79005508D01*
X24079000Y79004892D01*
X23994311Y79004635D01*
X23907188Y79004739D01*
X23820072Y79005205D01*
X23735407Y79006033D01*
X23655636Y79007224D01*
X23583201Y79008781D01*
X23520545Y79010703D01*
X23470112Y79012992D01*
X23461346Y79013517D01*
X23371216Y79022451D01*
X23295535Y79037613D01*
X23229856Y79060257D01*
X23169732Y79091637D01*
X23157795Y79099194D01*
X23093920Y79148551D01*
X23031562Y79210955D01*
X22976533Y79280392D01*
X22962915Y79300769D01*
X22950753Y79321797D01*
X22931068Y79358310D01*
X22904899Y79408230D01*
X22873283Y79469479D01*
X22837258Y79539978D01*
X22797864Y79617651D01*
X22756136Y79700418D01*
X22713114Y79786201D01*
X22669835Y79872923D01*
X22627337Y79958505D01*
X22586659Y80040869D01*
X22548838Y80117937D01*
X22514912Y80187631D01*
X22485919Y80247873D01*
X22462898Y80296584D01*
X22446885Y80331686D01*
X22440670Y80346365D01*
X22397525Y80481198D01*
X22373813Y80617268D01*
X22369520Y80753935D01*
X22384630Y80890560D01*
X22419129Y81026504D01*
X22458793Y81130077D01*
X22476381Y81168654D01*
X22500850Y81220316D01*
X22531152Y81282986D01*
X22566234Y81354589D01*
X22605046Y81433049D01*
X22646539Y81516287D01*
X22689660Y81602229D01*
X22733361Y81688798D01*
X22776590Y81773917D01*
X22818296Y81855510D01*
X22857430Y81931501D01*
X22892941Y81999814D01*
X22923777Y82058371D01*
X22948890Y82105097D01*
X22967228Y82137915D01*
X22975891Y82152134D01*
X23045842Y82240025D01*
X23127399Y82312269D01*
X23219987Y82368471D01*
X23323032Y82408237D01*
X23363654Y82418696D01*
X23383513Y82422784D01*
X23404891Y82426200D01*
X23429674Y82429003D01*
X23459750Y82431255D01*
X23497006Y82433017D01*
X23543328Y82434350D01*
X23600604Y82435314D01*
X23670721Y82435971D01*
X23755565Y82436381D01*
X23857024Y82436605D01*
X23920500Y82436672D01*
X24399192Y82437039D01*
X24442775Y82412616D01*
X24442775Y82412616D01*
G37*
X24442775Y82412616D02*
X24490609Y82375291D01*
X24525160Y82326427D01*
X24545457Y82269658D01*
X24550531Y82208616D01*
X24539410Y82146935D01*
X24523750Y82109569D01*
X24501543Y82074073D01*
X24474626Y82047989D01*
X24443154Y82027857D01*
X24389423Y81997423D01*
X23920500Y81992539D01*
X23809548Y81991399D01*
X23716363Y81990341D01*
X23639177Y81989143D01*
X23576220Y81987584D01*
X23525724Y81985444D01*
X23485921Y81982500D01*
X23455040Y81978532D01*
X23431314Y81973319D01*
X23412973Y81966640D01*
X23398250Y81958273D01*
X23385374Y81947997D01*
X23372577Y81935591D01*
X23359661Y81922417D01*
X23348688Y81906970D01*
X23330250Y81875918D01*
X23305354Y81831258D01*
X23275008Y81774991D01*
X23240220Y81709116D01*
X23201999Y81635632D01*
X23161353Y81556539D01*
X23119289Y81473835D01*
X23076815Y81389520D01*
X23034940Y81305593D01*
X22994672Y81224054D01*
X22957018Y81146901D01*
X22922987Y81076134D01*
X22893587Y81013753D01*
X22869826Y80961756D01*
X22852711Y80922143D01*
X22844421Y80900531D01*
X22825100Y80820034D01*
X22817329Y80731055D01*
X22821438Y80641108D01*
X22830616Y80585769D01*
X22838633Y80559343D01*
X22853986Y80519947D01*
X22877021Y80466818D01*
X22908086Y80399194D01*
X22947527Y80316310D01*
X22995691Y80217405D01*
X23026014Y80155923D01*
X23067258Y80072511D01*
X23107796Y79990342D01*
X23146353Y79912012D01*
X23181657Y79840114D01*
X23212436Y79777242D01*
X23237414Y79725988D01*
X23255321Y79688947D01*
X23258753Y79681772D01*
X23290419Y79618331D01*
X23318358Y79570176D01*
X23345144Y79534101D01*
X23373351Y79506897D01*
X23405554Y79485356D01*
X23424238Y79475571D01*
X23479538Y79448515D01*
X23919827Y79446722D01*
X24044907Y79445967D01*
X24150817Y79444795D01*
X24237924Y79443196D01*
X24306593Y79441159D01*
X24357188Y79438675D01*
X24390075Y79435733D01*
X24402188Y79433554D01*
X24456229Y79409425D01*
X24499715Y79370793D01*
X24530647Y79320722D01*
X24547024Y79262275D01*
X24548165Y79209980D01*
X24534131Y79142476D01*
X24505913Y79087061D01*
X24464444Y79044962D01*
X24410657Y79017408D01*
X24399192Y79013937D01*
X24380415Y79011541D01*
X24344545Y79009500D01*
X24294026Y79007813D01*
X24231300Y79006481D01*
X24158810Y79005508D01*
X24079000Y79004892D01*
X23994311Y79004635D01*
X23907188Y79004739D01*
X23820072Y79005205D01*
X23735407Y79006033D01*
X23655636Y79007224D01*
X23583201Y79008781D01*
X23520545Y79010703D01*
X23470112Y79012992D01*
X23461346Y79013517D01*
X23371216Y79022451D01*
X23295535Y79037613D01*
X23229856Y79060257D01*
X23169732Y79091637D01*
X23157795Y79099194D01*
X23093920Y79148551D01*
X23031562Y79210955D01*
X22976533Y79280392D01*
X22962915Y79300769D01*
X22950753Y79321797D01*
X22931068Y79358310D01*
X22904899Y79408230D01*
X22873283Y79469479D01*
X22837258Y79539978D01*
X22797864Y79617651D01*
X22756136Y79700418D01*
X22713114Y79786201D01*
X22669835Y79872923D01*
X22627337Y79958505D01*
X22586659Y80040869D01*
X22548838Y80117937D01*
X22514912Y80187631D01*
X22485919Y80247873D01*
X22462898Y80296584D01*
X22446885Y80331686D01*
X22440670Y80346365D01*
X22397525Y80481198D01*
X22373813Y80617268D01*
X22369520Y80753935D01*
X22384630Y80890560D01*
X22419129Y81026504D01*
X22458793Y81130077D01*
X22476381Y81168654D01*
X22500850Y81220316D01*
X22531152Y81282986D01*
X22566234Y81354589D01*
X22605046Y81433049D01*
X22646539Y81516287D01*
X22689660Y81602229D01*
X22733361Y81688798D01*
X22776590Y81773917D01*
X22818296Y81855510D01*
X22857430Y81931501D01*
X22892941Y81999814D01*
X22923777Y82058371D01*
X22948890Y82105097D01*
X22967228Y82137915D01*
X22975891Y82152134D01*
X23045842Y82240025D01*
X23127399Y82312269D01*
X23219987Y82368471D01*
X23323032Y82408237D01*
X23363654Y82418696D01*
X23383513Y82422784D01*
X23404891Y82426200D01*
X23429674Y82429003D01*
X23459750Y82431255D01*
X23497006Y82433017D01*
X23543328Y82434350D01*
X23600604Y82435314D01*
X23670721Y82435971D01*
X23755565Y82436381D01*
X23857024Y82436605D01*
X23920500Y82436672D01*
X24399192Y82437039D01*
X24442775Y82412616D01*
G36*
X25090737Y88200393D02*
G01*
X25124172Y88198078D01*
X25150869Y88192683D01*
X25177222Y88182950D01*
X25207164Y88168836D01*
X25278079Y88123838D01*
X25335366Y88066777D01*
X25378113Y88000211D01*
X25405405Y87926694D01*
X25416329Y87848781D01*
X25409973Y87769029D01*
X25385423Y87689994D01*
X25381434Y87681155D01*
X25338754Y87611253D01*
X25280853Y87552550D01*
X25206852Y87504203D01*
X25187947Y87494691D01*
X25112346Y87458423D01*
X25112346Y85573089D01*
X25187640Y85535925D01*
X25263424Y85490832D01*
X25323710Y85437064D01*
X25371695Y85371618D01*
X25381949Y85353443D01*
X25415192Y85291485D01*
X26538654Y84642720D01*
X26690208Y84555216D01*
X26846852Y84464800D01*
X27006670Y84372575D01*
X27167748Y84279647D01*
X27328170Y84187118D01*
X27486023Y84096093D01*
X27639392Y84007675D01*
X27786361Y83922968D01*
X27925018Y83843077D01*
X28053445Y83769105D01*
X28169731Y83702155D01*
X28271958Y83643332D01*
X28316654Y83617629D01*
X28421626Y83557168D01*
X28522480Y83498872D01*
X28617809Y83443566D01*
X28706207Y83392076D01*
X28786268Y83345227D01*
X28856588Y83303843D01*
X28915760Y83268749D01*
X28962379Y83240772D01*
X28995039Y83220735D01*
X29012335Y83209464D01*
X29013413Y83208661D01*
X29075220Y83149254D01*
X29123608Y83078338D01*
X29144869Y83031847D01*
X29166577Y82974346D01*
X29171461Y80859308D01*
X29176346Y78744269D01*
X29214087Y78692716D01*
X29254168Y78623209D01*
X29279158Y78546967D01*
X29287999Y78468693D01*
X29280636Y78397462D01*
X29276407Y78369752D01*
X29276312Y78348248D01*
X29276546Y78346975D01*
X29280774Y78342313D01*
X29292730Y78333397D01*
X29313035Y78319860D01*
X29342310Y78301338D01*
X29381175Y78277466D01*
X29430250Y78247878D01*
X29490157Y78212210D01*
X29561516Y78170096D01*
X29644948Y78121170D01*
X29741073Y78065069D01*
X29850511Y78001427D01*
X29973885Y77929878D01*
X30111813Y77850057D01*
X30264917Y77761600D01*
X30433818Y77664141D01*
X30596966Y77570090D01*
X30644983Y77542946D01*
X30687923Y77519657D01*
X30722607Y77501871D01*
X30745858Y77491234D01*
X30753603Y77488923D01*
X30769634Y77493985D01*
X30795746Y77507180D01*
X30822791Y77523455D01*
X30892082Y77560307D01*
X30962458Y77580406D01*
X31039906Y77585314D01*
X31057447Y77584571D01*
X31140433Y77570514D01*
X31215636Y77539204D01*
X31281057Y77491963D01*
X31334695Y77430110D01*
X31361852Y77383595D01*
X31376428Y77352654D01*
X31385772Y77327208D01*
X31391038Y77301218D01*
X31393381Y77268640D01*
X31393956Y77223434D01*
X31393961Y77215590D01*
X31393449Y77167208D01*
X31391255Y77132567D01*
X31386391Y77105884D01*
X31377868Y77081374D01*
X31367049Y77058008D01*
X31333291Y77005211D01*
X31286517Y76953534D01*
X31232695Y76908723D01*
X31179459Y76877283D01*
X31103196Y76852127D01*
X31026956Y76844829D01*
X30952762Y76853810D01*
X30882637Y76877492D01*
X30818605Y76914298D01*
X30762691Y76962649D01*
X30716916Y77020967D01*
X30683306Y77087673D01*
X30663883Y77161190D01*
X30662255Y77201107D01*
X30814300Y77201107D01*
X30828793Y77138870D01*
X30836080Y77121605D01*
X30869421Y77071788D01*
X30915312Y77033910D01*
X30969773Y77009491D01*
X31028823Y77000052D01*
X31088484Y77007114D01*
X31113410Y77015634D01*
X31166856Y77047899D01*
X31208150Y77093071D01*
X31235400Y77147514D01*
X31246712Y77207596D01*
X31241933Y77262462D01*
X31219392Y77323626D01*
X31182807Y77373347D01*
X31134619Y77409617D01*
X31077271Y77430427D01*
X31032500Y77434716D01*
X30968088Y77425631D01*
X30912686Y77401085D01*
X30867949Y77363719D01*
X30835534Y77316173D01*
X30817099Y77261089D01*
X30814300Y77201107D01*
X30662255Y77201107D01*
X30660671Y77239940D01*
X30665325Y77278243D01*
X30671130Y77325028D01*
X30669178Y77354571D01*
X30666817Y77360683D01*
X30656533Y77369258D01*
X30631060Y77386424D01*
X30592182Y77411090D01*
X30541682Y77442168D01*
X30481345Y77478567D01*
X30412953Y77519198D01*
X30338289Y77562972D01*
X30287959Y77592177D01*
X30191568Y77647891D01*
X30084307Y77709894D01*
X29970952Y77775425D01*
X29856282Y77841719D01*
X29745074Y77906017D01*
X29642106Y77965554D01*
X29567510Y78008691D01*
X29491684Y78052344D01*
X29420782Y78092781D01*
X29356654Y78128977D01*
X29301148Y78159904D01*
X29256115Y78184536D01*
X29223402Y78201847D01*
X29204859Y78210810D01*
X29201589Y78211846D01*
X29186533Y78206522D01*
X29161367Y78192591D01*
X29132809Y78173932D01*
X29078519Y78140552D01*
X29025542Y78119139D01*
X28967245Y78107737D01*
X28897268Y78104385D01*
X28847919Y78102731D01*
X28806364Y78098192D01*
X28778326Y78091405D01*
X28777555Y78091091D01*
X28763332Y78083771D01*
X28732287Y78066675D01*
X28684492Y78039844D01*
X28620017Y78003319D01*
X28538933Y77957140D01*
X28441311Y77901349D01*
X28327223Y77835987D01*
X28196741Y77761094D01*
X28049934Y77676712D01*
X27886874Y77582880D01*
X27707632Y77479641D01*
X27512280Y77367035D01*
X27300888Y77245103D01*
X27073529Y77113886D01*
X26830271Y76973424D01*
X26571188Y76823759D01*
X26296350Y76664932D01*
X26186961Y76601701D01*
X26026543Y76509099D01*
X25877334Y76423233D01*
X25739877Y76344409D01*
X25614714Y76272933D01*
X25502389Y76209111D01*
X25403442Y76153248D01*
X25318418Y76105652D01*
X25247859Y76066626D01*
X25192307Y76036479D01*
X25152305Y76015515D01*
X25128396Y76004040D01*
X25123687Y76002245D01*
X25044063Y75986842D01*
X24963907Y75989043D01*
X24901775Y76003800D01*
X24884498Y76011707D01*
X24851816Y76028622D01*
X24805206Y76053721D01*
X24746144Y76086177D01*
X24676109Y76125164D01*
X24596578Y76169857D01*
X24509027Y76219428D01*
X24414934Y76273054D01*
X24315777Y76329906D01*
X24227698Y76380681D01*
X24118637Y76443708D01*
X24008373Y76507431D01*
X23899038Y76570617D01*
X23792767Y76632032D01*
X23691694Y76690444D01*
X23597952Y76744618D01*
X23513677Y76793322D01*
X23441001Y76835323D01*
X23382059Y76869386D01*
X23358769Y76882846D01*
X23315477Y76907866D01*
X23256789Y76941786D01*
X23184228Y76983725D01*
X23099314Y77032805D01*
X23003567Y77088147D01*
X22898509Y77148872D01*
X22785659Y77214101D01*
X22666540Y77282954D01*
X22542672Y77354552D01*
X22415576Y77428017D01*
X22286772Y77502470D01*
X22194527Y77555791D01*
X22071070Y77627107D01*
X21952044Y77695774D01*
X21838576Y77761145D01*
X21731796Y77822573D01*
X21632833Y77879412D01*
X21542817Y77931016D01*
X21462875Y77976738D01*
X21394137Y78015932D01*
X21337733Y78047951D01*
X21294790Y78072149D01*
X21266438Y78087879D01*
X21253806Y78094495D01*
X21253603Y78094576D01*
X21232099Y78099084D01*
X21197432Y78102498D01*
X21155970Y78104261D01*
X21142070Y78104385D01*
X21072950Y78107444D01*
X21015999Y78117829D01*
X20964644Y78137352D01*
X20912568Y78167655D01*
X20881583Y78185969D01*
X20855377Y78197433D01*
X20840247Y78199754D01*
X20828347Y78194004D01*
X20801164Y78179299D01*
X20760194Y78156503D01*
X20706931Y78126483D01*
X20642870Y78090104D01*
X20569505Y78048230D01*
X20488330Y78001729D01*
X20400839Y77951464D01*
X20308528Y77898302D01*
X20212891Y77843108D01*
X20115422Y77786748D01*
X20017616Y77730086D01*
X19920966Y77673988D01*
X19826968Y77619320D01*
X19737116Y77566946D01*
X19652904Y77517734D01*
X19575827Y77472547D01*
X19507380Y77432251D01*
X19449056Y77397712D01*
X19402350Y77369796D01*
X19368757Y77349367D01*
X19349771Y77337291D01*
X19346057Y77334476D01*
X19339360Y77315403D01*
X19335172Y77279859D01*
X19333846Y77234829D01*
X19328342Y77148551D01*
X19310973Y77075529D01*
X19280449Y77012592D01*
X19235483Y76956569D01*
X19211629Y76934029D01*
X19152325Y76891340D01*
X19087585Y76864284D01*
X19013457Y76851473D01*
X18972384Y76849976D01*
X18918882Y76851859D01*
X18876347Y76858391D01*
X18836492Y76870893D01*
X18833205Y76872178D01*
X18769033Y76906996D01*
X18710027Y76956940D01*
X18660835Y77017604D01*
X18638024Y77057194D01*
X18622722Y77089981D01*
X18613254Y77117002D01*
X18608241Y77145067D01*
X18606303Y77180988D01*
X18606095Y77207893D01*
X18751471Y77207893D01*
X18762244Y77149939D01*
X18790216Y77095627D01*
X18832889Y77049967D01*
X18887553Y77016762D01*
X18948572Y77001769D01*
X19014669Y77005214D01*
X19044520Y77012476D01*
X19085840Y77032935D01*
X19125653Y77066337D01*
X19157899Y77106622D01*
X19175293Y77143249D01*
X19186914Y77211470D01*
X19180019Y77274767D01*
X19154951Y77331882D01*
X19112056Y77381560D01*
X19109208Y77384034D01*
X19054594Y77419387D01*
X18996692Y77436066D01*
X18937689Y77434155D01*
X18879769Y77413737D01*
X18825116Y77374894D01*
X18823245Y77373160D01*
X18781880Y77322549D01*
X18757985Y77266445D01*
X18751471Y77207893D01*
X18606095Y77207893D01*
X18606038Y77215179D01*
X18606692Y77261476D01*
X18609536Y77295123D01*
X18615893Y77322993D01*
X18627088Y77351955D01*
X18636191Y77371693D01*
X18679919Y77443427D01*
X18735839Y77502364D01*
X18801539Y77546773D01*
X18874607Y77574917D01*
X18931976Y77584253D01*
X19004035Y77582562D01*
X19074479Y77566098D01*
X19147368Y77533705D01*
X19183752Y77512570D01*
X19218618Y77492497D01*
X19249548Y77477389D01*
X19271140Y77469809D01*
X19274813Y77469385D01*
X19285904Y77473673D01*
X19311621Y77486604D01*
X19352141Y77508279D01*
X19407644Y77538801D01*
X19478307Y77578270D01*
X19564311Y77626789D01*
X19665832Y77684459D01*
X19783050Y77751381D01*
X19916142Y77827656D01*
X20065289Y77913388D01*
X20230667Y78008676D01*
X20412456Y78113622D01*
X20610834Y78228328D01*
X20698804Y78279244D01*
X20729579Y78298409D01*
X20753141Y78315596D01*
X20764647Y78327253D01*
X20764847Y78327697D01*
X20765979Y78343703D01*
X20763726Y78372378D01*
X20759106Y78404242D01*
X20753432Y78491281D01*
X20753851Y78493934D01*
X20908495Y78493934D01*
X20912318Y78426419D01*
X20933671Y78367184D01*
X20971919Y78317376D01*
X21026426Y78278143D01*
X21028807Y78276877D01*
X21065877Y78265196D01*
X21113008Y78260957D01*
X21162253Y78264033D01*
X21205659Y78274299D01*
X21218647Y78279894D01*
X21247659Y78299152D01*
X21278343Y78326108D01*
X21291094Y78339763D01*
X21323802Y78391735D01*
X21339244Y78448441D01*
X21337977Y78506605D01*
X21320556Y78562949D01*
X21287536Y78614197D01*
X21239473Y78657070D01*
X21237034Y78658705D01*
X21212850Y78672996D01*
X21189728Y78681164D01*
X21160682Y78684839D01*
X21121615Y78685654D01*
X21080592Y78684720D01*
X21052077Y78680831D01*
X21029084Y78672355D01*
X21006197Y78658705D01*
X20956727Y78615600D01*
X20924372Y78563073D01*
X20909114Y78501092D01*
X20908495Y78493934D01*
X20753851Y78493934D01*
X20766713Y78575342D01*
X20798501Y78654467D01*
X20826687Y78699331D01*
X20857846Y78742316D01*
X20857889Y79949922D01*
X21298939Y79949922D01*
X21298992Y79787895D01*
X21299099Y79635521D01*
X21299261Y79493736D01*
X21299475Y79363477D01*
X21299740Y79245680D01*
X21300055Y79141282D01*
X21300419Y79051218D01*
X21300829Y78976426D01*
X21301284Y78917842D01*
X21301783Y78876401D01*
X21302325Y78853042D01*
X21302645Y78848217D01*
X21314816Y78818994D01*
X21342750Y78780589D01*
X21370508Y78749391D01*
X21414032Y78699730D01*
X21445234Y78654841D01*
X21467779Y78608258D01*
X21485328Y78553517D01*
X21488548Y78541072D01*
X21500631Y78502882D01*
X21514966Y78472089D01*
X21525590Y78457720D01*
X21536709Y78450324D01*
X21563650Y78433824D01*
X21605302Y78408871D01*
X21660558Y78376113D01*
X21728308Y78336199D01*
X21807443Y78289780D01*
X21896853Y78237503D01*
X21995431Y78180019D01*
X22102066Y78117976D01*
X22215650Y78052025D01*
X22335073Y77982813D01*
X22459227Y77910991D01*
X22484423Y77896431D01*
X22630615Y77811953D01*
X22786929Y77721603D01*
X22950670Y77626939D01*
X23119143Y77529520D01*
X23289654Y77430906D01*
X23459506Y77332654D01*
X23626007Y77236325D01*
X23786460Y77143475D01*
X23938171Y77055666D01*
X24078446Y76974454D01*
X24204589Y76901400D01*
X24208692Y76899023D01*
X24353229Y76815409D01*
X24481611Y76741388D01*
X24594493Y76676593D01*
X24692531Y76620659D01*
X24776380Y76573221D01*
X24846696Y76533912D01*
X24904133Y76502368D01*
X24949348Y76478222D01*
X24982995Y76461110D01*
X25005731Y76450664D01*
X25018209Y76446521D01*
X25019992Y76446444D01*
X25031500Y76451638D01*
X25058833Y76466041D01*
X25100925Y76489046D01*
X25156707Y76520049D01*
X25225111Y76558442D01*
X25305068Y76603620D01*
X25395511Y76654977D01*
X25495371Y76711906D01*
X25603581Y76773802D01*
X25719073Y76840059D01*
X25840777Y76910070D01*
X25967627Y76983229D01*
X26055530Y77034034D01*
X26203335Y77119531D01*
X26358805Y77209462D01*
X26519631Y77302491D01*
X26683504Y77397283D01*
X26848116Y77492502D01*
X27011158Y77586812D01*
X27170321Y77678878D01*
X27323295Y77767364D01*
X27467773Y77850935D01*
X27601445Y77928255D01*
X27722002Y77997990D01*
X27791725Y78038319D01*
X27901258Y78101828D01*
X28006008Y78162860D01*
X28104724Y78220668D01*
X28196158Y78274508D01*
X28279062Y78323635D01*
X28352185Y78367304D01*
X28414281Y78404771D01*
X28464099Y78435289D01*
X28500390Y78458114D01*
X28501194Y78458652D01*
X28699728Y78458652D01*
X28710416Y78401683D01*
X28735336Y78349619D01*
X28773811Y78305811D01*
X28825162Y78273607D01*
X28831516Y78270938D01*
X28863966Y78263754D01*
X28906930Y78261650D01*
X28952121Y78264388D01*
X28991252Y78271731D01*
X29003256Y78275865D01*
X29056362Y78307770D01*
X29096303Y78351700D01*
X29121988Y78404317D01*
X29132329Y78462285D01*
X29126234Y78522270D01*
X29102794Y78580622D01*
X29065607Y78631717D01*
X29021184Y78665627D01*
X28966455Y78684248D01*
X28927463Y78688866D01*
X28865606Y78686024D01*
X28814315Y78668720D01*
X28769490Y78635406D01*
X28759826Y78625491D01*
X28723756Y78573906D01*
X28703949Y78517176D01*
X28699728Y78458652D01*
X28501194Y78458652D01*
X28521906Y78472502D01*
X28527575Y78477265D01*
X28535820Y78497456D01*
X28545786Y78528347D01*
X28551749Y78549744D01*
X28581393Y78632386D01*
X28623823Y78700868D01*
X28659013Y78738744D01*
X28685766Y78765466D01*
X28707885Y78791201D01*
X28718442Y78806736D01*
X28720013Y78819413D01*
X28721497Y78850505D01*
X28722892Y78898889D01*
X28724198Y78963443D01*
X28725416Y79043044D01*
X28726544Y79136570D01*
X28727583Y79242899D01*
X28728533Y79360908D01*
X28729392Y79489475D01*
X28730161Y79627477D01*
X28730839Y79773792D01*
X28731427Y79927297D01*
X28731923Y80086870D01*
X28732328Y80251388D01*
X28732641Y80419729D01*
X28732862Y80590771D01*
X28732991Y80763392D01*
X28733027Y80936467D01*
X28732970Y81108876D01*
X28732820Y81279496D01*
X28732576Y81447204D01*
X28732239Y81610878D01*
X28731808Y81769396D01*
X28731282Y81921635D01*
X28730661Y82066472D01*
X28729946Y82202785D01*
X28729135Y82329452D01*
X28728229Y82445350D01*
X28727227Y82549358D01*
X28726129Y82640351D01*
X28724934Y82717208D01*
X28723643Y82778807D01*
X28722255Y82824025D01*
X28720770Y82851740D01*
X28719490Y82860596D01*
X28707923Y82871086D01*
X28679339Y82890873D01*
X28633719Y82919969D01*
X28571045Y82958383D01*
X28491299Y83006128D01*
X28394463Y83063214D01*
X28280518Y83129652D01*
X28165230Y83196353D01*
X28088031Y83240890D01*
X27995568Y83294247D01*
X27889496Y83355469D01*
X27771468Y83423600D01*
X27643139Y83497687D01*
X27506163Y83576772D01*
X27362193Y83659903D01*
X27212884Y83746122D01*
X27059890Y83834477D01*
X26904865Y83924010D01*
X26749463Y84013767D01*
X26595338Y84102794D01*
X26449758Y84186892D01*
X26299693Y84273486D01*
X26156228Y84356078D01*
X26020202Y84434192D01*
X25892456Y84507353D01*
X25773830Y84575084D01*
X25665164Y84636910D01*
X25567299Y84692356D01*
X25481073Y84740946D01*
X25407329Y84782203D01*
X25346904Y84815653D01*
X25300641Y84840819D01*
X25269378Y84857226D01*
X25253956Y84864398D01*
X25252689Y84864693D01*
X25230906Y84861447D01*
X25198748Y84853032D01*
X25170623Y84843848D01*
X25089808Y84824722D01*
X25008676Y84824322D01*
X24930065Y84842586D01*
X24912077Y84849659D01*
X24875382Y84864141D01*
X24841595Y84875514D01*
X24819269Y84881066D01*
X24812523Y84880540D01*
X24801499Y84877177D01*
X24785306Y84870480D01*
X24763048Y84859951D01*
X24733832Y84845093D01*
X24696765Y84825410D01*
X24650952Y84800403D01*
X24595501Y84769576D01*
X24529516Y84732431D01*
X24452106Y84688472D01*
X24362375Y84637200D01*
X24259430Y84578120D01*
X24142377Y84510733D01*
X24010324Y84434543D01*
X23862375Y84349052D01*
X23847040Y84340185D01*
X23700887Y84255687D01*
X23544878Y84165510D01*
X23381668Y84071189D01*
X23213909Y83974256D01*
X23044257Y83876244D01*
X22875365Y83778687D01*
X22709888Y83683117D01*
X22550478Y83591067D01*
X22399790Y83504070D01*
X22260478Y83423659D01*
X22135196Y83351368D01*
X22125159Y83345577D01*
X22011331Y83279868D01*
X21902037Y83216695D01*
X21798502Y83156771D01*
X21701952Y83100811D01*
X21613616Y83049527D01*
X21534718Y83003633D01*
X21466485Y82963842D01*
X21410144Y82930869D01*
X21366921Y82905426D01*
X21338042Y82888226D01*
X21324734Y82879984D01*
X21324273Y82879655D01*
X21302346Y82863117D01*
X21299559Y80872078D01*
X21299313Y80675832D01*
X21299129Y80484557D01*
X21299007Y80299190D01*
X21298944Y80120666D01*
X21298939Y79949922D01*
X20857889Y79949922D01*
X20857920Y80819254D01*
X20857976Y81096156D01*
X20858127Y81353591D01*
X20858371Y81591632D01*
X20858709Y81810352D01*
X20859142Y82009822D01*
X20859670Y82190115D01*
X20860293Y82351303D01*
X20861012Y82493458D01*
X20861826Y82616653D01*
X20862737Y82720959D01*
X20863744Y82806449D01*
X20864849Y82873196D01*
X20866050Y82921270D01*
X20867350Y82950745D01*
X20868202Y82959693D01*
X20890226Y83044681D01*
X20927105Y83117230D01*
X20973233Y83172368D01*
X20986334Y83183183D01*
X21008337Y83198758D01*
X21039975Y83219529D01*
X21081986Y83245937D01*
X21135106Y83278420D01*
X21200070Y83317416D01*
X21277614Y83363364D01*
X21368475Y83416702D01*
X21473388Y83477870D01*
X21593090Y83547306D01*
X21728317Y83625448D01*
X21879804Y83712736D01*
X21884665Y83715533D01*
X22147108Y83866587D01*
X22393115Y84008225D01*
X22623199Y84140745D01*
X22837875Y84264450D01*
X23037657Y84379639D01*
X23223058Y84486613D01*
X23394593Y84585673D01*
X23552775Y84677119D01*
X23698119Y84761251D01*
X23831139Y84838370D01*
X23952349Y84908777D01*
X24062263Y84972773D01*
X24161394Y85030656D01*
X24250257Y85082730D01*
X24329367Y85129292D01*
X24399236Y85170646D01*
X24403272Y85173052D01*
X24828162Y85173052D01*
X24840652Y85121353D01*
X24865175Y85074299D01*
X24899965Y85034083D01*
X24943255Y85002899D01*
X24993280Y84982941D01*
X25048274Y84976402D01*
X25106470Y84985477D01*
X25147806Y85002109D01*
X25196515Y85037212D01*
X25232943Y85084324D01*
X25255656Y85139366D01*
X25263221Y85198258D01*
X25254204Y85256919D01*
X25245414Y85279885D01*
X25211023Y85334151D01*
X25166051Y85374413D01*
X25113698Y85400195D01*
X25057165Y85411022D01*
X24999652Y85406418D01*
X24944361Y85385908D01*
X24894492Y85349017D01*
X24880549Y85334081D01*
X24846345Y85281610D01*
X24829471Y85227203D01*
X24828162Y85173052D01*
X24403272Y85173052D01*
X24460379Y85207089D01*
X24513310Y85238925D01*
X24558542Y85266452D01*
X24596591Y85289971D01*
X24627970Y85309783D01*
X24653193Y85326189D01*
X24672775Y85339489D01*
X24687228Y85349983D01*
X24697067Y85357972D01*
X24701777Y85362555D01*
X24754574Y85419736D01*
X24797791Y85463301D01*
X24833656Y85495196D01*
X24864399Y85517372D01*
X24892250Y85531777D01*
X24897905Y85533984D01*
X24911618Y85538349D01*
X24923742Y85541474D01*
X24934373Y85544516D01*
X24943603Y85548632D01*
X24951529Y85554978D01*
X24958242Y85564711D01*
X24963838Y85578987D01*
X24968410Y85598963D01*
X24972053Y85625796D01*
X24974860Y85660642D01*
X24976926Y85704658D01*
X24978345Y85759000D01*
X24979210Y85824826D01*
X24979616Y85903291D01*
X24979657Y85995553D01*
X24979427Y86102767D01*
X24979020Y86226092D01*
X24978530Y86366682D01*
X24978067Y86519693D01*
X24975577Y87458423D01*
X24901936Y87493758D01*
X24823700Y87540778D01*
X24761114Y87598983D01*
X24714669Y87667747D01*
X24684852Y87746439D01*
X24677369Y87782524D01*
X24675202Y87835305D01*
X24829367Y87835305D01*
X24833724Y87781097D01*
X24848006Y87738052D01*
X24874990Y87699151D01*
X24889189Y87683957D01*
X24939884Y87645788D01*
X24997712Y87624621D01*
X25059388Y87620926D01*
X25121631Y87635173D01*
X25147714Y87646913D01*
X25198574Y87682768D01*
X25234210Y87727131D01*
X25255340Y87777211D01*
X25262680Y87830217D01*
X25256946Y87883358D01*
X25238857Y87933844D01*
X25209127Y87978882D01*
X25168475Y88015684D01*
X25117616Y88041456D01*
X25057269Y88053410D01*
X25043195Y88053905D01*
X24980432Y88045236D01*
X24925021Y88018725D01*
X24878204Y87975089D01*
X24858604Y87947393D01*
X24841524Y87916467D01*
X24832630Y87888634D01*
X24829521Y87854686D01*
X24829367Y87835305D01*
X24675202Y87835305D01*
X24674112Y87861825D01*
X24688836Y87939440D01*
X24720015Y88012545D01*
X24766124Y88078316D01*
X24825639Y88133928D01*
X24887778Y88172167D01*
X24917149Y88185660D01*
X24942671Y88194134D01*
X24970567Y88198731D01*
X25007058Y88200594D01*
X25044167Y88200885D01*
X25090737Y88200393D01*
X25090737Y88200393D01*
G37*
X25090737Y88200393D02*
X25124172Y88198078D01*
X25150869Y88192683D01*
X25177222Y88182950D01*
X25207164Y88168836D01*
X25278079Y88123838D01*
X25335366Y88066777D01*
X25378113Y88000211D01*
X25405405Y87926694D01*
X25416329Y87848781D01*
X25409973Y87769029D01*
X25385423Y87689994D01*
X25381434Y87681155D01*
X25338754Y87611253D01*
X25280853Y87552550D01*
X25206852Y87504203D01*
X25187947Y87494691D01*
X25112346Y87458423D01*
X25112346Y85573089D01*
X25187640Y85535925D01*
X25263424Y85490832D01*
X25323710Y85437064D01*
X25371695Y85371618D01*
X25381949Y85353443D01*
X25415192Y85291485D01*
X26538654Y84642720D01*
X26690208Y84555216D01*
X26846852Y84464800D01*
X27006670Y84372575D01*
X27167748Y84279647D01*
X27328170Y84187118D01*
X27486023Y84096093D01*
X27639392Y84007675D01*
X27786361Y83922968D01*
X27925018Y83843077D01*
X28053445Y83769105D01*
X28169731Y83702155D01*
X28271958Y83643332D01*
X28316654Y83617629D01*
X28421626Y83557168D01*
X28522480Y83498872D01*
X28617809Y83443566D01*
X28706207Y83392076D01*
X28786268Y83345227D01*
X28856588Y83303843D01*
X28915760Y83268749D01*
X28962379Y83240772D01*
X28995039Y83220735D01*
X29012335Y83209464D01*
X29013413Y83208661D01*
X29075220Y83149254D01*
X29123608Y83078338D01*
X29144869Y83031847D01*
X29166577Y82974346D01*
X29171461Y80859308D01*
X29176346Y78744269D01*
X29214087Y78692716D01*
X29254168Y78623209D01*
X29279158Y78546967D01*
X29287999Y78468693D01*
X29280636Y78397462D01*
X29276407Y78369752D01*
X29276312Y78348248D01*
X29276546Y78346975D01*
X29280774Y78342313D01*
X29292730Y78333397D01*
X29313035Y78319860D01*
X29342310Y78301338D01*
X29381175Y78277466D01*
X29430250Y78247878D01*
X29490157Y78212210D01*
X29561516Y78170096D01*
X29644948Y78121170D01*
X29741073Y78065069D01*
X29850511Y78001427D01*
X29973885Y77929878D01*
X30111813Y77850057D01*
X30264917Y77761600D01*
X30433818Y77664141D01*
X30596966Y77570090D01*
X30644983Y77542946D01*
X30687923Y77519657D01*
X30722607Y77501871D01*
X30745858Y77491234D01*
X30753603Y77488923D01*
X30769634Y77493985D01*
X30795746Y77507180D01*
X30822791Y77523455D01*
X30892082Y77560307D01*
X30962458Y77580406D01*
X31039906Y77585314D01*
X31057447Y77584571D01*
X31140433Y77570514D01*
X31215636Y77539204D01*
X31281057Y77491963D01*
X31334695Y77430110D01*
X31361852Y77383595D01*
X31376428Y77352654D01*
X31385772Y77327208D01*
X31391038Y77301218D01*
X31393381Y77268640D01*
X31393956Y77223434D01*
X31393961Y77215590D01*
X31393449Y77167208D01*
X31391255Y77132567D01*
X31386391Y77105884D01*
X31377868Y77081374D01*
X31367049Y77058008D01*
X31333291Y77005211D01*
X31286517Y76953534D01*
X31232695Y76908723D01*
X31179459Y76877283D01*
X31103196Y76852127D01*
X31026956Y76844829D01*
X30952762Y76853810D01*
X30882637Y76877492D01*
X30818605Y76914298D01*
X30762691Y76962649D01*
X30716916Y77020967D01*
X30683306Y77087673D01*
X30663883Y77161190D01*
X30662255Y77201107D01*
X30814300Y77201107D01*
X30828793Y77138870D01*
X30836080Y77121605D01*
X30869421Y77071788D01*
X30915312Y77033910D01*
X30969773Y77009491D01*
X31028823Y77000052D01*
X31088484Y77007114D01*
X31113410Y77015634D01*
X31166856Y77047899D01*
X31208150Y77093071D01*
X31235400Y77147514D01*
X31246712Y77207596D01*
X31241933Y77262462D01*
X31219392Y77323626D01*
X31182807Y77373347D01*
X31134619Y77409617D01*
X31077271Y77430427D01*
X31032500Y77434716D01*
X30968088Y77425631D01*
X30912686Y77401085D01*
X30867949Y77363719D01*
X30835534Y77316173D01*
X30817099Y77261089D01*
X30814300Y77201107D01*
X30662255Y77201107D01*
X30660671Y77239940D01*
X30665325Y77278243D01*
X30671130Y77325028D01*
X30669178Y77354571D01*
X30666817Y77360683D01*
X30656533Y77369258D01*
X30631060Y77386424D01*
X30592182Y77411090D01*
X30541682Y77442168D01*
X30481345Y77478567D01*
X30412953Y77519198D01*
X30338289Y77562972D01*
X30287959Y77592177D01*
X30191568Y77647891D01*
X30084307Y77709894D01*
X29970952Y77775425D01*
X29856282Y77841719D01*
X29745074Y77906017D01*
X29642106Y77965554D01*
X29567510Y78008691D01*
X29491684Y78052344D01*
X29420782Y78092781D01*
X29356654Y78128977D01*
X29301148Y78159904D01*
X29256115Y78184536D01*
X29223402Y78201847D01*
X29204859Y78210810D01*
X29201589Y78211846D01*
X29186533Y78206522D01*
X29161367Y78192591D01*
X29132809Y78173932D01*
X29078519Y78140552D01*
X29025542Y78119139D01*
X28967245Y78107737D01*
X28897268Y78104385D01*
X28847919Y78102731D01*
X28806364Y78098192D01*
X28778326Y78091405D01*
X28777555Y78091091D01*
X28763332Y78083771D01*
X28732287Y78066675D01*
X28684492Y78039844D01*
X28620017Y78003319D01*
X28538933Y77957140D01*
X28441311Y77901349D01*
X28327223Y77835987D01*
X28196741Y77761094D01*
X28049934Y77676712D01*
X27886874Y77582880D01*
X27707632Y77479641D01*
X27512280Y77367035D01*
X27300888Y77245103D01*
X27073529Y77113886D01*
X26830271Y76973424D01*
X26571188Y76823759D01*
X26296350Y76664932D01*
X26186961Y76601701D01*
X26026543Y76509099D01*
X25877334Y76423233D01*
X25739877Y76344409D01*
X25614714Y76272933D01*
X25502389Y76209111D01*
X25403442Y76153248D01*
X25318418Y76105652D01*
X25247859Y76066626D01*
X25192307Y76036479D01*
X25152305Y76015515D01*
X25128396Y76004040D01*
X25123687Y76002245D01*
X25044063Y75986842D01*
X24963907Y75989043D01*
X24901775Y76003800D01*
X24884498Y76011707D01*
X24851816Y76028622D01*
X24805206Y76053721D01*
X24746144Y76086177D01*
X24676109Y76125164D01*
X24596578Y76169857D01*
X24509027Y76219428D01*
X24414934Y76273054D01*
X24315777Y76329906D01*
X24227698Y76380681D01*
X24118637Y76443708D01*
X24008373Y76507431D01*
X23899038Y76570617D01*
X23792767Y76632032D01*
X23691694Y76690444D01*
X23597952Y76744618D01*
X23513677Y76793322D01*
X23441001Y76835323D01*
X23382059Y76869386D01*
X23358769Y76882846D01*
X23315477Y76907866D01*
X23256789Y76941786D01*
X23184228Y76983725D01*
X23099314Y77032805D01*
X23003567Y77088147D01*
X22898509Y77148872D01*
X22785659Y77214101D01*
X22666540Y77282954D01*
X22542672Y77354552D01*
X22415576Y77428017D01*
X22286772Y77502470D01*
X22194527Y77555791D01*
X22071070Y77627107D01*
X21952044Y77695774D01*
X21838576Y77761145D01*
X21731796Y77822573D01*
X21632833Y77879412D01*
X21542817Y77931016D01*
X21462875Y77976738D01*
X21394137Y78015932D01*
X21337733Y78047951D01*
X21294790Y78072149D01*
X21266438Y78087879D01*
X21253806Y78094495D01*
X21253603Y78094576D01*
X21232099Y78099084D01*
X21197432Y78102498D01*
X21155970Y78104261D01*
X21142070Y78104385D01*
X21072950Y78107444D01*
X21015999Y78117829D01*
X20964644Y78137352D01*
X20912568Y78167655D01*
X20881583Y78185969D01*
X20855377Y78197433D01*
X20840247Y78199754D01*
X20828347Y78194004D01*
X20801164Y78179299D01*
X20760194Y78156503D01*
X20706931Y78126483D01*
X20642870Y78090104D01*
X20569505Y78048230D01*
X20488330Y78001729D01*
X20400839Y77951464D01*
X20308528Y77898302D01*
X20212891Y77843108D01*
X20115422Y77786748D01*
X20017616Y77730086D01*
X19920966Y77673988D01*
X19826968Y77619320D01*
X19737116Y77566946D01*
X19652904Y77517734D01*
X19575827Y77472547D01*
X19507380Y77432251D01*
X19449056Y77397712D01*
X19402350Y77369796D01*
X19368757Y77349367D01*
X19349771Y77337291D01*
X19346057Y77334476D01*
X19339360Y77315403D01*
X19335172Y77279859D01*
X19333846Y77234829D01*
X19328342Y77148551D01*
X19310973Y77075529D01*
X19280449Y77012592D01*
X19235483Y76956569D01*
X19211629Y76934029D01*
X19152325Y76891340D01*
X19087585Y76864284D01*
X19013457Y76851473D01*
X18972384Y76849976D01*
X18918882Y76851859D01*
X18876347Y76858391D01*
X18836492Y76870893D01*
X18833205Y76872178D01*
X18769033Y76906996D01*
X18710027Y76956940D01*
X18660835Y77017604D01*
X18638024Y77057194D01*
X18622722Y77089981D01*
X18613254Y77117002D01*
X18608241Y77145067D01*
X18606303Y77180988D01*
X18606095Y77207893D01*
X18751471Y77207893D01*
X18762244Y77149939D01*
X18790216Y77095627D01*
X18832889Y77049967D01*
X18887553Y77016762D01*
X18948572Y77001769D01*
X19014669Y77005214D01*
X19044520Y77012476D01*
X19085840Y77032935D01*
X19125653Y77066337D01*
X19157899Y77106622D01*
X19175293Y77143249D01*
X19186914Y77211470D01*
X19180019Y77274767D01*
X19154951Y77331882D01*
X19112056Y77381560D01*
X19109208Y77384034D01*
X19054594Y77419387D01*
X18996692Y77436066D01*
X18937689Y77434155D01*
X18879769Y77413737D01*
X18825116Y77374894D01*
X18823245Y77373160D01*
X18781880Y77322549D01*
X18757985Y77266445D01*
X18751471Y77207893D01*
X18606095Y77207893D01*
X18606038Y77215179D01*
X18606692Y77261476D01*
X18609536Y77295123D01*
X18615893Y77322993D01*
X18627088Y77351955D01*
X18636191Y77371693D01*
X18679919Y77443427D01*
X18735839Y77502364D01*
X18801539Y77546773D01*
X18874607Y77574917D01*
X18931976Y77584253D01*
X19004035Y77582562D01*
X19074479Y77566098D01*
X19147368Y77533705D01*
X19183752Y77512570D01*
X19218618Y77492497D01*
X19249548Y77477389D01*
X19271140Y77469809D01*
X19274813Y77469385D01*
X19285904Y77473673D01*
X19311621Y77486604D01*
X19352141Y77508279D01*
X19407644Y77538801D01*
X19478307Y77578270D01*
X19564311Y77626789D01*
X19665832Y77684459D01*
X19783050Y77751381D01*
X19916142Y77827656D01*
X20065289Y77913388D01*
X20230667Y78008676D01*
X20412456Y78113622D01*
X20610834Y78228328D01*
X20698804Y78279244D01*
X20729579Y78298409D01*
X20753141Y78315596D01*
X20764647Y78327253D01*
X20764847Y78327697D01*
X20765979Y78343703D01*
X20763726Y78372378D01*
X20759106Y78404242D01*
X20753432Y78491281D01*
X20753851Y78493934D01*
X20908495Y78493934D01*
X20912318Y78426419D01*
X20933671Y78367184D01*
X20971919Y78317376D01*
X21026426Y78278143D01*
X21028807Y78276877D01*
X21065877Y78265196D01*
X21113008Y78260957D01*
X21162253Y78264033D01*
X21205659Y78274299D01*
X21218647Y78279894D01*
X21247659Y78299152D01*
X21278343Y78326108D01*
X21291094Y78339763D01*
X21323802Y78391735D01*
X21339244Y78448441D01*
X21337977Y78506605D01*
X21320556Y78562949D01*
X21287536Y78614197D01*
X21239473Y78657070D01*
X21237034Y78658705D01*
X21212850Y78672996D01*
X21189728Y78681164D01*
X21160682Y78684839D01*
X21121615Y78685654D01*
X21080592Y78684720D01*
X21052077Y78680831D01*
X21029084Y78672355D01*
X21006197Y78658705D01*
X20956727Y78615600D01*
X20924372Y78563073D01*
X20909114Y78501092D01*
X20908495Y78493934D01*
X20753851Y78493934D01*
X20766713Y78575342D01*
X20798501Y78654467D01*
X20826687Y78699331D01*
X20857846Y78742316D01*
X20857889Y79949922D01*
X21298939Y79949922D01*
X21298992Y79787895D01*
X21299099Y79635521D01*
X21299261Y79493736D01*
X21299475Y79363477D01*
X21299740Y79245680D01*
X21300055Y79141282D01*
X21300419Y79051218D01*
X21300829Y78976426D01*
X21301284Y78917842D01*
X21301783Y78876401D01*
X21302325Y78853042D01*
X21302645Y78848217D01*
X21314816Y78818994D01*
X21342750Y78780589D01*
X21370508Y78749391D01*
X21414032Y78699730D01*
X21445234Y78654841D01*
X21467779Y78608258D01*
X21485328Y78553517D01*
X21488548Y78541072D01*
X21500631Y78502882D01*
X21514966Y78472089D01*
X21525590Y78457720D01*
X21536709Y78450324D01*
X21563650Y78433824D01*
X21605302Y78408871D01*
X21660558Y78376113D01*
X21728308Y78336199D01*
X21807443Y78289780D01*
X21896853Y78237503D01*
X21995431Y78180019D01*
X22102066Y78117976D01*
X22215650Y78052025D01*
X22335073Y77982813D01*
X22459227Y77910991D01*
X22484423Y77896431D01*
X22630615Y77811953D01*
X22786929Y77721603D01*
X22950670Y77626939D01*
X23119143Y77529520D01*
X23289654Y77430906D01*
X23459506Y77332654D01*
X23626007Y77236325D01*
X23786460Y77143475D01*
X23938171Y77055666D01*
X24078446Y76974454D01*
X24204589Y76901400D01*
X24208692Y76899023D01*
X24353229Y76815409D01*
X24481611Y76741388D01*
X24594493Y76676593D01*
X24692531Y76620659D01*
X24776380Y76573221D01*
X24846696Y76533912D01*
X24904133Y76502368D01*
X24949348Y76478222D01*
X24982995Y76461110D01*
X25005731Y76450664D01*
X25018209Y76446521D01*
X25019992Y76446444D01*
X25031500Y76451638D01*
X25058833Y76466041D01*
X25100925Y76489046D01*
X25156707Y76520049D01*
X25225111Y76558442D01*
X25305068Y76603620D01*
X25395511Y76654977D01*
X25495371Y76711906D01*
X25603581Y76773802D01*
X25719073Y76840059D01*
X25840777Y76910070D01*
X25967627Y76983229D01*
X26055530Y77034034D01*
X26203335Y77119531D01*
X26358805Y77209462D01*
X26519631Y77302491D01*
X26683504Y77397283D01*
X26848116Y77492502D01*
X27011158Y77586812D01*
X27170321Y77678878D01*
X27323295Y77767364D01*
X27467773Y77850935D01*
X27601445Y77928255D01*
X27722002Y77997990D01*
X27791725Y78038319D01*
X27901258Y78101828D01*
X28006008Y78162860D01*
X28104724Y78220668D01*
X28196158Y78274508D01*
X28279062Y78323635D01*
X28352185Y78367304D01*
X28414281Y78404771D01*
X28464099Y78435289D01*
X28500390Y78458114D01*
X28501194Y78458652D01*
X28699728Y78458652D01*
X28710416Y78401683D01*
X28735336Y78349619D01*
X28773811Y78305811D01*
X28825162Y78273607D01*
X28831516Y78270938D01*
X28863966Y78263754D01*
X28906930Y78261650D01*
X28952121Y78264388D01*
X28991252Y78271731D01*
X29003256Y78275865D01*
X29056362Y78307770D01*
X29096303Y78351700D01*
X29121988Y78404317D01*
X29132329Y78462285D01*
X29126234Y78522270D01*
X29102794Y78580622D01*
X29065607Y78631717D01*
X29021184Y78665627D01*
X28966455Y78684248D01*
X28927463Y78688866D01*
X28865606Y78686024D01*
X28814315Y78668720D01*
X28769490Y78635406D01*
X28759826Y78625491D01*
X28723756Y78573906D01*
X28703949Y78517176D01*
X28699728Y78458652D01*
X28501194Y78458652D01*
X28521906Y78472502D01*
X28527575Y78477265D01*
X28535820Y78497456D01*
X28545786Y78528347D01*
X28551749Y78549744D01*
X28581393Y78632386D01*
X28623823Y78700868D01*
X28659013Y78738744D01*
X28685766Y78765466D01*
X28707885Y78791201D01*
X28718442Y78806736D01*
X28720013Y78819413D01*
X28721497Y78850505D01*
X28722892Y78898889D01*
X28724198Y78963443D01*
X28725416Y79043044D01*
X28726544Y79136570D01*
X28727583Y79242899D01*
X28728533Y79360908D01*
X28729392Y79489475D01*
X28730161Y79627477D01*
X28730839Y79773792D01*
X28731427Y79927297D01*
X28731923Y80086870D01*
X28732328Y80251388D01*
X28732641Y80419729D01*
X28732862Y80590771D01*
X28732991Y80763392D01*
X28733027Y80936467D01*
X28732970Y81108876D01*
X28732820Y81279496D01*
X28732576Y81447204D01*
X28732239Y81610878D01*
X28731808Y81769396D01*
X28731282Y81921635D01*
X28730661Y82066472D01*
X28729946Y82202785D01*
X28729135Y82329452D01*
X28728229Y82445350D01*
X28727227Y82549358D01*
X28726129Y82640351D01*
X28724934Y82717208D01*
X28723643Y82778807D01*
X28722255Y82824025D01*
X28720770Y82851740D01*
X28719490Y82860596D01*
X28707923Y82871086D01*
X28679339Y82890873D01*
X28633719Y82919969D01*
X28571045Y82958383D01*
X28491299Y83006128D01*
X28394463Y83063214D01*
X28280518Y83129652D01*
X28165230Y83196353D01*
X28088031Y83240890D01*
X27995568Y83294247D01*
X27889496Y83355469D01*
X27771468Y83423600D01*
X27643139Y83497687D01*
X27506163Y83576772D01*
X27362193Y83659903D01*
X27212884Y83746122D01*
X27059890Y83834477D01*
X26904865Y83924010D01*
X26749463Y84013767D01*
X26595338Y84102794D01*
X26449758Y84186892D01*
X26299693Y84273486D01*
X26156228Y84356078D01*
X26020202Y84434192D01*
X25892456Y84507353D01*
X25773830Y84575084D01*
X25665164Y84636910D01*
X25567299Y84692356D01*
X25481073Y84740946D01*
X25407329Y84782203D01*
X25346904Y84815653D01*
X25300641Y84840819D01*
X25269378Y84857226D01*
X25253956Y84864398D01*
X25252689Y84864693D01*
X25230906Y84861447D01*
X25198748Y84853032D01*
X25170623Y84843848D01*
X25089808Y84824722D01*
X25008676Y84824322D01*
X24930065Y84842586D01*
X24912077Y84849659D01*
X24875382Y84864141D01*
X24841595Y84875514D01*
X24819269Y84881066D01*
X24812523Y84880540D01*
X24801499Y84877177D01*
X24785306Y84870480D01*
X24763048Y84859951D01*
X24733832Y84845093D01*
X24696765Y84825410D01*
X24650952Y84800403D01*
X24595501Y84769576D01*
X24529516Y84732431D01*
X24452106Y84688472D01*
X24362375Y84637200D01*
X24259430Y84578120D01*
X24142377Y84510733D01*
X24010324Y84434543D01*
X23862375Y84349052D01*
X23847040Y84340185D01*
X23700887Y84255687D01*
X23544878Y84165510D01*
X23381668Y84071189D01*
X23213909Y83974256D01*
X23044257Y83876244D01*
X22875365Y83778687D01*
X22709888Y83683117D01*
X22550478Y83591067D01*
X22399790Y83504070D01*
X22260478Y83423659D01*
X22135196Y83351368D01*
X22125159Y83345577D01*
X22011331Y83279868D01*
X21902037Y83216695D01*
X21798502Y83156771D01*
X21701952Y83100811D01*
X21613616Y83049527D01*
X21534718Y83003633D01*
X21466485Y82963842D01*
X21410144Y82930869D01*
X21366921Y82905426D01*
X21338042Y82888226D01*
X21324734Y82879984D01*
X21324273Y82879655D01*
X21302346Y82863117D01*
X21299559Y80872078D01*
X21299313Y80675832D01*
X21299129Y80484557D01*
X21299007Y80299190D01*
X21298944Y80120666D01*
X21298939Y79949922D01*
X20857889Y79949922D01*
X20857920Y80819254D01*
X20857976Y81096156D01*
X20858127Y81353591D01*
X20858371Y81591632D01*
X20858709Y81810352D01*
X20859142Y82009822D01*
X20859670Y82190115D01*
X20860293Y82351303D01*
X20861012Y82493458D01*
X20861826Y82616653D01*
X20862737Y82720959D01*
X20863744Y82806449D01*
X20864849Y82873196D01*
X20866050Y82921270D01*
X20867350Y82950745D01*
X20868202Y82959693D01*
X20890226Y83044681D01*
X20927105Y83117230D01*
X20973233Y83172368D01*
X20986334Y83183183D01*
X21008337Y83198758D01*
X21039975Y83219529D01*
X21081986Y83245937D01*
X21135106Y83278420D01*
X21200070Y83317416D01*
X21277614Y83363364D01*
X21368475Y83416702D01*
X21473388Y83477870D01*
X21593090Y83547306D01*
X21728317Y83625448D01*
X21879804Y83712736D01*
X21884665Y83715533D01*
X22147108Y83866587D01*
X22393115Y84008225D01*
X22623199Y84140745D01*
X22837875Y84264450D01*
X23037657Y84379639D01*
X23223058Y84486613D01*
X23394593Y84585673D01*
X23552775Y84677119D01*
X23698119Y84761251D01*
X23831139Y84838370D01*
X23952349Y84908777D01*
X24062263Y84972773D01*
X24161394Y85030656D01*
X24250257Y85082730D01*
X24329367Y85129292D01*
X24399236Y85170646D01*
X24403272Y85173052D01*
X24828162Y85173052D01*
X24840652Y85121353D01*
X24865175Y85074299D01*
X24899965Y85034083D01*
X24943255Y85002899D01*
X24993280Y84982941D01*
X25048274Y84976402D01*
X25106470Y84985477D01*
X25147806Y85002109D01*
X25196515Y85037212D01*
X25232943Y85084324D01*
X25255656Y85139366D01*
X25263221Y85198258D01*
X25254204Y85256919D01*
X25245414Y85279885D01*
X25211023Y85334151D01*
X25166051Y85374413D01*
X25113698Y85400195D01*
X25057165Y85411022D01*
X24999652Y85406418D01*
X24944361Y85385908D01*
X24894492Y85349017D01*
X24880549Y85334081D01*
X24846345Y85281610D01*
X24829471Y85227203D01*
X24828162Y85173052D01*
X24403272Y85173052D01*
X24460379Y85207089D01*
X24513310Y85238925D01*
X24558542Y85266452D01*
X24596591Y85289971D01*
X24627970Y85309783D01*
X24653193Y85326189D01*
X24672775Y85339489D01*
X24687228Y85349983D01*
X24697067Y85357972D01*
X24701777Y85362555D01*
X24754574Y85419736D01*
X24797791Y85463301D01*
X24833656Y85495196D01*
X24864399Y85517372D01*
X24892250Y85531777D01*
X24897905Y85533984D01*
X24911618Y85538349D01*
X24923742Y85541474D01*
X24934373Y85544516D01*
X24943603Y85548632D01*
X24951529Y85554978D01*
X24958242Y85564711D01*
X24963838Y85578987D01*
X24968410Y85598963D01*
X24972053Y85625796D01*
X24974860Y85660642D01*
X24976926Y85704658D01*
X24978345Y85759000D01*
X24979210Y85824826D01*
X24979616Y85903291D01*
X24979657Y85995553D01*
X24979427Y86102767D01*
X24979020Y86226092D01*
X24978530Y86366682D01*
X24978067Y86519693D01*
X24975577Y87458423D01*
X24901936Y87493758D01*
X24823700Y87540778D01*
X24761114Y87598983D01*
X24714669Y87667747D01*
X24684852Y87746439D01*
X24677369Y87782524D01*
X24675202Y87835305D01*
X24829367Y87835305D01*
X24833724Y87781097D01*
X24848006Y87738052D01*
X24874990Y87699151D01*
X24889189Y87683957D01*
X24939884Y87645788D01*
X24997712Y87624621D01*
X25059388Y87620926D01*
X25121631Y87635173D01*
X25147714Y87646913D01*
X25198574Y87682768D01*
X25234210Y87727131D01*
X25255340Y87777211D01*
X25262680Y87830217D01*
X25256946Y87883358D01*
X25238857Y87933844D01*
X25209127Y87978882D01*
X25168475Y88015684D01*
X25117616Y88041456D01*
X25057269Y88053410D01*
X25043195Y88053905D01*
X24980432Y88045236D01*
X24925021Y88018725D01*
X24878204Y87975089D01*
X24858604Y87947393D01*
X24841524Y87916467D01*
X24832630Y87888634D01*
X24829521Y87854686D01*
X24829367Y87835305D01*
X24675202Y87835305D01*
X24674112Y87861825D01*
X24688836Y87939440D01*
X24720015Y88012545D01*
X24766124Y88078316D01*
X24825639Y88133928D01*
X24887778Y88172167D01*
X24917149Y88185660D01*
X24942671Y88194134D01*
X24970567Y88198731D01*
X25007058Y88200594D01*
X25044167Y88200885D01*
X25090737Y88200393D01*
D10*
G36*
X42947990Y11375104D02*
G01*
X43539455Y11130112D01*
X44071754Y10774440D01*
X44524440Y10321754D01*
X44880112Y9789455D01*
X45125104Y9197990D01*
X45250000Y8570096D01*
X45250000Y7929904D01*
X45125104Y7302010D01*
X44880112Y6710545D01*
X44524440Y6178246D01*
X44071754Y5725560D01*
X43539455Y5369888D01*
X42947990Y5124896D01*
X42320097Y5000000D01*
X41679903Y5000000D01*
X41052010Y5124896D01*
X40460545Y5369888D01*
X39928246Y5725560D01*
X39475560Y6178246D01*
X39119888Y6710545D01*
X38874896Y7302010D01*
X38750000Y7929904D01*
X38750000Y8570096D01*
X38874896Y9197990D01*
X39119888Y9789455D01*
X39475560Y10321754D01*
X39928246Y10774440D01*
X40460545Y11130112D01*
X41052010Y11375104D01*
X41679903Y11500000D01*
X42320097Y11500000D01*
X42947990Y11375104D01*
X42947990Y11375104D01*
G37*
G36*
X9197990Y11375104D02*
G01*
X9789455Y11130112D01*
X10321754Y10774440D01*
X10774440Y10321754D01*
X11130112Y9789455D01*
X11375104Y9197990D01*
X11500000Y8570096D01*
X11500000Y7929904D01*
X11375104Y7302010D01*
X11130112Y6710545D01*
X10774440Y6178246D01*
X10321754Y5725560D01*
X9789455Y5369888D01*
X9197990Y5124896D01*
X8570097Y5000000D01*
X7929903Y5000000D01*
X7302010Y5124896D01*
X6710545Y5369888D01*
X6178246Y5725560D01*
X5725560Y6178246D01*
X5369888Y6710545D01*
X5124896Y7302010D01*
X5000000Y7929904D01*
X5000000Y8570096D01*
X5124896Y9197990D01*
X5369888Y9789455D01*
X5725560Y10321754D01*
X6178246Y10774440D01*
X6710545Y11130112D01*
X7302010Y11375104D01*
X7929903Y11500000D01*
X8570097Y11500000D01*
X9197990Y11375104D01*
X9197990Y11375104D01*
G37*
G36*
X11306274Y14509650D02*
G01*
X11497362Y14430498D01*
X11497364Y14430497D01*
X11540648Y14401575D01*
X11669336Y14315589D01*
X11815589Y14169336D01*
X11930498Y13997362D01*
X12009650Y13806274D01*
X12050000Y13603416D01*
X12050000Y13396584D01*
X12009650Y13193726D01*
X11930498Y13002638D01*
X11815589Y12830664D01*
X11669336Y12684411D01*
X11540648Y12598425D01*
X11497364Y12569503D01*
X11497363Y12569502D01*
X11497362Y12569502D01*
X11306274Y12490350D01*
X11103416Y12450000D01*
X10896584Y12450000D01*
X10693726Y12490350D01*
X10502638Y12569502D01*
X10502637Y12569502D01*
X10502636Y12569503D01*
X10459352Y12598425D01*
X10330664Y12684411D01*
X10184411Y12830664D01*
X10069502Y13002638D01*
X9990350Y13193726D01*
X9950000Y13396584D01*
X9950000Y13603416D01*
X9990350Y13806274D01*
X10069502Y13997362D01*
X10184411Y14169336D01*
X10330664Y14315589D01*
X10459352Y14401575D01*
X10502636Y14430497D01*
X10502638Y14430498D01*
X10693726Y14509650D01*
X10896584Y14550000D01*
X11103416Y14550000D01*
X11306274Y14509650D01*
X11306274Y14509650D01*
G37*
G36*
X39306274Y14509650D02*
G01*
X39497362Y14430498D01*
X39497364Y14430497D01*
X39540648Y14401575D01*
X39669336Y14315589D01*
X39815589Y14169336D01*
X39930498Y13997362D01*
X40009650Y13806274D01*
X40050000Y13603416D01*
X40050000Y13396584D01*
X40009650Y13193726D01*
X39930498Y13002638D01*
X39815589Y12830664D01*
X39669336Y12684411D01*
X39540648Y12598425D01*
X39497364Y12569503D01*
X39497363Y12569502D01*
X39497362Y12569502D01*
X39306274Y12490350D01*
X39103416Y12450000D01*
X38896584Y12450000D01*
X38693726Y12490350D01*
X38502638Y12569502D01*
X38502637Y12569502D01*
X38502636Y12569503D01*
X38459352Y12598425D01*
X38330664Y12684411D01*
X38184411Y12830664D01*
X38069502Y13002638D01*
X37990350Y13193726D01*
X37950000Y13396584D01*
X37950000Y13603416D01*
X37990350Y13806274D01*
X38069502Y13997362D01*
X38184411Y14169336D01*
X38330664Y14315589D01*
X38459352Y14401575D01*
X38502636Y14430497D01*
X38502638Y14430498D01*
X38693726Y14509650D01*
X38896584Y14550000D01*
X39103416Y14550000D01*
X39306274Y14509650D01*
X39306274Y14509650D01*
G37*
G36*
X45806274Y14509650D02*
G01*
X45997362Y14430498D01*
X45997364Y14430497D01*
X46040648Y14401575D01*
X46169336Y14315589D01*
X46315589Y14169336D01*
X46430498Y13997362D01*
X46509650Y13806274D01*
X46550000Y13603416D01*
X46550000Y13396584D01*
X46509650Y13193726D01*
X46430498Y13002638D01*
X46315589Y12830664D01*
X46169336Y12684411D01*
X46040648Y12598425D01*
X45997364Y12569503D01*
X45997363Y12569502D01*
X45997362Y12569502D01*
X45806274Y12490350D01*
X45603416Y12450000D01*
X45396584Y12450000D01*
X45193726Y12490350D01*
X45002638Y12569502D01*
X45002637Y12569502D01*
X45002636Y12569503D01*
X44959352Y12598425D01*
X44830664Y12684411D01*
X44684411Y12830664D01*
X44569502Y13002638D01*
X44490350Y13193726D01*
X44450000Y13396584D01*
X44450000Y13603416D01*
X44490350Y13806274D01*
X44569502Y13997362D01*
X44684411Y14169336D01*
X44830664Y14315589D01*
X44959352Y14401575D01*
X45002636Y14430497D01*
X45002638Y14430498D01*
X45193726Y14509650D01*
X45396584Y14550000D01*
X45603416Y14550000D01*
X45806274Y14509650D01*
X45806274Y14509650D01*
G37*
G36*
X4806274Y14509650D02*
G01*
X4997362Y14430498D01*
X4997364Y14430497D01*
X5040648Y14401575D01*
X5169336Y14315589D01*
X5315589Y14169336D01*
X5430498Y13997362D01*
X5509650Y13806274D01*
X5550000Y13603416D01*
X5550000Y13396584D01*
X5509650Y13193726D01*
X5430498Y13002638D01*
X5315589Y12830664D01*
X5169336Y12684411D01*
X5040648Y12598425D01*
X4997364Y12569503D01*
X4997363Y12569502D01*
X4997362Y12569502D01*
X4806274Y12490350D01*
X4603416Y12450000D01*
X4396584Y12450000D01*
X4193726Y12490350D01*
X4002638Y12569502D01*
X4002637Y12569502D01*
X4002636Y12569503D01*
X3959352Y12598425D01*
X3830664Y12684411D01*
X3684411Y12830664D01*
X3569502Y13002638D01*
X3490350Y13193726D01*
X3450000Y13396584D01*
X3450000Y13603416D01*
X3490350Y13806274D01*
X3569502Y13997362D01*
X3684411Y14169336D01*
X3830664Y14315589D01*
X3959352Y14401575D01*
X4002636Y14430497D01*
X4002638Y14430498D01*
X4193726Y14509650D01*
X4396584Y14550000D01*
X4603416Y14550000D01*
X4806274Y14509650D01*
X4806274Y14509650D01*
G37*
G36*
X45806274Y19009650D02*
G01*
X45997362Y18930498D01*
X45997364Y18930497D01*
X46040648Y18901575D01*
X46169336Y18815589D01*
X46315589Y18669336D01*
X46430498Y18497362D01*
X46509650Y18306274D01*
X46550000Y18103416D01*
X46550000Y17896584D01*
X46509650Y17693726D01*
X46430498Y17502638D01*
X46315589Y17330664D01*
X46169336Y17184411D01*
X46040648Y17098425D01*
X45997364Y17069503D01*
X45997363Y17069502D01*
X45997362Y17069502D01*
X45806274Y16990350D01*
X45603416Y16950000D01*
X45396584Y16950000D01*
X45193726Y16990350D01*
X45002638Y17069502D01*
X45002637Y17069502D01*
X45002636Y17069503D01*
X44959352Y17098425D01*
X44830664Y17184411D01*
X44684411Y17330664D01*
X44569502Y17502638D01*
X44490350Y17693726D01*
X44450000Y17896584D01*
X44450000Y18103416D01*
X44490350Y18306274D01*
X44569502Y18497362D01*
X44684411Y18669336D01*
X44830664Y18815589D01*
X44959352Y18901575D01*
X45002636Y18930497D01*
X45002638Y18930498D01*
X45193726Y19009650D01*
X45396584Y19050000D01*
X45603416Y19050000D01*
X45806274Y19009650D01*
X45806274Y19009650D01*
G37*
G36*
X39306274Y19009650D02*
G01*
X39497362Y18930498D01*
X39497364Y18930497D01*
X39540648Y18901575D01*
X39669336Y18815589D01*
X39815589Y18669336D01*
X39930498Y18497362D01*
X40009650Y18306274D01*
X40050000Y18103416D01*
X40050000Y17896584D01*
X40009650Y17693726D01*
X39930498Y17502638D01*
X39815589Y17330664D01*
X39669336Y17184411D01*
X39540648Y17098425D01*
X39497364Y17069503D01*
X39497363Y17069502D01*
X39497362Y17069502D01*
X39306274Y16990350D01*
X39103416Y16950000D01*
X38896584Y16950000D01*
X38693726Y16990350D01*
X38502638Y17069502D01*
X38502637Y17069502D01*
X38502636Y17069503D01*
X38459352Y17098425D01*
X38330664Y17184411D01*
X38184411Y17330664D01*
X38069502Y17502638D01*
X37990350Y17693726D01*
X37950000Y17896584D01*
X37950000Y18103416D01*
X37990350Y18306274D01*
X38069502Y18497362D01*
X38184411Y18669336D01*
X38330664Y18815589D01*
X38459352Y18901575D01*
X38502636Y18930497D01*
X38502638Y18930498D01*
X38693726Y19009650D01*
X38896584Y19050000D01*
X39103416Y19050000D01*
X39306274Y19009650D01*
X39306274Y19009650D01*
G37*
G36*
X4806274Y19009650D02*
G01*
X4997362Y18930498D01*
X4997364Y18930497D01*
X5040648Y18901575D01*
X5169336Y18815589D01*
X5315589Y18669336D01*
X5430498Y18497362D01*
X5509650Y18306274D01*
X5550000Y18103416D01*
X5550000Y17896584D01*
X5509650Y17693726D01*
X5430498Y17502638D01*
X5315589Y17330664D01*
X5169336Y17184411D01*
X5040648Y17098425D01*
X4997364Y17069503D01*
X4997363Y17069502D01*
X4997362Y17069502D01*
X4806274Y16990350D01*
X4603416Y16950000D01*
X4396584Y16950000D01*
X4193726Y16990350D01*
X4002638Y17069502D01*
X4002637Y17069502D01*
X4002636Y17069503D01*
X3959352Y17098425D01*
X3830664Y17184411D01*
X3684411Y17330664D01*
X3569502Y17502638D01*
X3490350Y17693726D01*
X3450000Y17896584D01*
X3450000Y18103416D01*
X3490350Y18306274D01*
X3569502Y18497362D01*
X3684411Y18669336D01*
X3830664Y18815589D01*
X3959352Y18901575D01*
X4002636Y18930497D01*
X4002638Y18930498D01*
X4193726Y19009650D01*
X4396584Y19050000D01*
X4603416Y19050000D01*
X4806274Y19009650D01*
X4806274Y19009650D01*
G37*
G36*
X11306274Y19009650D02*
G01*
X11497362Y18930498D01*
X11497364Y18930497D01*
X11540648Y18901575D01*
X11669336Y18815589D01*
X11815589Y18669336D01*
X11930498Y18497362D01*
X12009650Y18306274D01*
X12050000Y18103416D01*
X12050000Y17896584D01*
X12009650Y17693726D01*
X11930498Y17502638D01*
X11815589Y17330664D01*
X11669336Y17184411D01*
X11540648Y17098425D01*
X11497364Y17069503D01*
X11497363Y17069502D01*
X11497362Y17069502D01*
X11306274Y16990350D01*
X11103416Y16950000D01*
X10896584Y16950000D01*
X10693726Y16990350D01*
X10502638Y17069502D01*
X10502637Y17069502D01*
X10502636Y17069503D01*
X10459352Y17098425D01*
X10330664Y17184411D01*
X10184411Y17330664D01*
X10069502Y17502638D01*
X9990350Y17693726D01*
X9950000Y17896584D01*
X9950000Y18103416D01*
X9990350Y18306274D01*
X10069502Y18497362D01*
X10184411Y18669336D01*
X10330664Y18815589D01*
X10459352Y18901575D01*
X10502636Y18930497D01*
X10502638Y18930498D01*
X10693726Y19009650D01*
X10896584Y19050000D01*
X11103416Y19050000D01*
X11306274Y19009650D01*
X11306274Y19009650D01*
G37*
G36*
X20189598Y21125021D02*
G01*
X20307893Y21076022D01*
X20414351Y21004889D01*
X20504889Y20914351D01*
X20576022Y20807893D01*
X20625021Y20689598D01*
X20650000Y20564019D01*
X20650000Y20435981D01*
X20625021Y20310402D01*
X20576022Y20192107D01*
X20504889Y20085649D01*
X20414351Y19995111D01*
X20307893Y19923978D01*
X20189598Y19874979D01*
X20064019Y19850000D01*
X19935981Y19850000D01*
X19810402Y19874979D01*
X19692107Y19923978D01*
X19585649Y19995111D01*
X19495111Y20085649D01*
X19423978Y20192107D01*
X19374979Y20310402D01*
X19350000Y20435981D01*
X19350000Y20564019D01*
X19374979Y20689598D01*
X19423978Y20807893D01*
X19495111Y20914351D01*
X19585649Y21004889D01*
X19692107Y21076022D01*
X19810402Y21125021D01*
X19935981Y21150000D01*
X20064019Y21150000D01*
X20189598Y21125021D01*
X20189598Y21125021D01*
G37*
G36*
X30189598Y21125021D02*
G01*
X30307893Y21076022D01*
X30414351Y21004889D01*
X30504889Y20914351D01*
X30576022Y20807893D01*
X30625021Y20689598D01*
X30650000Y20564019D01*
X30650000Y20435981D01*
X30625021Y20310402D01*
X30576022Y20192107D01*
X30504889Y20085649D01*
X30414351Y19995111D01*
X30307893Y19923978D01*
X30189598Y19874979D01*
X30064019Y19850000D01*
X29935981Y19850000D01*
X29810402Y19874979D01*
X29692107Y19923978D01*
X29585649Y19995111D01*
X29495111Y20085649D01*
X29423978Y20192107D01*
X29374979Y20310402D01*
X29350000Y20435981D01*
X29350000Y20564019D01*
X29374979Y20689598D01*
X29423978Y20807893D01*
X29495111Y20914351D01*
X29585649Y21004889D01*
X29692107Y21076022D01*
X29810402Y21125021D01*
X29935981Y21150000D01*
X30064019Y21150000D01*
X30189598Y21125021D01*
X30189598Y21125021D01*
G37*
G36*
X25535336Y23931747D02*
G01*
X25713549Y23877687D01*
X25877792Y23789897D01*
X26021751Y23671752D01*
X26139896Y23527793D01*
X26227686Y23363550D01*
X26281746Y23185337D01*
X26300000Y23000001D01*
X26300000Y22999999D01*
X26281746Y22814663D01*
X26227686Y22636450D01*
X26139896Y22472207D01*
X26021751Y22328248D01*
X25877792Y22210103D01*
X25713549Y22122313D01*
X25535336Y22068253D01*
X25350000Y22049999D01*
X24650000Y22049999D01*
X24464664Y22068253D01*
X24286451Y22122313D01*
X24122208Y22210103D01*
X23978249Y22328248D01*
X23860104Y22472207D01*
X23772314Y22636450D01*
X23718254Y22814663D01*
X23700000Y22999999D01*
X23700000Y23000001D01*
X23718254Y23185337D01*
X23772314Y23363550D01*
X23860104Y23527793D01*
X23978249Y23671752D01*
X24122208Y23789897D01*
X24286451Y23877687D01*
X24464664Y23931747D01*
X24650000Y23950001D01*
X25350000Y23950001D01*
X25535336Y23931747D01*
X25535336Y23931747D01*
G37*
G36*
X20189598Y23625021D02*
G01*
X20307893Y23576022D01*
X20414351Y23504889D01*
X20504889Y23414351D01*
X20576022Y23307893D01*
X20625021Y23189598D01*
X20650000Y23064019D01*
X20650000Y22935981D01*
X20625021Y22810402D01*
X20576022Y22692107D01*
X20504889Y22585649D01*
X20414351Y22495111D01*
X20307893Y22423978D01*
X20189598Y22374979D01*
X20064019Y22350000D01*
X19935981Y22350000D01*
X19810402Y22374979D01*
X19692107Y22423978D01*
X19585649Y22495111D01*
X19495111Y22585649D01*
X19423978Y22692107D01*
X19374979Y22810402D01*
X19350000Y22935981D01*
X19350000Y23064019D01*
X19374979Y23189598D01*
X19423978Y23307893D01*
X19495111Y23414351D01*
X19585649Y23504889D01*
X19692107Y23576022D01*
X19810402Y23625021D01*
X19935981Y23650000D01*
X20064019Y23650000D01*
X20189598Y23625021D01*
X20189598Y23625021D01*
G37*
G36*
X30189598Y23625021D02*
G01*
X30307893Y23576022D01*
X30414351Y23504889D01*
X30504889Y23414351D01*
X30576022Y23307893D01*
X30625021Y23189598D01*
X30650000Y23064019D01*
X30650000Y22935981D01*
X30625021Y22810402D01*
X30576022Y22692107D01*
X30504889Y22585649D01*
X30414351Y22495111D01*
X30307893Y22423978D01*
X30189598Y22374979D01*
X30064019Y22350000D01*
X29935981Y22350000D01*
X29810402Y22374979D01*
X29692107Y22423978D01*
X29585649Y22495111D01*
X29495111Y22585649D01*
X29423978Y22692107D01*
X29374979Y22810402D01*
X29350000Y22935981D01*
X29350000Y23064019D01*
X29374979Y23189598D01*
X29423978Y23307893D01*
X29495111Y23414351D01*
X29585649Y23504889D01*
X29692107Y23576022D01*
X29810402Y23625021D01*
X29935981Y23650000D01*
X30064019Y23650000D01*
X30189598Y23625021D01*
X30189598Y23625021D01*
G37*
G36*
X27685337Y29281746D02*
G01*
X27863550Y29227686D01*
X28027793Y29139896D01*
X28171752Y29021751D01*
X28289897Y28877792D01*
X28377687Y28713549D01*
X28431747Y28535336D01*
X28450001Y28350000D01*
X28450001Y27650000D01*
X28431747Y27464664D01*
X28377687Y27286451D01*
X28289897Y27122208D01*
X28171752Y26978249D01*
X28027793Y26860104D01*
X27863550Y26772314D01*
X27685337Y26718254D01*
X27500001Y26700000D01*
X27499999Y26700000D01*
X27314663Y26718254D01*
X27136450Y26772314D01*
X26972207Y26860104D01*
X26828248Y26978249D01*
X26710103Y27122208D01*
X26622313Y27286451D01*
X26568253Y27464664D01*
X26549999Y27650000D01*
X26549999Y28350000D01*
X26568253Y28535336D01*
X26622313Y28713549D01*
X26710103Y28877792D01*
X26828248Y29021751D01*
X26972207Y29139896D01*
X27136450Y29227686D01*
X27314663Y29281746D01*
X27499999Y29300000D01*
X27500001Y29300000D01*
X27685337Y29281746D01*
X27685337Y29281746D01*
G37*
G36*
X22685337Y29281746D02*
G01*
X22863550Y29227686D01*
X23027793Y29139896D01*
X23171752Y29021751D01*
X23289897Y28877792D01*
X23377687Y28713549D01*
X23431747Y28535336D01*
X23450001Y28350000D01*
X23450001Y27650000D01*
X23431747Y27464664D01*
X23377687Y27286451D01*
X23289897Y27122208D01*
X23171752Y26978249D01*
X23027793Y26860104D01*
X22863550Y26772314D01*
X22685337Y26718254D01*
X22500001Y26700000D01*
X22499999Y26700000D01*
X22314663Y26718254D01*
X22136450Y26772314D01*
X21972207Y26860104D01*
X21828248Y26978249D01*
X21710103Y27122208D01*
X21622313Y27286451D01*
X21568253Y27464664D01*
X21549999Y27650000D01*
X21549999Y28350000D01*
X21568253Y28535336D01*
X21622313Y28713549D01*
X21710103Y28877792D01*
X21828248Y29021751D01*
X21972207Y29139896D01*
X22136450Y29227686D01*
X22314663Y29281746D01*
X22499999Y29300000D01*
X22500001Y29300000D01*
X22685337Y29281746D01*
X22685337Y29281746D01*
G37*
G36*
X30185337Y29281746D02*
G01*
X30363550Y29227686D01*
X30527793Y29139896D01*
X30671752Y29021751D01*
X30789897Y28877792D01*
X30877687Y28713549D01*
X30931747Y28535336D01*
X30950001Y28350000D01*
X30950001Y27650000D01*
X30931747Y27464664D01*
X30877687Y27286451D01*
X30789897Y27122208D01*
X30671752Y26978249D01*
X30527793Y26860104D01*
X30363550Y26772314D01*
X30185337Y26718254D01*
X30000001Y26700000D01*
X29999999Y26700000D01*
X29814663Y26718254D01*
X29636450Y26772314D01*
X29472207Y26860104D01*
X29328248Y26978249D01*
X29210103Y27122208D01*
X29122313Y27286451D01*
X29068253Y27464664D01*
X29049999Y27650000D01*
X29049999Y28350000D01*
X29068253Y28535336D01*
X29122313Y28713549D01*
X29210103Y28877792D01*
X29328248Y29021751D01*
X29472207Y29139896D01*
X29636450Y29227686D01*
X29814663Y29281746D01*
X29999999Y29300000D01*
X30000001Y29300000D01*
X30185337Y29281746D01*
X30185337Y29281746D01*
G37*
G36*
X20185337Y29281746D02*
G01*
X20363550Y29227686D01*
X20527793Y29139896D01*
X20671752Y29021751D01*
X20789897Y28877792D01*
X20877687Y28713549D01*
X20931747Y28535336D01*
X20950001Y28350000D01*
X20950001Y27650000D01*
X20931747Y27464664D01*
X20877687Y27286451D01*
X20789897Y27122208D01*
X20671752Y26978249D01*
X20527793Y26860104D01*
X20363550Y26772314D01*
X20185337Y26718254D01*
X20000001Y26700000D01*
X19999999Y26700000D01*
X19814663Y26718254D01*
X19636450Y26772314D01*
X19472207Y26860104D01*
X19328248Y26978249D01*
X19210103Y27122208D01*
X19122313Y27286451D01*
X19068253Y27464664D01*
X19049999Y27650000D01*
X19049999Y28350000D01*
X19068253Y28535336D01*
X19122313Y28713549D01*
X19210103Y28877792D01*
X19328248Y29021751D01*
X19472207Y29139896D01*
X19636450Y29227686D01*
X19814663Y29281746D01*
X19999999Y29300000D01*
X20000001Y29300000D01*
X20185337Y29281746D01*
X20185337Y29281746D01*
G37*
G36*
X25189598Y28625021D02*
G01*
X25307893Y28576022D01*
X25414351Y28504889D01*
X25504889Y28414351D01*
X25576022Y28307893D01*
X25625021Y28189598D01*
X25650000Y28064019D01*
X25650000Y27935981D01*
X25625021Y27810402D01*
X25576022Y27692107D01*
X25504889Y27585649D01*
X25414351Y27495111D01*
X25307893Y27423978D01*
X25189598Y27374979D01*
X25064019Y27350000D01*
X24935981Y27350000D01*
X24810402Y27374979D01*
X24692107Y27423978D01*
X24585649Y27495111D01*
X24495111Y27585649D01*
X24423978Y27692107D01*
X24374979Y27810402D01*
X24350000Y27935981D01*
X24350000Y28064019D01*
X24374979Y28189598D01*
X24423978Y28307893D01*
X24495111Y28414351D01*
X24585649Y28504889D01*
X24692107Y28576022D01*
X24810402Y28625021D01*
X24935981Y28650000D01*
X25064019Y28650000D01*
X25189598Y28625021D01*
X25189598Y28625021D01*
G37*
G36*
X25216431Y38886977D02*
G01*
X25341939Y38848904D01*
X25386085Y38835513D01*
X25542431Y38751944D01*
X25679475Y38639475D01*
X25791944Y38502431D01*
X25875513Y38346085D01*
X25875514Y38346081D01*
X25926977Y38176431D01*
X25944354Y38000000D01*
X25926977Y37823569D01*
X25888904Y37698061D01*
X25875513Y37653915D01*
X25791944Y37497569D01*
X25679475Y37360525D01*
X25542431Y37248056D01*
X25386085Y37164487D01*
X25341939Y37151096D01*
X25216431Y37113023D01*
X25084207Y37100000D01*
X24995793Y37100000D01*
X24863569Y37113023D01*
X24738061Y37151096D01*
X24693915Y37164487D01*
X24537569Y37248056D01*
X24400525Y37360525D01*
X24288056Y37497569D01*
X24204487Y37653915D01*
X24191096Y37698061D01*
X24153023Y37823569D01*
X24135646Y38000000D01*
X24153023Y38176431D01*
X24204486Y38346081D01*
X24204487Y38346085D01*
X24288056Y38502431D01*
X24400525Y38639475D01*
X24537569Y38751944D01*
X24693915Y38835513D01*
X24738061Y38848904D01*
X24863569Y38886977D01*
X24995793Y38900000D01*
X25084207Y38900000D01*
X25216431Y38886977D01*
X25216431Y38886977D01*
G37*
G36*
X27756431Y38886977D02*
G01*
X27881939Y38848904D01*
X27926085Y38835513D01*
X28082431Y38751944D01*
X28219475Y38639475D01*
X28331944Y38502431D01*
X28415513Y38346085D01*
X28415514Y38346081D01*
X28466977Y38176431D01*
X28484354Y38000000D01*
X28466977Y37823569D01*
X28428904Y37698061D01*
X28415513Y37653915D01*
X28331944Y37497569D01*
X28219475Y37360525D01*
X28082431Y37248056D01*
X27926085Y37164487D01*
X27881939Y37151096D01*
X27756431Y37113023D01*
X27624207Y37100000D01*
X27535793Y37100000D01*
X27403569Y37113023D01*
X27278061Y37151096D01*
X27233915Y37164487D01*
X27077569Y37248056D01*
X26940525Y37360525D01*
X26828056Y37497569D01*
X26744487Y37653915D01*
X26731096Y37698061D01*
X26693023Y37823569D01*
X26675646Y38000000D01*
X26693023Y38176431D01*
X26744486Y38346081D01*
X26744487Y38346085D01*
X26828056Y38502431D01*
X26940525Y38639475D01*
X27077569Y38751944D01*
X27233915Y38835513D01*
X27278061Y38848904D01*
X27403569Y38886977D01*
X27535793Y38900000D01*
X27624207Y38900000D01*
X27756431Y38886977D01*
X27756431Y38886977D01*
G37*
G36*
X23400000Y37100000D02*
G01*
X21600000Y37100000D01*
X21600000Y38900000D01*
X23400000Y38900000D01*
X23400000Y37100000D01*
X23400000Y37100000D01*
G37*
G36*
X22676431Y41426977D02*
G01*
X22801939Y41388904D01*
X22846085Y41375513D01*
X23002431Y41291944D01*
X23139475Y41179475D01*
X23251944Y41042431D01*
X23335513Y40886085D01*
X23335514Y40886081D01*
X23386977Y40716431D01*
X23404354Y40540000D01*
X23386977Y40363569D01*
X23348904Y40238061D01*
X23335513Y40193915D01*
X23251944Y40037569D01*
X23139475Y39900525D01*
X23002431Y39788056D01*
X22846085Y39704487D01*
X22801939Y39691096D01*
X22676431Y39653023D01*
X22544207Y39640000D01*
X22455793Y39640000D01*
X22323569Y39653023D01*
X22198061Y39691096D01*
X22153915Y39704487D01*
X21997569Y39788056D01*
X21860525Y39900525D01*
X21748056Y40037569D01*
X21664487Y40193915D01*
X21651096Y40238061D01*
X21613023Y40363569D01*
X21595646Y40540000D01*
X21613023Y40716431D01*
X21664486Y40886081D01*
X21664487Y40886085D01*
X21748056Y41042431D01*
X21860525Y41179475D01*
X21997569Y41291944D01*
X22153915Y41375513D01*
X22198061Y41388904D01*
X22323569Y41426977D01*
X22455793Y41440000D01*
X22544207Y41440000D01*
X22676431Y41426977D01*
X22676431Y41426977D01*
G37*
G36*
X25216431Y41426977D02*
G01*
X25341939Y41388904D01*
X25386085Y41375513D01*
X25542431Y41291944D01*
X25679475Y41179475D01*
X25791944Y41042431D01*
X25875513Y40886085D01*
X25875514Y40886081D01*
X25926977Y40716431D01*
X25944354Y40540000D01*
X25926977Y40363569D01*
X25888904Y40238061D01*
X25875513Y40193915D01*
X25791944Y40037569D01*
X25679475Y39900525D01*
X25542431Y39788056D01*
X25386085Y39704487D01*
X25341939Y39691096D01*
X25216431Y39653023D01*
X25084207Y39640000D01*
X24995793Y39640000D01*
X24863569Y39653023D01*
X24738061Y39691096D01*
X24693915Y39704487D01*
X24537569Y39788056D01*
X24400525Y39900525D01*
X24288056Y40037569D01*
X24204487Y40193915D01*
X24191096Y40238061D01*
X24153023Y40363569D01*
X24135646Y40540000D01*
X24153023Y40716431D01*
X24204486Y40886081D01*
X24204487Y40886085D01*
X24288056Y41042431D01*
X24400525Y41179475D01*
X24537569Y41291944D01*
X24693915Y41375513D01*
X24738061Y41388904D01*
X24863569Y41426977D01*
X24995793Y41440000D01*
X25084207Y41440000D01*
X25216431Y41426977D01*
X25216431Y41426977D01*
G37*
G36*
X27756431Y41426977D02*
G01*
X27881939Y41388904D01*
X27926085Y41375513D01*
X28082431Y41291944D01*
X28219475Y41179475D01*
X28331944Y41042431D01*
X28415513Y40886085D01*
X28415514Y40886081D01*
X28466977Y40716431D01*
X28484354Y40540000D01*
X28466977Y40363569D01*
X28428904Y40238061D01*
X28415513Y40193915D01*
X28331944Y40037569D01*
X28219475Y39900525D01*
X28082431Y39788056D01*
X27926085Y39704487D01*
X27881939Y39691096D01*
X27756431Y39653023D01*
X27624207Y39640000D01*
X27535793Y39640000D01*
X27403569Y39653023D01*
X27278061Y39691096D01*
X27233915Y39704487D01*
X27077569Y39788056D01*
X26940525Y39900525D01*
X26828056Y40037569D01*
X26744487Y40193915D01*
X26731096Y40238061D01*
X26693023Y40363569D01*
X26675646Y40540000D01*
X26693023Y40716431D01*
X26744486Y40886081D01*
X26744487Y40886085D01*
X26828056Y41042431D01*
X26940525Y41179475D01*
X27077569Y41291944D01*
X27233915Y41375513D01*
X27278061Y41388904D01*
X27403569Y41426977D01*
X27535793Y41440000D01*
X27624207Y41440000D01*
X27756431Y41426977D01*
X27756431Y41426977D01*
G37*
G36*
X13277105Y53023492D02*
G01*
X13449996Y52951879D01*
X13605590Y52847914D01*
X13737914Y52715590D01*
X13841879Y52559996D01*
X13913492Y52387105D01*
X13950000Y52203566D01*
X13950000Y52016434D01*
X13913492Y51832895D01*
X13841879Y51660004D01*
X13737914Y51504410D01*
X13605590Y51372086D01*
X13449996Y51268121D01*
X13277105Y51196508D01*
X13093567Y51160000D01*
X12906433Y51160000D01*
X12722895Y51196508D01*
X12550004Y51268121D01*
X12394410Y51372086D01*
X12262086Y51504410D01*
X12158121Y51660004D01*
X12086508Y51832895D01*
X12050000Y52016434D01*
X12050000Y52203566D01*
X12086508Y52387105D01*
X12158121Y52559996D01*
X12262086Y52715590D01*
X12394410Y52847914D01*
X12550004Y52951879D01*
X12722895Y53023492D01*
X12906433Y53060000D01*
X13093567Y53060000D01*
X13277105Y53023492D01*
X13277105Y53023492D01*
G37*
G36*
X37950000Y51160000D02*
G01*
X36050000Y51160000D01*
X36050000Y53060000D01*
X37950000Y53060000D01*
X37950000Y51160000D01*
X37950000Y51160000D01*
G37*
G36*
X37277105Y55563492D02*
G01*
X37449996Y55491879D01*
X37605590Y55387914D01*
X37737914Y55255590D01*
X37841879Y55099996D01*
X37913492Y54927105D01*
X37950000Y54743566D01*
X37950000Y54556434D01*
X37913492Y54372895D01*
X37841879Y54200004D01*
X37737914Y54044410D01*
X37605590Y53912086D01*
X37449996Y53808121D01*
X37277105Y53736508D01*
X37093567Y53700000D01*
X36906433Y53700000D01*
X36722895Y53736508D01*
X36550004Y53808121D01*
X36394410Y53912086D01*
X36262086Y54044410D01*
X36158121Y54200004D01*
X36086508Y54372895D01*
X36050000Y54556434D01*
X36050000Y54743566D01*
X36086508Y54927105D01*
X36158121Y55099996D01*
X36262086Y55255590D01*
X36394410Y55387914D01*
X36550004Y55491879D01*
X36722895Y55563492D01*
X36906433Y55600000D01*
X37093567Y55600000D01*
X37277105Y55563492D01*
X37277105Y55563492D01*
G37*
G36*
X13277105Y55563492D02*
G01*
X13449996Y55491879D01*
X13605590Y55387914D01*
X13737914Y55255590D01*
X13841879Y55099996D01*
X13913492Y54927105D01*
X13950000Y54743566D01*
X13950000Y54556434D01*
X13913492Y54372895D01*
X13841879Y54200004D01*
X13737914Y54044410D01*
X13605590Y53912086D01*
X13449996Y53808121D01*
X13277105Y53736508D01*
X13093567Y53700000D01*
X12906433Y53700000D01*
X12722895Y53736508D01*
X12550004Y53808121D01*
X12394410Y53912086D01*
X12262086Y54044410D01*
X12158121Y54200004D01*
X12086508Y54372895D01*
X12050000Y54556434D01*
X12050000Y54743566D01*
X12086508Y54927105D01*
X12158121Y55099996D01*
X12262086Y55255590D01*
X12394410Y55387914D01*
X12550004Y55491879D01*
X12722895Y55563492D01*
X12906433Y55600000D01*
X13093567Y55600000D01*
X13277105Y55563492D01*
X13277105Y55563492D01*
G37*
G36*
X6176431Y57766977D02*
G01*
X6301939Y57728904D01*
X6346085Y57715513D01*
X6502431Y57631944D01*
X6639475Y57519475D01*
X6751944Y57382431D01*
X6835513Y57226085D01*
X6835514Y57226081D01*
X6886977Y57056431D01*
X6904354Y56880000D01*
X6886977Y56703569D01*
X6850830Y56584410D01*
X6835513Y56533915D01*
X6751944Y56377569D01*
X6639475Y56240525D01*
X6502431Y56128056D01*
X6346085Y56044487D01*
X6301939Y56031096D01*
X6176431Y55993023D01*
X6044207Y55980000D01*
X5955793Y55980000D01*
X5823569Y55993023D01*
X5698061Y56031096D01*
X5653915Y56044487D01*
X5497569Y56128056D01*
X5360525Y56240525D01*
X5248056Y56377569D01*
X5164487Y56533915D01*
X5149170Y56584410D01*
X5113023Y56703569D01*
X5095646Y56880000D01*
X5113023Y57056431D01*
X5164486Y57226081D01*
X5164487Y57226085D01*
X5248056Y57382431D01*
X5360525Y57519475D01*
X5497569Y57631944D01*
X5653915Y57715513D01*
X5698061Y57728904D01*
X5823569Y57766977D01*
X5955793Y57780000D01*
X6044207Y57780000D01*
X6176431Y57766977D01*
X6176431Y57766977D01*
G37*
G36*
X44176431Y57766977D02*
G01*
X44301939Y57728904D01*
X44346085Y57715513D01*
X44502431Y57631944D01*
X44639475Y57519475D01*
X44751944Y57382431D01*
X44835513Y57226085D01*
X44835514Y57226081D01*
X44886977Y57056431D01*
X44904354Y56880000D01*
X44886977Y56703569D01*
X44850830Y56584410D01*
X44835513Y56533915D01*
X44751944Y56377569D01*
X44639475Y56240525D01*
X44502431Y56128056D01*
X44346085Y56044487D01*
X44301939Y56031096D01*
X44176431Y55993023D01*
X44044207Y55980000D01*
X43955793Y55980000D01*
X43823569Y55993023D01*
X43698061Y56031096D01*
X43653915Y56044487D01*
X43497569Y56128056D01*
X43360525Y56240525D01*
X43248056Y56377569D01*
X43164487Y56533915D01*
X43149170Y56584410D01*
X43113023Y56703569D01*
X43095646Y56880000D01*
X43113023Y57056431D01*
X43164486Y57226081D01*
X43164487Y57226085D01*
X43248056Y57382431D01*
X43360525Y57519475D01*
X43497569Y57631944D01*
X43653915Y57715513D01*
X43698061Y57728904D01*
X43823569Y57766977D01*
X43955793Y57780000D01*
X44044207Y57780000D01*
X44176431Y57766977D01*
X44176431Y57766977D01*
G37*
G36*
X37277105Y58103492D02*
G01*
X37449996Y58031879D01*
X37605590Y57927914D01*
X37737914Y57795590D01*
X37841879Y57639996D01*
X37891800Y57519475D01*
X37913492Y57467105D01*
X37930335Y57382432D01*
X37950000Y57283566D01*
X37950000Y57096434D01*
X37913492Y56912895D01*
X37841879Y56740004D01*
X37737914Y56584410D01*
X37605590Y56452086D01*
X37449996Y56348121D01*
X37277105Y56276508D01*
X37093567Y56240000D01*
X36906433Y56240000D01*
X36722895Y56276508D01*
X36550004Y56348121D01*
X36394410Y56452086D01*
X36262086Y56584410D01*
X36158121Y56740004D01*
X36086508Y56912895D01*
X36050000Y57096434D01*
X36050000Y57283566D01*
X36069666Y57382432D01*
X36086508Y57467105D01*
X36108200Y57519475D01*
X36158121Y57639996D01*
X36262086Y57795590D01*
X36394410Y57927914D01*
X36550004Y58031879D01*
X36722895Y58103492D01*
X36906433Y58140000D01*
X37093567Y58140000D01*
X37277105Y58103492D01*
X37277105Y58103492D01*
G37*
G36*
X13277105Y58103492D02*
G01*
X13449996Y58031879D01*
X13605590Y57927914D01*
X13737914Y57795590D01*
X13841879Y57639996D01*
X13891800Y57519475D01*
X13913492Y57467105D01*
X13930335Y57382432D01*
X13950000Y57283566D01*
X13950000Y57096434D01*
X13913492Y56912895D01*
X13841879Y56740004D01*
X13737914Y56584410D01*
X13605590Y56452086D01*
X13449996Y56348121D01*
X13277105Y56276508D01*
X13093567Y56240000D01*
X12906433Y56240000D01*
X12722895Y56276508D01*
X12550004Y56348121D01*
X12394410Y56452086D01*
X12262086Y56584410D01*
X12158121Y56740004D01*
X12086508Y56912895D01*
X12050000Y57096434D01*
X12050000Y57283566D01*
X12069666Y57382432D01*
X12086508Y57467105D01*
X12108200Y57519475D01*
X12158121Y57639996D01*
X12262086Y57795590D01*
X12394410Y57927914D01*
X12550004Y58031879D01*
X12722895Y58103492D01*
X12906433Y58140000D01*
X13093567Y58140000D01*
X13277105Y58103492D01*
X13277105Y58103492D01*
G37*
G36*
X6176431Y60306977D02*
G01*
X6301939Y60268904D01*
X6346085Y60255513D01*
X6502431Y60171944D01*
X6639475Y60059475D01*
X6751944Y59922431D01*
X6835513Y59766085D01*
X6835514Y59766081D01*
X6886977Y59596431D01*
X6904354Y59420000D01*
X6886977Y59243569D01*
X6850830Y59124410D01*
X6835513Y59073915D01*
X6751944Y58917569D01*
X6639475Y58780525D01*
X6502431Y58668056D01*
X6346085Y58584487D01*
X6301939Y58571096D01*
X6176431Y58533023D01*
X6044207Y58520000D01*
X5955793Y58520000D01*
X5823569Y58533023D01*
X5698061Y58571096D01*
X5653915Y58584487D01*
X5497569Y58668056D01*
X5360525Y58780525D01*
X5248056Y58917569D01*
X5164487Y59073915D01*
X5149170Y59124410D01*
X5113023Y59243569D01*
X5095646Y59420000D01*
X5113023Y59596431D01*
X5164486Y59766081D01*
X5164487Y59766085D01*
X5248056Y59922431D01*
X5360525Y60059475D01*
X5497569Y60171944D01*
X5653915Y60255513D01*
X5698061Y60268904D01*
X5823569Y60306977D01*
X5955793Y60320000D01*
X6044207Y60320000D01*
X6176431Y60306977D01*
X6176431Y60306977D01*
G37*
G36*
X44176431Y60306977D02*
G01*
X44301939Y60268904D01*
X44346085Y60255513D01*
X44502431Y60171944D01*
X44639475Y60059475D01*
X44751944Y59922431D01*
X44835513Y59766085D01*
X44835514Y59766081D01*
X44886977Y59596431D01*
X44904354Y59420000D01*
X44886977Y59243569D01*
X44850830Y59124410D01*
X44835513Y59073915D01*
X44751944Y58917569D01*
X44639475Y58780525D01*
X44502431Y58668056D01*
X44346085Y58584487D01*
X44301939Y58571096D01*
X44176431Y58533023D01*
X44044207Y58520000D01*
X43955793Y58520000D01*
X43823569Y58533023D01*
X43698061Y58571096D01*
X43653915Y58584487D01*
X43497569Y58668056D01*
X43360525Y58780525D01*
X43248056Y58917569D01*
X43164487Y59073915D01*
X43149170Y59124410D01*
X43113023Y59243569D01*
X43095646Y59420000D01*
X43113023Y59596431D01*
X43164486Y59766081D01*
X43164487Y59766085D01*
X43248056Y59922431D01*
X43360525Y60059475D01*
X43497569Y60171944D01*
X43653915Y60255513D01*
X43698061Y60268904D01*
X43823569Y60306977D01*
X43955793Y60320000D01*
X44044207Y60320000D01*
X44176431Y60306977D01*
X44176431Y60306977D01*
G37*
G36*
X37277105Y60643492D02*
G01*
X37449996Y60571879D01*
X37605590Y60467914D01*
X37737914Y60335590D01*
X37841879Y60179996D01*
X37891800Y60059475D01*
X37913492Y60007105D01*
X37930335Y59922432D01*
X37950000Y59823566D01*
X37950000Y59636434D01*
X37913492Y59452895D01*
X37841879Y59280004D01*
X37737914Y59124410D01*
X37605590Y58992086D01*
X37449996Y58888121D01*
X37277105Y58816508D01*
X37093567Y58780000D01*
X36906433Y58780000D01*
X36722895Y58816508D01*
X36550004Y58888121D01*
X36394410Y58992086D01*
X36262086Y59124410D01*
X36158121Y59280004D01*
X36086508Y59452895D01*
X36050000Y59636434D01*
X36050000Y59823566D01*
X36069666Y59922432D01*
X36086508Y60007105D01*
X36108200Y60059475D01*
X36158121Y60179996D01*
X36262086Y60335590D01*
X36394410Y60467914D01*
X36550004Y60571879D01*
X36722895Y60643492D01*
X36906433Y60680000D01*
X37093567Y60680000D01*
X37277105Y60643492D01*
X37277105Y60643492D01*
G37*
G36*
X13277105Y60643492D02*
G01*
X13449996Y60571879D01*
X13605590Y60467914D01*
X13737914Y60335590D01*
X13841879Y60179996D01*
X13891800Y60059475D01*
X13913492Y60007105D01*
X13930335Y59922432D01*
X13950000Y59823566D01*
X13950000Y59636434D01*
X13913492Y59452895D01*
X13841879Y59280004D01*
X13737914Y59124410D01*
X13605590Y58992086D01*
X13449996Y58888121D01*
X13277105Y58816508D01*
X13093567Y58780000D01*
X12906433Y58780000D01*
X12722895Y58816508D01*
X12550004Y58888121D01*
X12394410Y58992086D01*
X12262086Y59124410D01*
X12158121Y59280004D01*
X12086508Y59452895D01*
X12050000Y59636434D01*
X12050000Y59823566D01*
X12069666Y59922432D01*
X12086508Y60007105D01*
X12108200Y60059475D01*
X12158121Y60179996D01*
X12262086Y60335590D01*
X12394410Y60467914D01*
X12550004Y60571879D01*
X12722895Y60643492D01*
X12906433Y60680000D01*
X13093567Y60680000D01*
X13277105Y60643492D01*
X13277105Y60643492D01*
G37*
G36*
X6176431Y62846977D02*
G01*
X6301939Y62808904D01*
X6346085Y62795513D01*
X6502431Y62711944D01*
X6639475Y62599475D01*
X6751944Y62462431D01*
X6835513Y62306085D01*
X6835514Y62306081D01*
X6886977Y62136431D01*
X6904354Y61960000D01*
X6886977Y61783569D01*
X6850830Y61664410D01*
X6835513Y61613915D01*
X6751944Y61457569D01*
X6639475Y61320525D01*
X6502431Y61208056D01*
X6346085Y61124487D01*
X6301939Y61111096D01*
X6176431Y61073023D01*
X6044207Y61060000D01*
X5955793Y61060000D01*
X5823569Y61073023D01*
X5698061Y61111096D01*
X5653915Y61124487D01*
X5497569Y61208056D01*
X5360525Y61320525D01*
X5248056Y61457569D01*
X5164487Y61613915D01*
X5149170Y61664410D01*
X5113023Y61783569D01*
X5095646Y61960000D01*
X5113023Y62136431D01*
X5164486Y62306081D01*
X5164487Y62306085D01*
X5248056Y62462431D01*
X5360525Y62599475D01*
X5497569Y62711944D01*
X5653915Y62795513D01*
X5698061Y62808904D01*
X5823569Y62846977D01*
X5955793Y62860000D01*
X6044207Y62860000D01*
X6176431Y62846977D01*
X6176431Y62846977D01*
G37*
G36*
X44176431Y62846977D02*
G01*
X44301939Y62808904D01*
X44346085Y62795513D01*
X44502431Y62711944D01*
X44639475Y62599475D01*
X44751944Y62462431D01*
X44835513Y62306085D01*
X44835514Y62306081D01*
X44886977Y62136431D01*
X44904354Y61960000D01*
X44886977Y61783569D01*
X44850830Y61664410D01*
X44835513Y61613915D01*
X44751944Y61457569D01*
X44639475Y61320525D01*
X44502431Y61208056D01*
X44346085Y61124487D01*
X44301939Y61111096D01*
X44176431Y61073023D01*
X44044207Y61060000D01*
X43955793Y61060000D01*
X43823569Y61073023D01*
X43698061Y61111096D01*
X43653915Y61124487D01*
X43497569Y61208056D01*
X43360525Y61320525D01*
X43248056Y61457569D01*
X43164487Y61613915D01*
X43149170Y61664410D01*
X43113023Y61783569D01*
X43095646Y61960000D01*
X43113023Y62136431D01*
X43164486Y62306081D01*
X43164487Y62306085D01*
X43248056Y62462431D01*
X43360525Y62599475D01*
X43497569Y62711944D01*
X43653915Y62795513D01*
X43698061Y62808904D01*
X43823569Y62846977D01*
X43955793Y62860000D01*
X44044207Y62860000D01*
X44176431Y62846977D01*
X44176431Y62846977D01*
G37*
G36*
X37277105Y63183492D02*
G01*
X37449996Y63111879D01*
X37605590Y63007914D01*
X37737914Y62875590D01*
X37841879Y62719996D01*
X37891800Y62599475D01*
X37913492Y62547105D01*
X37930335Y62462432D01*
X37950000Y62363566D01*
X37950000Y62176434D01*
X37913492Y61992895D01*
X37841879Y61820004D01*
X37737914Y61664410D01*
X37605590Y61532086D01*
X37449996Y61428121D01*
X37277105Y61356508D01*
X37093567Y61320000D01*
X36906433Y61320000D01*
X36722895Y61356508D01*
X36550004Y61428121D01*
X36394410Y61532086D01*
X36262086Y61664410D01*
X36158121Y61820004D01*
X36086508Y61992895D01*
X36050000Y62176434D01*
X36050000Y62363566D01*
X36069666Y62462432D01*
X36086508Y62547105D01*
X36108200Y62599475D01*
X36158121Y62719996D01*
X36262086Y62875590D01*
X36394410Y63007914D01*
X36550004Y63111879D01*
X36722895Y63183492D01*
X36906433Y63220000D01*
X37093567Y63220000D01*
X37277105Y63183492D01*
X37277105Y63183492D01*
G37*
G36*
X13277105Y63183492D02*
G01*
X13449996Y63111879D01*
X13605590Y63007914D01*
X13737914Y62875590D01*
X13841879Y62719996D01*
X13891800Y62599475D01*
X13913492Y62547105D01*
X13930335Y62462432D01*
X13950000Y62363566D01*
X13950000Y62176434D01*
X13913492Y61992895D01*
X13841879Y61820004D01*
X13737914Y61664410D01*
X13605590Y61532086D01*
X13449996Y61428121D01*
X13277105Y61356508D01*
X13093567Y61320000D01*
X12906433Y61320000D01*
X12722895Y61356508D01*
X12550004Y61428121D01*
X12394410Y61532086D01*
X12262086Y61664410D01*
X12158121Y61820004D01*
X12086508Y61992895D01*
X12050000Y62176434D01*
X12050000Y62363566D01*
X12069666Y62462432D01*
X12086508Y62547105D01*
X12108200Y62599475D01*
X12158121Y62719996D01*
X12262086Y62875590D01*
X12394410Y63007914D01*
X12550004Y63111879D01*
X12722895Y63183492D01*
X12906433Y63220000D01*
X13093567Y63220000D01*
X13277105Y63183492D01*
X13277105Y63183492D01*
G37*
G36*
X44900000Y63600000D02*
G01*
X43100000Y63600000D01*
X43100000Y65400000D01*
X44900000Y65400000D01*
X44900000Y63600000D01*
X44900000Y63600000D01*
G37*
G36*
X6900000Y63600000D02*
G01*
X5100000Y63600000D01*
X5100000Y65400000D01*
X6900000Y65400000D01*
X6900000Y63600000D01*
X6900000Y63600000D01*
G37*
G36*
X37277105Y65723492D02*
G01*
X37449996Y65651879D01*
X37605590Y65547914D01*
X37737914Y65415590D01*
X37841879Y65259996D01*
X37913492Y65087105D01*
X37950000Y64903566D01*
X37950000Y64716434D01*
X37913492Y64532895D01*
X37841879Y64360004D01*
X37737914Y64204410D01*
X37605590Y64072086D01*
X37449996Y63968121D01*
X37277105Y63896508D01*
X37093567Y63860000D01*
X36906433Y63860000D01*
X36722895Y63896508D01*
X36550004Y63968121D01*
X36394410Y64072086D01*
X36262086Y64204410D01*
X36158121Y64360004D01*
X36086508Y64532895D01*
X36050000Y64716434D01*
X36050000Y64903566D01*
X36086508Y65087105D01*
X36158121Y65259996D01*
X36262086Y65415590D01*
X36394410Y65547914D01*
X36550004Y65651879D01*
X36722895Y65723492D01*
X36906433Y65760000D01*
X37093567Y65760000D01*
X37277105Y65723492D01*
X37277105Y65723492D01*
G37*
G36*
X13277105Y65723492D02*
G01*
X13449996Y65651879D01*
X13605590Y65547914D01*
X13737914Y65415590D01*
X13841879Y65259996D01*
X13913492Y65087105D01*
X13950000Y64903566D01*
X13950000Y64716434D01*
X13913492Y64532895D01*
X13841879Y64360004D01*
X13737914Y64204410D01*
X13605590Y64072086D01*
X13449996Y63968121D01*
X13277105Y63896508D01*
X13093567Y63860000D01*
X12906433Y63860000D01*
X12722895Y63896508D01*
X12550004Y63968121D01*
X12394410Y64072086D01*
X12262086Y64204410D01*
X12158121Y64360004D01*
X12086508Y64532895D01*
X12050000Y64716434D01*
X12050000Y64903566D01*
X12086508Y65087105D01*
X12158121Y65259996D01*
X12262086Y65415590D01*
X12394410Y65547914D01*
X12550004Y65651879D01*
X12722895Y65723492D01*
X12906433Y65760000D01*
X13093567Y65760000D01*
X13277105Y65723492D01*
X13277105Y65723492D01*
G37*
G36*
X13277105Y68263492D02*
G01*
X13449996Y68191879D01*
X13605590Y68087914D01*
X13737914Y67955590D01*
X13841879Y67799996D01*
X13913492Y67627105D01*
X13950000Y67443566D01*
X13950000Y67256434D01*
X13913492Y67072895D01*
X13841879Y66900004D01*
X13737914Y66744410D01*
X13605590Y66612086D01*
X13449996Y66508121D01*
X13277105Y66436508D01*
X13093567Y66400000D01*
X12906433Y66400000D01*
X12722895Y66436508D01*
X12550004Y66508121D01*
X12394410Y66612086D01*
X12262086Y66744410D01*
X12158121Y66900004D01*
X12086508Y67072895D01*
X12050000Y67256434D01*
X12050000Y67443566D01*
X12086508Y67627105D01*
X12158121Y67799996D01*
X12262086Y67955590D01*
X12394410Y68087914D01*
X12550004Y68191879D01*
X12722895Y68263492D01*
X12906433Y68300000D01*
X13093567Y68300000D01*
X13277105Y68263492D01*
X13277105Y68263492D01*
G37*
G36*
X37277105Y68263492D02*
G01*
X37449996Y68191879D01*
X37605590Y68087914D01*
X37737914Y67955590D01*
X37841879Y67799996D01*
X37913492Y67627105D01*
X37950000Y67443566D01*
X37950000Y67256434D01*
X37913492Y67072895D01*
X37841879Y66900004D01*
X37737914Y66744410D01*
X37605590Y66612086D01*
X37449996Y66508121D01*
X37277105Y66436508D01*
X37093567Y66400000D01*
X36906433Y66400000D01*
X36722895Y66436508D01*
X36550004Y66508121D01*
X36394410Y66612086D01*
X36262086Y66744410D01*
X36158121Y66900004D01*
X36086508Y67072895D01*
X36050000Y67256434D01*
X36050000Y67443566D01*
X36086508Y67627105D01*
X36158121Y67799996D01*
X36262086Y67955590D01*
X36394410Y68087914D01*
X36550004Y68191879D01*
X36722895Y68263492D01*
X36906433Y68300000D01*
X37093567Y68300000D01*
X37277105Y68263492D01*
X37277105Y68263492D01*
G37*
G36*
X37277105Y70803492D02*
G01*
X37449996Y70731879D01*
X37605590Y70627914D01*
X37737914Y70495590D01*
X37841879Y70339996D01*
X37913492Y70167105D01*
X37950000Y69983566D01*
X37950000Y69796434D01*
X37913492Y69612895D01*
X37841879Y69440004D01*
X37737914Y69284410D01*
X37605590Y69152086D01*
X37449996Y69048121D01*
X37277105Y68976508D01*
X37093567Y68940000D01*
X36906433Y68940000D01*
X36722895Y68976508D01*
X36550004Y69048121D01*
X36394410Y69152086D01*
X36262086Y69284410D01*
X36158121Y69440004D01*
X36086508Y69612895D01*
X36050000Y69796434D01*
X36050000Y69983566D01*
X36086508Y70167105D01*
X36158121Y70339996D01*
X36262086Y70495590D01*
X36394410Y70627914D01*
X36550004Y70731879D01*
X36722895Y70803492D01*
X36906433Y70840000D01*
X37093567Y70840000D01*
X37277105Y70803492D01*
X37277105Y70803492D01*
G37*
G36*
X13277105Y70803492D02*
G01*
X13449996Y70731879D01*
X13605590Y70627914D01*
X13737914Y70495590D01*
X13841879Y70339996D01*
X13913492Y70167105D01*
X13950000Y69983566D01*
X13950000Y69796434D01*
X13913492Y69612895D01*
X13841879Y69440004D01*
X13737914Y69284410D01*
X13605590Y69152086D01*
X13449996Y69048121D01*
X13277105Y68976508D01*
X13093567Y68940000D01*
X12906433Y68940000D01*
X12722895Y68976508D01*
X12550004Y69048121D01*
X12394410Y69152086D01*
X12262086Y69284410D01*
X12158121Y69440004D01*
X12086508Y69612895D01*
X12050000Y69796434D01*
X12050000Y69983566D01*
X12086508Y70167105D01*
X12158121Y70339996D01*
X12262086Y70495590D01*
X12394410Y70627914D01*
X12550004Y70731879D01*
X12722895Y70803492D01*
X12906433Y70840000D01*
X13093567Y70840000D01*
X13277105Y70803492D01*
X13277105Y70803492D01*
G37*
G36*
X35750027Y78653884D02*
G01*
X35968415Y78563425D01*
X36164955Y78432101D01*
X36332101Y78264955D01*
X36463425Y78068415D01*
X36553884Y77850027D01*
X36600000Y77618188D01*
X36600000Y77381812D01*
X36553884Y77149973D01*
X36463425Y76931585D01*
X36332101Y76735045D01*
X36164955Y76567899D01*
X35968415Y76436575D01*
X35968414Y76436574D01*
X35968413Y76436574D01*
X35750027Y76346116D01*
X35518190Y76300000D01*
X35281810Y76300000D01*
X35049973Y76346116D01*
X34831587Y76436574D01*
X34831586Y76436574D01*
X34831585Y76436575D01*
X34635045Y76567899D01*
X34467899Y76735045D01*
X34336575Y76931585D01*
X34246116Y77149973D01*
X34200000Y77381812D01*
X34200000Y77618188D01*
X34246116Y77850027D01*
X34336575Y78068415D01*
X34467899Y78264955D01*
X34635045Y78432101D01*
X34831585Y78563425D01*
X35049973Y78653884D01*
X35281810Y78700000D01*
X35518190Y78700000D01*
X35750027Y78653884D01*
X35750027Y78653884D01*
G37*
G36*
X14950027Y78653884D02*
G01*
X15168415Y78563425D01*
X15364955Y78432101D01*
X15532101Y78264955D01*
X15663425Y78068415D01*
X15753884Y77850027D01*
X15800000Y77618188D01*
X15800000Y77381812D01*
X15753884Y77149973D01*
X15663425Y76931585D01*
X15532101Y76735045D01*
X15364955Y76567899D01*
X15168415Y76436575D01*
X15168414Y76436574D01*
X15168413Y76436574D01*
X14950027Y76346116D01*
X14718190Y76300000D01*
X14481810Y76300000D01*
X14249973Y76346116D01*
X14031587Y76436574D01*
X14031586Y76436574D01*
X14031585Y76436575D01*
X13835045Y76567899D01*
X13667899Y76735045D01*
X13536575Y76931585D01*
X13446116Y77149973D01*
X13400000Y77381812D01*
X13400000Y77618188D01*
X13446116Y77850027D01*
X13536575Y78068415D01*
X13667899Y78264955D01*
X13835045Y78432101D01*
X14031585Y78563425D01*
X14249973Y78653884D01*
X14481810Y78700000D01*
X14718190Y78700000D01*
X14950027Y78653884D01*
X14950027Y78653884D01*
G37*
G36*
X14950027Y81653884D02*
G01*
X15168415Y81563425D01*
X15364955Y81432101D01*
X15532101Y81264955D01*
X15663425Y81068415D01*
X15753884Y80850027D01*
X15800000Y80618188D01*
X15800000Y80381812D01*
X15753884Y80149973D01*
X15663425Y79931585D01*
X15532101Y79735045D01*
X15364955Y79567899D01*
X15168415Y79436575D01*
X15168414Y79436574D01*
X15168413Y79436574D01*
X14950027Y79346116D01*
X14718190Y79300000D01*
X14481810Y79300000D01*
X14249973Y79346116D01*
X14031587Y79436574D01*
X14031586Y79436574D01*
X14031585Y79436575D01*
X13835045Y79567899D01*
X13667899Y79735045D01*
X13536575Y79931585D01*
X13446116Y80149973D01*
X13400000Y80381812D01*
X13400000Y80618188D01*
X13446116Y80850027D01*
X13536575Y81068415D01*
X13667899Y81264955D01*
X13835045Y81432101D01*
X14031585Y81563425D01*
X14249973Y81653884D01*
X14481810Y81700000D01*
X14718190Y81700000D01*
X14950027Y81653884D01*
X14950027Y81653884D01*
G37*
G36*
X35750027Y81653884D02*
G01*
X35968415Y81563425D01*
X36164955Y81432101D01*
X36332101Y81264955D01*
X36463425Y81068415D01*
X36553884Y80850027D01*
X36600000Y80618188D01*
X36600000Y80381812D01*
X36553884Y80149973D01*
X36463425Y79931585D01*
X36332101Y79735045D01*
X36164955Y79567899D01*
X35968415Y79436575D01*
X35968414Y79436574D01*
X35968413Y79436574D01*
X35750027Y79346116D01*
X35518190Y79300000D01*
X35281810Y79300000D01*
X35049973Y79346116D01*
X34831587Y79436574D01*
X34831586Y79436574D01*
X34831585Y79436575D01*
X34635045Y79567899D01*
X34467899Y79735045D01*
X34336575Y79931585D01*
X34246116Y80149973D01*
X34200000Y80381812D01*
X34200000Y80618188D01*
X34246116Y80850027D01*
X34336575Y81068415D01*
X34467899Y81264955D01*
X34635045Y81432101D01*
X34831585Y81563425D01*
X35049973Y81653884D01*
X35281810Y81700000D01*
X35518190Y81700000D01*
X35750027Y81653884D01*
X35750027Y81653884D01*
G37*
G36*
X25947990Y95125104D02*
G01*
X26539455Y94880112D01*
X27071754Y94524440D01*
X27524440Y94071754D01*
X27880112Y93539455D01*
X28125104Y92947990D01*
X28250000Y92320096D01*
X28250000Y91679904D01*
X28125104Y91052010D01*
X27880112Y90460545D01*
X27524440Y89928246D01*
X27071754Y89475560D01*
X26539455Y89119888D01*
X25947990Y88874896D01*
X25320097Y88750000D01*
X24679903Y88750000D01*
X24052010Y88874896D01*
X23460545Y89119888D01*
X22928246Y89475560D01*
X22475560Y89928246D01*
X22119888Y90460545D01*
X21874896Y91052010D01*
X21750000Y91679904D01*
X21750000Y92320096D01*
X21874896Y92947990D01*
X22119888Y93539455D01*
X22475560Y94071754D01*
X22928246Y94524440D01*
X23460545Y94880112D01*
X24052010Y95125104D01*
X24679903Y95250000D01*
X25320097Y95250000D01*
X25947990Y95125104D01*
X25947990Y95125104D01*
G37*
M02*
