M48
; DRILL file {KiCad 5.1.0} date Fr 24 Mai 2019 21:59:39 CEST
; FORMAT={-:-/ absolute / inch / decimal}
; #@! TF.CreationDate,2019-05-24T21:59:39+02:00
; #@! TF.GenerationSoftware,Kicad,Pcbnew,5.1.0
FMAT,2
INCH
T1C0.0157
T2C0.0315
T3C0.0354
T4C0.0394
T5C0.0433
T6C0.1260
T7C0.0472
%
G90
G05
T1
X0.2953Y1.1811
X0.2953Y0.8858
X0.4921Y1.9193
X0.5512Y1.2697
X0.5512Y1.1909
X0.6398Y2.2146
X0.689Y1.6732
X0.689Y1.4764
X0.689Y1.2795
X0.7283Y2.6772
X0.7461Y3.0394
X0.8169Y2.5591
X0.8268Y2.0177
X0.8317Y3.0896
X0.8563Y1.939
X0.8957Y2.2933
X0.935Y2.4803
X0.9744Y2.6476
X0.9862Y3.4587
X0.9862Y3.3543
X1.0315Y2.5787
X1.0531Y2.1161
X1.0827Y2.1575
X1.1122Y2.5787
X1.1388Y3.0896
X1.1516Y1.9783
X1.1614Y2.5787
X1.2205Y2.5787
X1.2224Y3.0394
X1.2697Y2.1752
X1.2795Y2.5787
X1.2795Y1.6732
X1.2795Y1.4764
X1.2795Y1.0827
X1.2795Y0.8858
X1.2992Y1.3583
X1.3091Y2.3031
X1.3287Y2.2441
X1.4764Y1.378
T2
X0.5118Y2.7516
X0.5118Y2.6516
X0.5118Y2.5516
X0.5118Y2.4516
X0.5118Y2.3516
X0.5118Y2.2516
X0.5118Y2.1516
X0.5118Y2.0516
X1.4567Y2.7516
X1.4567Y2.6516
X1.4567Y2.5516
X1.4567Y2.4516
X1.4567Y2.3516
X1.4567Y2.2516
X1.4567Y2.1516
X1.4567Y2.0516
T4
X0.2362Y2.5394
X0.2362Y2.4394
X0.2362Y2.3394
X0.2362Y2.2394
X0.8858Y1.5961
X0.8858Y1.4961
X0.9858Y1.5961
X0.9858Y1.4961
X1.0858Y1.5961
X1.0858Y1.4961
X1.7323Y2.5394
X1.7323Y2.4394
X1.7323Y2.3394
X1.7323Y2.2394
X0.5748Y3.1693
X0.5748Y3.0512
X1.3937Y3.1693
X1.3937Y3.0512
T5
X1.5354Y0.7087
X1.5354Y0.5315
X1.7913Y0.7087
X1.7913Y0.5315
X0.1772Y0.7087
X0.1772Y0.5315
X0.4331Y0.7087
X0.4331Y0.5315
T6
X1.6535Y0.3248
X0.3248Y0.3248
X0.9843Y3.622
T7
X0.7874Y0.9055
X0.7874Y0.8071
X0.9843Y1.1024
X1.1811Y0.9055
X1.1811Y0.8071
T2
G00X0.8858Y1.0886
M15
G01X0.8858Y1.1161
M16
G05
G00X0.998Y0.9055
M15
G01X0.9705Y0.9055
M16
G05
G00X1.0827Y1.0886
M15
G01X1.0827Y1.1161
M16
G05
G00X1.1811Y1.0886
M15
G01X1.1811Y1.1161
M16
G05
T3
G00X0.7874Y1.0906
M15
G01X0.7874Y1.1142
M16
G05
T0
M30
