%TF.GenerationSoftware,KiCad,Pcbnew,5.1.0*%
%TF.CreationDate,2019-05-24T21:58:45+02:00*%
%TF.ProjectId,c4-blinkenrocket,63342d62-6c69-46e6-9b65-6e726f636b65,rev?*%
%TF.SameCoordinates,PX5f5e100PY8f0d180*%
%TF.FileFunction,Legend,Bot*%
%TF.FilePolarity,Positive*%
%FSLAX46Y46*%
G04 Gerber Fmt 4.6, Leading zero omitted, Abs format (unit mm)*
G04 Created by KiCad (PCBNEW 5.1.0) date 2019-05-24 21:58:45*
%MOMM*%
%LPD*%
G04 APERTURE LIST*
%ADD10C,0.150000*%
%ADD11C,0.106680*%
%ADD12C,0.101600*%
%ADD13C,0.250000*%
%ADD14C,0.120000*%
G04 APERTURE END LIST*
D10*
X9761904Y57250000D02*
X9857142Y57297620D01*
X10000000Y57297620D01*
X10142857Y57250000D01*
X10238095Y57154762D01*
X10285714Y57059524D01*
X10333333Y56869048D01*
X10333333Y56726191D01*
X10285714Y56535715D01*
X10238095Y56440477D01*
X10142857Y56345239D01*
X10000000Y56297620D01*
X9904761Y56297620D01*
X9761904Y56345239D01*
X9714285Y56392858D01*
X9714285Y56726191D01*
X9904761Y56726191D01*
X9285714Y56297620D02*
X9285714Y57297620D01*
X8714285Y56297620D01*
X8714285Y57297620D01*
X8238095Y56297620D02*
X8238095Y57297620D01*
X8000000Y57297620D01*
X7857142Y57250000D01*
X7761904Y57154762D01*
X7714285Y57059524D01*
X7666666Y56869048D01*
X7666666Y56726191D01*
X7714285Y56535715D01*
X7761904Y56440477D01*
X7857142Y56345239D01*
X8000000Y56297620D01*
X8238095Y56297620D01*
X9190476Y59321429D02*
X8857142Y59321429D01*
X8714285Y58797620D02*
X9190476Y58797620D01*
X9190476Y59797620D01*
X8714285Y59797620D01*
X7857142Y59464286D02*
X7857142Y58797620D01*
X8095238Y59845239D02*
X8333333Y59130953D01*
X7714285Y59130953D01*
X9190476Y61821429D02*
X8857142Y61821429D01*
X8714285Y61297620D02*
X9190476Y61297620D01*
X9190476Y62297620D01*
X8714285Y62297620D01*
X8380952Y62297620D02*
X7761904Y62297620D01*
X8095238Y61916667D01*
X7952380Y61916667D01*
X7857142Y61869048D01*
X7809523Y61821429D01*
X7761904Y61726191D01*
X7761904Y61488096D01*
X7809523Y61392858D01*
X7857142Y61345239D01*
X7952380Y61297620D01*
X8238095Y61297620D01*
X8333333Y61345239D01*
X8380952Y61392858D01*
X10333333Y65047620D02*
X10000000Y64047620D01*
X9666666Y65047620D01*
X8761904Y64142858D02*
X8809523Y64095239D01*
X8952380Y64047620D01*
X9047619Y64047620D01*
X9190476Y64095239D01*
X9285714Y64190477D01*
X9333333Y64285715D01*
X9380952Y64476191D01*
X9380952Y64619048D01*
X9333333Y64809524D01*
X9285714Y64904762D01*
X9190476Y65000000D01*
X9047619Y65047620D01*
X8952380Y65047620D01*
X8809523Y65000000D01*
X8761904Y64952381D01*
X7761904Y64142858D02*
X7809523Y64095239D01*
X7952380Y64047620D01*
X8047619Y64047620D01*
X8190476Y64095239D01*
X8285714Y64190477D01*
X8333333Y64285715D01*
X8380952Y64476191D01*
X8380952Y64619048D01*
X8333333Y64809524D01*
X8285714Y64904762D01*
X8190476Y65000000D01*
X8047619Y65047620D01*
X7952380Y65047620D01*
X7809523Y65000000D01*
X7761904Y64952381D01*
X41761904Y57250000D02*
X41857142Y57297620D01*
X42000000Y57297620D01*
X42142857Y57250000D01*
X42238095Y57154762D01*
X42285714Y57059524D01*
X42333333Y56869048D01*
X42333333Y56726191D01*
X42285714Y56535715D01*
X42238095Y56440477D01*
X42142857Y56345239D01*
X42000000Y56297620D01*
X41904761Y56297620D01*
X41761904Y56345239D01*
X41714285Y56392858D01*
X41714285Y56726191D01*
X41904761Y56726191D01*
X41285714Y56297620D02*
X41285714Y57297620D01*
X40714285Y56297620D01*
X40714285Y57297620D01*
X40238095Y56297620D02*
X40238095Y57297620D01*
X40000000Y57297620D01*
X39857142Y57250000D01*
X39761904Y57154762D01*
X39714285Y57059524D01*
X39666666Y56869048D01*
X39666666Y56726191D01*
X39714285Y56535715D01*
X39761904Y56440477D01*
X39857142Y56345239D01*
X40000000Y56297620D01*
X40238095Y56297620D01*
X42333333Y65047620D02*
X42000000Y64047620D01*
X41666666Y65047620D01*
X40761904Y64142858D02*
X40809523Y64095239D01*
X40952380Y64047620D01*
X41047619Y64047620D01*
X41190476Y64095239D01*
X41285714Y64190477D01*
X41333333Y64285715D01*
X41380952Y64476191D01*
X41380952Y64619048D01*
X41333333Y64809524D01*
X41285714Y64904762D01*
X41190476Y65000000D01*
X41047619Y65047620D01*
X40952380Y65047620D01*
X40809523Y65000000D01*
X40761904Y64952381D01*
X39761904Y64142858D02*
X39809523Y64095239D01*
X39952380Y64047620D01*
X40047619Y64047620D01*
X40190476Y64095239D01*
X40285714Y64190477D01*
X40333333Y64285715D01*
X40380952Y64476191D01*
X40380952Y64619048D01*
X40333333Y64809524D01*
X40285714Y64904762D01*
X40190476Y65000000D01*
X40047619Y65047620D01*
X39952380Y65047620D01*
X39809523Y65000000D01*
X39761904Y64952381D01*
X42190476Y59321429D02*
X41857142Y59321429D01*
X41714285Y58797620D02*
X42190476Y58797620D01*
X42190476Y59797620D01*
X41714285Y59797620D01*
X41333333Y59702381D02*
X41285714Y59750000D01*
X41190476Y59797620D01*
X40952380Y59797620D01*
X40857142Y59750000D01*
X40809523Y59702381D01*
X40761904Y59607143D01*
X40761904Y59511905D01*
X40809523Y59369048D01*
X41380952Y58797620D01*
X40761904Y58797620D01*
X42190476Y62071429D02*
X41857142Y62071429D01*
X41714285Y61547620D02*
X42190476Y61547620D01*
X42190476Y62547620D01*
X41714285Y62547620D01*
X40761904Y61547620D02*
X41333333Y61547620D01*
X41047619Y61547620D02*
X41047619Y62547620D01*
X41142857Y62404762D01*
X41238095Y62309524D01*
X41333333Y62261905D01*
D11*
X46282958Y21891815D02*
X46282958Y22905275D01*
X46282958Y22519195D02*
X46186438Y22567455D01*
X45993398Y22567455D01*
X45896878Y22519195D01*
X45848618Y22470935D01*
X45800358Y22374415D01*
X45800358Y22084855D01*
X45848618Y21988335D01*
X45896878Y21940075D01*
X45993398Y21891815D01*
X46186438Y21891815D01*
X46282958Y21940075D01*
X45221238Y21891815D02*
X45317758Y21940075D01*
X45366018Y22036595D01*
X45366018Y22905275D01*
X44835158Y21891815D02*
X44835158Y22567455D01*
X44835158Y22905275D02*
X44883418Y22857015D01*
X44835158Y22808755D01*
X44786898Y22857015D01*
X44835158Y22905275D01*
X44835158Y22808755D01*
X44352558Y22567455D02*
X44352558Y21891815D01*
X44352558Y22470935D02*
X44304298Y22519195D01*
X44207778Y22567455D01*
X44062998Y22567455D01*
X43966478Y22519195D01*
X43918218Y22422675D01*
X43918218Y21891815D01*
X43435618Y21891815D02*
X43435618Y22905275D01*
X43339098Y22277895D02*
X43049538Y21891815D01*
X43049538Y22567455D02*
X43435618Y22181375D01*
X42229118Y21940075D02*
X42325638Y21891815D01*
X42518678Y21891815D01*
X42615198Y21940075D01*
X42663458Y22036595D01*
X42663458Y22422675D01*
X42615198Y22519195D01*
X42518678Y22567455D01*
X42325638Y22567455D01*
X42229118Y22519195D01*
X42180858Y22422675D01*
X42180858Y22326155D01*
X42663458Y22229635D01*
X41746518Y22567455D02*
X41746518Y21891815D01*
X41746518Y22470935D02*
X41698258Y22519195D01*
X41601738Y22567455D01*
X41456958Y22567455D01*
X41360438Y22519195D01*
X41312178Y22422675D01*
X41312178Y21891815D01*
X40829578Y21891815D02*
X40829578Y22567455D01*
X40829578Y22374415D02*
X40781318Y22470935D01*
X40733058Y22519195D01*
X40636538Y22567455D01*
X40540018Y22567455D01*
X40057418Y21891815D02*
X40153938Y21940075D01*
X40202198Y21988335D01*
X40250458Y22084855D01*
X40250458Y22374415D01*
X40202198Y22470935D01*
X40153938Y22519195D01*
X40057418Y22567455D01*
X39912638Y22567455D01*
X39816118Y22519195D01*
X39767858Y22470935D01*
X39719598Y22374415D01*
X39719598Y22084855D01*
X39767858Y21988335D01*
X39816118Y21940075D01*
X39912638Y21891815D01*
X40057418Y21891815D01*
X38850918Y21940075D02*
X38947438Y21891815D01*
X39140478Y21891815D01*
X39236998Y21940075D01*
X39285258Y21988335D01*
X39333518Y22084855D01*
X39333518Y22374415D01*
X39285258Y22470935D01*
X39236998Y22519195D01*
X39140478Y22567455D01*
X38947438Y22567455D01*
X38850918Y22519195D01*
X38416578Y21891815D02*
X38416578Y22905275D01*
X38320058Y22277895D02*
X38030498Y21891815D01*
X38030498Y22567455D02*
X38416578Y22181375D01*
X37210078Y21940075D02*
X37306598Y21891815D01*
X37499638Y21891815D01*
X37596158Y21940075D01*
X37644418Y22036595D01*
X37644418Y22422675D01*
X37596158Y22519195D01*
X37499638Y22567455D01*
X37306598Y22567455D01*
X37210078Y22519195D01*
X37161818Y22422675D01*
X37161818Y22326155D01*
X37644418Y22229635D01*
X36872258Y22567455D02*
X36486178Y22567455D01*
X36727478Y22905275D02*
X36727478Y22036595D01*
X36679218Y21940075D01*
X36582698Y21891815D01*
X36486178Y21891815D01*
X36148358Y21988335D02*
X36100098Y21940075D01*
X36148358Y21891815D01*
X36196618Y21940075D01*
X36148358Y21988335D01*
X36148358Y21891815D01*
X35231418Y21891815D02*
X35231418Y22905275D01*
X35231418Y21940075D02*
X35327938Y21891815D01*
X35520978Y21891815D01*
X35617498Y21940075D01*
X35665758Y21988335D01*
X35714018Y22084855D01*
X35714018Y22374415D01*
X35665758Y22470935D01*
X35617498Y22519195D01*
X35520978Y22567455D01*
X35327938Y22567455D01*
X35231418Y22519195D01*
X34362738Y21940075D02*
X34459258Y21891815D01*
X34652298Y21891815D01*
X34748818Y21940075D01*
X34797078Y22036595D01*
X34797078Y22422675D01*
X34748818Y22519195D01*
X34652298Y22567455D01*
X34459258Y22567455D01*
X34362738Y22519195D01*
X34314478Y22422675D01*
X34314478Y22326155D01*
X34797078Y22229635D01*
D12*
X7594350Y32620271D02*
X7357175Y33128709D01*
X7870121Y33097921D02*
X7034233Y33580521D01*
X6850386Y33262087D01*
X6844228Y33159498D01*
X6861051Y33096713D01*
X6917679Y33010947D01*
X7037091Y32942004D01*
X7139680Y32935846D01*
X7202466Y32952669D01*
X7288232Y33009297D01*
X7472079Y33327730D01*
X7163869Y31966581D02*
X7249635Y32023208D01*
X7341559Y32182425D01*
X7347717Y32285014D01*
X7291090Y32370780D01*
X6972656Y32554628D01*
X6870067Y32560785D01*
X6784301Y32504158D01*
X6692377Y32344941D01*
X6686219Y32242352D01*
X6742847Y32156586D01*
X6822455Y32110624D01*
X7131873Y32462704D01*
X6462567Y31946900D02*
X6904921Y31426145D01*
X6232758Y31548858D01*
X5883094Y29840136D02*
X5945879Y29856959D01*
X6054626Y29953391D01*
X6100588Y30032999D01*
X6129726Y30175393D01*
X6096080Y30300963D01*
X6039453Y30386729D01*
X5903217Y30518457D01*
X5783804Y30587400D01*
X5601607Y30639519D01*
X5499017Y30645677D01*
X5373447Y30612031D01*
X5264700Y30515599D01*
X5218738Y30435991D01*
X5189599Y30293597D01*
X5206423Y30230812D01*
X4991786Y29399432D02*
X5549045Y29077699D01*
X4788258Y29782301D02*
X5500225Y29636607D01*
X5201473Y29119153D01*
D10*
X8493601Y41400284D02*
G75*
G02X8493600Y38860285I-1813748J-1269999D01*
G01*
X8493601Y38860285D02*
G75*
G03X5953600Y760285I28064427J-21005629D01*
G01*
X13573600Y7745285D02*
G75*
G02X19288600Y19175285I9668372J2309564D01*
G01*
X21828600Y19810285D02*
X28178600Y19810285D01*
X28178600Y19810285D02*
G75*
G02X30718600Y19175285I-162149J-6046100D01*
G01*
X25003600Y96645284D02*
G75*
G02X41513600Y41400285I-21889669J-36631251D01*
G01*
X41513600Y41400285D02*
G75*
G03X41513600Y38860285I1813748J-1270000D01*
G01*
X41513600Y38860284D02*
G75*
G02X44053600Y760285I-28064427J-21005628D01*
G01*
X44053599Y760285D02*
G75*
G02X42148600Y760285I-952499J922906D01*
G01*
X42148600Y760285D02*
G75*
G02X37068600Y5840285I27666882J32746882D01*
G01*
X37068600Y5840284D02*
G75*
G02X36433600Y7745285I1332279J1502427D01*
G01*
X36433601Y7745286D02*
G75*
G03X30718600Y19175285I-9668372J2309563D01*
G01*
X21828600Y19810285D02*
G75*
G03X19288600Y19175285I162150J-6046100D01*
G01*
X25003601Y96645286D02*
G75*
G03X8493600Y41400285I21889669J-36631253D01*
G01*
X5953601Y760285D02*
G75*
G03X7858600Y760285I952499J922906D01*
G01*
X12938600Y5840285D02*
G75*
G03X13573600Y7745285I-1332278J1502426D01*
G01*
X7858600Y760285D02*
G75*
G03X12938600Y5840285I-27666882J32746882D01*
G01*
X28350000Y59350000D02*
X28350000Y52650000D01*
X21650000Y59350000D02*
X28350000Y59350000D01*
X21650000Y52650000D02*
X21650000Y59350000D01*
X28350000Y52650000D02*
X21650000Y52650000D01*
D13*
X28000000Y53500000D02*
G75*
G03X28000000Y53500000I-500000J0D01*
G01*
D10*
X37200000Y29450000D02*
X40800000Y29450000D01*
X37200000Y24550000D02*
X37200000Y29450000D01*
X40800000Y24550000D02*
X37200000Y24550000D01*
X40800000Y29450000D02*
X40800000Y24550000D01*
D13*
X40450000Y28450000D02*
G75*
G03X40450000Y28450000I-500000J0D01*
G01*
D10*
X35000000Y79000000D02*
G75*
G03X35000000Y79000000I-10000000J0D01*
G01*
D14*
X24397936Y47910000D02*
X25602064Y47910000D01*
X24397936Y46090000D02*
X25602064Y46090000D01*
X23397936Y33910000D02*
X24602064Y33910000D01*
X23397936Y32090000D02*
X24602064Y32090000D01*
X30602064Y32090000D02*
X29397936Y32090000D01*
X30602064Y33910000D02*
X29397936Y33910000D01*
X36602064Y32090000D02*
X35397936Y32090000D01*
X36602064Y33910000D02*
X35397936Y33910000D01*
X13397936Y23910000D02*
X14602064Y23910000D01*
X13397936Y22090000D02*
X14602064Y22090000D01*
X14602064Y42090000D02*
X13397936Y42090000D01*
X14602064Y43910000D02*
X13397936Y43910000D01*
X13397936Y47910000D02*
X14602064Y47910000D01*
X13397936Y46090000D02*
X14602064Y46090000D01*
X14602064Y34090000D02*
X13397936Y34090000D01*
X14602064Y35910000D02*
X13397936Y35910000D01*
X13397936Y39910000D02*
X14602064Y39910000D01*
X13397936Y38090000D02*
X14602064Y38090000D01*
X11750000Y26000000D02*
X15650000Y26000000D01*
X11750000Y28000000D02*
X15650000Y28000000D01*
X11750000Y26000000D02*
X11750000Y28000000D01*
X11750000Y30000000D02*
X15650000Y30000000D01*
X11750000Y32000000D02*
X15650000Y32000000D01*
X11750000Y30000000D02*
X11750000Y32000000D01*
D10*
X25166666Y44822858D02*
X25214285Y44775239D01*
X25357142Y44727620D01*
X25452380Y44727620D01*
X25595238Y44775239D01*
X25690476Y44870477D01*
X25738095Y44965715D01*
X25785714Y45156191D01*
X25785714Y45299048D01*
X25738095Y45489524D01*
X25690476Y45584762D01*
X25595238Y45680000D01*
X25452380Y45727620D01*
X25357142Y45727620D01*
X25214285Y45680000D01*
X25166666Y45632381D01*
X24833333Y45727620D02*
X24214285Y45727620D01*
X24547619Y45346667D01*
X24404761Y45346667D01*
X24309523Y45299048D01*
X24261904Y45251429D01*
X24214285Y45156191D01*
X24214285Y44918096D01*
X24261904Y44822858D01*
X24309523Y44775239D01*
X24404761Y44727620D01*
X24690476Y44727620D01*
X24785714Y44775239D01*
X24833333Y44822858D01*
X24166666Y30727620D02*
X24500000Y31203810D01*
X24738095Y30727620D02*
X24738095Y31727620D01*
X24357142Y31727620D01*
X24261904Y31680000D01*
X24214285Y31632381D01*
X24166666Y31537143D01*
X24166666Y31394286D01*
X24214285Y31299048D01*
X24261904Y31251429D01*
X24357142Y31203810D01*
X24738095Y31203810D01*
X23309523Y31727620D02*
X23500000Y31727620D01*
X23595238Y31680000D01*
X23642857Y31632381D01*
X23738095Y31489524D01*
X23785714Y31299048D01*
X23785714Y30918096D01*
X23738095Y30822858D01*
X23690476Y30775239D01*
X23595238Y30727620D01*
X23404761Y30727620D01*
X23309523Y30775239D01*
X23261904Y30822858D01*
X23214285Y30918096D01*
X23214285Y31156191D01*
X23261904Y31251429D01*
X23309523Y31299048D01*
X23404761Y31346667D01*
X23595238Y31346667D01*
X23690476Y31299048D01*
X23738095Y31251429D01*
X23785714Y31156191D01*
X30166666Y30547620D02*
X30500000Y31023810D01*
X30738095Y30547620D02*
X30738095Y31547620D01*
X30357142Y31547620D01*
X30261904Y31500000D01*
X30214285Y31452381D01*
X30166666Y31357143D01*
X30166666Y31214286D01*
X30214285Y31119048D01*
X30261904Y31071429D01*
X30357142Y31023810D01*
X30738095Y31023810D01*
X29261904Y31547620D02*
X29738095Y31547620D01*
X29785714Y31071429D01*
X29738095Y31119048D01*
X29642857Y31166667D01*
X29404761Y31166667D01*
X29309523Y31119048D01*
X29261904Y31071429D01*
X29214285Y30976191D01*
X29214285Y30738096D01*
X29261904Y30642858D01*
X29309523Y30595239D01*
X29404761Y30547620D01*
X29642857Y30547620D01*
X29738095Y30595239D01*
X29785714Y30642858D01*
X36166666Y30547620D02*
X36500000Y31023810D01*
X36738095Y30547620D02*
X36738095Y31547620D01*
X36357142Y31547620D01*
X36261904Y31500000D01*
X36214285Y31452381D01*
X36166666Y31357143D01*
X36166666Y31214286D01*
X36214285Y31119048D01*
X36261904Y31071429D01*
X36357142Y31023810D01*
X36738095Y31023810D01*
X35309523Y31214286D02*
X35309523Y30547620D01*
X35547619Y31595239D02*
X35785714Y30880953D01*
X35166666Y30880953D01*
X14166666Y20647620D02*
X14500000Y21123810D01*
X14738095Y20647620D02*
X14738095Y21647620D01*
X14357142Y21647620D01*
X14261904Y21600000D01*
X14214285Y21552381D01*
X14166666Y21457143D01*
X14166666Y21314286D01*
X14214285Y21219048D01*
X14261904Y21171429D01*
X14357142Y21123810D01*
X14738095Y21123810D01*
X13833333Y21647620D02*
X13214285Y21647620D01*
X13547619Y21266667D01*
X13404761Y21266667D01*
X13309523Y21219048D01*
X13261904Y21171429D01*
X13214285Y21076191D01*
X13214285Y20838096D01*
X13261904Y20742858D01*
X13309523Y20695239D01*
X13404761Y20647620D01*
X13690476Y20647620D01*
X13785714Y20695239D01*
X13833333Y20742858D01*
X14166666Y40547620D02*
X14500000Y41023810D01*
X14738095Y40547620D02*
X14738095Y41547620D01*
X14357142Y41547620D01*
X14261904Y41500000D01*
X14214285Y41452381D01*
X14166666Y41357143D01*
X14166666Y41214286D01*
X14214285Y41119048D01*
X14261904Y41071429D01*
X14357142Y41023810D01*
X14738095Y41023810D01*
X13785714Y41452381D02*
X13738095Y41500000D01*
X13642857Y41547620D01*
X13404761Y41547620D01*
X13309523Y41500000D01*
X13261904Y41452381D01*
X13214285Y41357143D01*
X13214285Y41261905D01*
X13261904Y41119048D01*
X13833333Y40547620D01*
X13214285Y40547620D01*
X14166666Y44547620D02*
X14500000Y45023810D01*
X14738095Y44547620D02*
X14738095Y45547620D01*
X14357142Y45547620D01*
X14261904Y45500000D01*
X14214285Y45452381D01*
X14166666Y45357143D01*
X14166666Y45214286D01*
X14214285Y45119048D01*
X14261904Y45071429D01*
X14357142Y45023810D01*
X14738095Y45023810D01*
X13214285Y44547620D02*
X13785714Y44547620D01*
X13500000Y44547620D02*
X13500000Y45547620D01*
X13595238Y45404762D01*
X13690476Y45309524D01*
X13785714Y45261905D01*
X14166666Y32642858D02*
X14214285Y32595239D01*
X14357142Y32547620D01*
X14452380Y32547620D01*
X14595238Y32595239D01*
X14690476Y32690477D01*
X14738095Y32785715D01*
X14785714Y32976191D01*
X14785714Y33119048D01*
X14738095Y33309524D01*
X14690476Y33404762D01*
X14595238Y33500000D01*
X14452380Y33547620D01*
X14357142Y33547620D01*
X14214285Y33500000D01*
X14166666Y33452381D01*
X13785714Y33452381D02*
X13738095Y33500000D01*
X13642857Y33547620D01*
X13404761Y33547620D01*
X13309523Y33500000D01*
X13261904Y33452381D01*
X13214285Y33357143D01*
X13214285Y33261905D01*
X13261904Y33119048D01*
X13833333Y32547620D01*
X13214285Y32547620D01*
X14166666Y36822858D02*
X14214285Y36775239D01*
X14357142Y36727620D01*
X14452380Y36727620D01*
X14595238Y36775239D01*
X14690476Y36870477D01*
X14738095Y36965715D01*
X14785714Y37156191D01*
X14785714Y37299048D01*
X14738095Y37489524D01*
X14690476Y37584762D01*
X14595238Y37680000D01*
X14452380Y37727620D01*
X14357142Y37727620D01*
X14214285Y37680000D01*
X14166666Y37632381D01*
X13214285Y36727620D02*
X13785714Y36727620D01*
X13500000Y36727620D02*
X13500000Y37727620D01*
X13595238Y37584762D01*
X13690476Y37489524D01*
X13785714Y37441905D01*
X14738095Y24547620D02*
X14738095Y25547620D01*
X14500000Y25547620D01*
X14357142Y25500000D01*
X14261904Y25404762D01*
X14214285Y25309524D01*
X14166666Y25119048D01*
X14166666Y24976191D01*
X14214285Y24785715D01*
X14261904Y24690477D01*
X14357142Y24595239D01*
X14500000Y24547620D01*
X14738095Y24547620D01*
X13785714Y25452381D02*
X13738095Y25500000D01*
X13642857Y25547620D01*
X13404761Y25547620D01*
X13309523Y25500000D01*
X13261904Y25452381D01*
X13214285Y25357143D01*
X13214285Y25261905D01*
X13261904Y25119048D01*
X13833333Y24547620D01*
X13214285Y24547620D01*
X14738095Y28547620D02*
X14738095Y29547620D01*
X14500000Y29547620D01*
X14357142Y29500000D01*
X14261904Y29404762D01*
X14214285Y29309524D01*
X14166666Y29119048D01*
X14166666Y28976191D01*
X14214285Y28785715D01*
X14261904Y28690477D01*
X14357142Y28595239D01*
X14500000Y28547620D01*
X14738095Y28547620D01*
X13214285Y28547620D02*
X13785714Y28547620D01*
X13500000Y28547620D02*
X13500000Y29547620D01*
X13595238Y29404762D01*
X13690476Y29309524D01*
X13785714Y29261905D01*
M02*
