%TF.GenerationSoftware,KiCad,Pcbnew,5.1.0*%
%TF.CreationDate,2019-05-24T21:58:45+02:00*%
%TF.ProjectId,c4-blinkenrocket,63342d62-6c69-46e6-9b65-6e726f636b65,rev?*%
%TF.SameCoordinates,PX5f5e100PY8f0d180*%
%TF.FileFunction,Paste,Bot*%
%TF.FilePolarity,Positive*%
%FSLAX46Y46*%
G04 Gerber Fmt 4.6, Leading zero omitted, Abs format (unit mm)*
G04 Created by KiCad (PCBNEW 5.1.0) date 2019-05-24 21:58:45*
%MOMM*%
%LPD*%
G04 APERTURE LIST*
%ADD10C,0.150000*%
%ADD11C,0.440000*%
%ADD12C,0.480000*%
G04 APERTURE END LIST*
D10*
X8493601Y41400284D02*
G75*
G02X8493600Y38860285I-1813748J-1269999D01*
G01*
X8493601Y38860285D02*
G75*
G03X5953600Y760285I28064427J-21005629D01*
G01*
X13573600Y7745285D02*
G75*
G02X19288600Y19175285I9668372J2309564D01*
G01*
X21828600Y19810285D02*
X28178600Y19810285D01*
X28178600Y19810285D02*
G75*
G02X30718600Y19175285I-162149J-6046100D01*
G01*
X25003600Y96645284D02*
G75*
G02X41513600Y41400285I-21889669J-36631251D01*
G01*
X41513600Y41400285D02*
G75*
G03X41513600Y38860285I1813748J-1270000D01*
G01*
X41513600Y38860284D02*
G75*
G02X44053600Y760285I-28064427J-21005628D01*
G01*
X44053599Y760285D02*
G75*
G02X42148600Y760285I-952499J922906D01*
G01*
X42148600Y760285D02*
G75*
G02X37068600Y5840285I27666882J32746882D01*
G01*
X37068600Y5840284D02*
G75*
G02X36433600Y7745285I1332279J1502427D01*
G01*
X36433601Y7745286D02*
G75*
G03X30718600Y19175285I-9668372J2309563D01*
G01*
X21828600Y19810285D02*
G75*
G03X19288600Y19175285I162150J-6046100D01*
G01*
X25003601Y96645286D02*
G75*
G03X8493600Y41400285I21889669J-36631253D01*
G01*
X5953601Y760285D02*
G75*
G03X7858600Y760285I952499J922906D01*
G01*
X12938600Y5840285D02*
G75*
G03X13573600Y7745285I-1332278J1502426D01*
G01*
X7858600Y760285D02*
G75*
G03X12938600Y5840285I-27666882J32746882D01*
G01*
G36*
X30675938Y53419364D02*
G01*
X30688752Y53417464D01*
X30701318Y53414316D01*
X30713514Y53409952D01*
X30725224Y53404414D01*
X30736335Y53397754D01*
X30746740Y53390037D01*
X30756338Y53381338D01*
X30765037Y53371740D01*
X30772754Y53361335D01*
X30779414Y53350224D01*
X30784952Y53338514D01*
X30789316Y53326318D01*
X30792464Y53313752D01*
X30794364Y53300938D01*
X30795000Y53288000D01*
X30795000Y53112000D01*
X30794364Y53099062D01*
X30792464Y53086248D01*
X30789316Y53073682D01*
X30784952Y53061486D01*
X30779414Y53049776D01*
X30772754Y53038665D01*
X30765037Y53028260D01*
X30756338Y53018662D01*
X30746740Y53009963D01*
X30736335Y53002246D01*
X30725224Y52995586D01*
X30713514Y52990048D01*
X30701318Y52985684D01*
X30688752Y52982536D01*
X30675938Y52980636D01*
X30663000Y52980000D01*
X28887000Y52980000D01*
X28874062Y52980636D01*
X28861248Y52982536D01*
X28848682Y52985684D01*
X28836486Y52990048D01*
X28824776Y52995586D01*
X28813665Y53002246D01*
X28803260Y53009963D01*
X28793662Y53018662D01*
X28784963Y53028260D01*
X28777246Y53038665D01*
X28770586Y53049776D01*
X28765048Y53061486D01*
X28760684Y53073682D01*
X28757536Y53086248D01*
X28755636Y53099062D01*
X28755000Y53112000D01*
X28755000Y53288000D01*
X28755636Y53300938D01*
X28757536Y53313752D01*
X28760684Y53326318D01*
X28765048Y53338514D01*
X28770586Y53350224D01*
X28777246Y53361335D01*
X28784963Y53371740D01*
X28793662Y53381338D01*
X28803260Y53390037D01*
X28813665Y53397754D01*
X28824776Y53404414D01*
X28836486Y53409952D01*
X28848682Y53414316D01*
X28861248Y53417464D01*
X28874062Y53419364D01*
X28887000Y53420000D01*
X30663000Y53420000D01*
X30675938Y53419364D01*
X30675938Y53419364D01*
G37*
D11*
X29775000Y53200000D03*
D10*
G36*
X21125938Y59019364D02*
G01*
X21138752Y59017464D01*
X21151318Y59014316D01*
X21163514Y59009952D01*
X21175224Y59004414D01*
X21186335Y58997754D01*
X21196740Y58990037D01*
X21206338Y58981338D01*
X21215037Y58971740D01*
X21222754Y58961335D01*
X21229414Y58950224D01*
X21234952Y58938514D01*
X21239316Y58926318D01*
X21242464Y58913752D01*
X21244364Y58900938D01*
X21245000Y58888000D01*
X21245000Y58712000D01*
X21244364Y58699062D01*
X21242464Y58686248D01*
X21239316Y58673682D01*
X21234952Y58661486D01*
X21229414Y58649776D01*
X21222754Y58638665D01*
X21215037Y58628260D01*
X21206338Y58618662D01*
X21196740Y58609963D01*
X21186335Y58602246D01*
X21175224Y58595586D01*
X21163514Y58590048D01*
X21151318Y58585684D01*
X21138752Y58582536D01*
X21125938Y58580636D01*
X21113000Y58580000D01*
X19337000Y58580000D01*
X19324062Y58580636D01*
X19311248Y58582536D01*
X19298682Y58585684D01*
X19286486Y58590048D01*
X19274776Y58595586D01*
X19263665Y58602246D01*
X19253260Y58609963D01*
X19243662Y58618662D01*
X19234963Y58628260D01*
X19227246Y58638665D01*
X19220586Y58649776D01*
X19215048Y58661486D01*
X19210684Y58673682D01*
X19207536Y58686248D01*
X19205636Y58699062D01*
X19205000Y58712000D01*
X19205000Y58888000D01*
X19205636Y58900938D01*
X19207536Y58913752D01*
X19210684Y58926318D01*
X19215048Y58938514D01*
X19220586Y58950224D01*
X19227246Y58961335D01*
X19234963Y58971740D01*
X19243662Y58981338D01*
X19253260Y58990037D01*
X19263665Y58997754D01*
X19274776Y59004414D01*
X19286486Y59009952D01*
X19298682Y59014316D01*
X19311248Y59017464D01*
X19324062Y59019364D01*
X19337000Y59020000D01*
X21113000Y59020000D01*
X21125938Y59019364D01*
X21125938Y59019364D01*
G37*
D11*
X20225000Y58800000D03*
D10*
G36*
X27900938Y61794364D02*
G01*
X27913752Y61792464D01*
X27926318Y61789316D01*
X27938514Y61784952D01*
X27950224Y61779414D01*
X27961335Y61772754D01*
X27971740Y61765037D01*
X27981338Y61756338D01*
X27990037Y61746740D01*
X27997754Y61736335D01*
X28004414Y61725224D01*
X28009952Y61713514D01*
X28014316Y61701318D01*
X28017464Y61688752D01*
X28019364Y61675938D01*
X28020000Y61663000D01*
X28020000Y59887000D01*
X28019364Y59874062D01*
X28017464Y59861248D01*
X28014316Y59848682D01*
X28009952Y59836486D01*
X28004414Y59824776D01*
X27997754Y59813665D01*
X27990037Y59803260D01*
X27981338Y59793662D01*
X27971740Y59784963D01*
X27961335Y59777246D01*
X27950224Y59770586D01*
X27938514Y59765048D01*
X27926318Y59760684D01*
X27913752Y59757536D01*
X27900938Y59755636D01*
X27888000Y59755000D01*
X27712000Y59755000D01*
X27699062Y59755636D01*
X27686248Y59757536D01*
X27673682Y59760684D01*
X27661486Y59765048D01*
X27649776Y59770586D01*
X27638665Y59777246D01*
X27628260Y59784963D01*
X27618662Y59793662D01*
X27609963Y59803260D01*
X27602246Y59813665D01*
X27595586Y59824776D01*
X27590048Y59836486D01*
X27585684Y59848682D01*
X27582536Y59861248D01*
X27580636Y59874062D01*
X27580000Y59887000D01*
X27580000Y61663000D01*
X27580636Y61675938D01*
X27582536Y61688752D01*
X27585684Y61701318D01*
X27590048Y61713514D01*
X27595586Y61725224D01*
X27602246Y61736335D01*
X27609963Y61746740D01*
X27618662Y61756338D01*
X27628260Y61765037D01*
X27638665Y61772754D01*
X27649776Y61779414D01*
X27661486Y61784952D01*
X27673682Y61789316D01*
X27686248Y61792464D01*
X27699062Y61794364D01*
X27712000Y61795000D01*
X27888000Y61795000D01*
X27900938Y61794364D01*
X27900938Y61794364D01*
G37*
D11*
X27800000Y60775000D03*
D10*
G36*
X22300938Y52244364D02*
G01*
X22313752Y52242464D01*
X22326318Y52239316D01*
X22338514Y52234952D01*
X22350224Y52229414D01*
X22361335Y52222754D01*
X22371740Y52215037D01*
X22381338Y52206338D01*
X22390037Y52196740D01*
X22397754Y52186335D01*
X22404414Y52175224D01*
X22409952Y52163514D01*
X22414316Y52151318D01*
X22417464Y52138752D01*
X22419364Y52125938D01*
X22420000Y52113000D01*
X22420000Y50337000D01*
X22419364Y50324062D01*
X22417464Y50311248D01*
X22414316Y50298682D01*
X22409952Y50286486D01*
X22404414Y50274776D01*
X22397754Y50263665D01*
X22390037Y50253260D01*
X22381338Y50243662D01*
X22371740Y50234963D01*
X22361335Y50227246D01*
X22350224Y50220586D01*
X22338514Y50215048D01*
X22326318Y50210684D01*
X22313752Y50207536D01*
X22300938Y50205636D01*
X22288000Y50205000D01*
X22112000Y50205000D01*
X22099062Y50205636D01*
X22086248Y50207536D01*
X22073682Y50210684D01*
X22061486Y50215048D01*
X22049776Y50220586D01*
X22038665Y50227246D01*
X22028260Y50234963D01*
X22018662Y50243662D01*
X22009963Y50253260D01*
X22002246Y50263665D01*
X21995586Y50274776D01*
X21990048Y50286486D01*
X21985684Y50298682D01*
X21982536Y50311248D01*
X21980636Y50324062D01*
X21980000Y50337000D01*
X21980000Y52113000D01*
X21980636Y52125938D01*
X21982536Y52138752D01*
X21985684Y52151318D01*
X21990048Y52163514D01*
X21995586Y52175224D01*
X22002246Y52186335D01*
X22009963Y52196740D01*
X22018662Y52206338D01*
X22028260Y52215037D01*
X22038665Y52222754D01*
X22049776Y52229414D01*
X22061486Y52234952D01*
X22073682Y52239316D01*
X22086248Y52242464D01*
X22099062Y52244364D01*
X22112000Y52245000D01*
X22288000Y52245000D01*
X22300938Y52244364D01*
X22300938Y52244364D01*
G37*
D11*
X22200000Y51225000D03*
D10*
G36*
X30675938Y54219364D02*
G01*
X30688752Y54217464D01*
X30701318Y54214316D01*
X30713514Y54209952D01*
X30725224Y54204414D01*
X30736335Y54197754D01*
X30746740Y54190037D01*
X30756338Y54181338D01*
X30765037Y54171740D01*
X30772754Y54161335D01*
X30779414Y54150224D01*
X30784952Y54138514D01*
X30789316Y54126318D01*
X30792464Y54113752D01*
X30794364Y54100938D01*
X30795000Y54088000D01*
X30795000Y53912000D01*
X30794364Y53899062D01*
X30792464Y53886248D01*
X30789316Y53873682D01*
X30784952Y53861486D01*
X30779414Y53849776D01*
X30772754Y53838665D01*
X30765037Y53828260D01*
X30756338Y53818662D01*
X30746740Y53809963D01*
X30736335Y53802246D01*
X30725224Y53795586D01*
X30713514Y53790048D01*
X30701318Y53785684D01*
X30688752Y53782536D01*
X30675938Y53780636D01*
X30663000Y53780000D01*
X28887000Y53780000D01*
X28874062Y53780636D01*
X28861248Y53782536D01*
X28848682Y53785684D01*
X28836486Y53790048D01*
X28824776Y53795586D01*
X28813665Y53802246D01*
X28803260Y53809963D01*
X28793662Y53818662D01*
X28784963Y53828260D01*
X28777246Y53838665D01*
X28770586Y53849776D01*
X28765048Y53861486D01*
X28760684Y53873682D01*
X28757536Y53886248D01*
X28755636Y53899062D01*
X28755000Y53912000D01*
X28755000Y54088000D01*
X28755636Y54100938D01*
X28757536Y54113752D01*
X28760684Y54126318D01*
X28765048Y54138514D01*
X28770586Y54150224D01*
X28777246Y54161335D01*
X28784963Y54171740D01*
X28793662Y54181338D01*
X28803260Y54190037D01*
X28813665Y54197754D01*
X28824776Y54204414D01*
X28836486Y54209952D01*
X28848682Y54214316D01*
X28861248Y54217464D01*
X28874062Y54219364D01*
X28887000Y54220000D01*
X30663000Y54220000D01*
X30675938Y54219364D01*
X30675938Y54219364D01*
G37*
D11*
X29775000Y54000000D03*
D10*
G36*
X21125938Y58219364D02*
G01*
X21138752Y58217464D01*
X21151318Y58214316D01*
X21163514Y58209952D01*
X21175224Y58204414D01*
X21186335Y58197754D01*
X21196740Y58190037D01*
X21206338Y58181338D01*
X21215037Y58171740D01*
X21222754Y58161335D01*
X21229414Y58150224D01*
X21234952Y58138514D01*
X21239316Y58126318D01*
X21242464Y58113752D01*
X21244364Y58100938D01*
X21245000Y58088000D01*
X21245000Y57912000D01*
X21244364Y57899062D01*
X21242464Y57886248D01*
X21239316Y57873682D01*
X21234952Y57861486D01*
X21229414Y57849776D01*
X21222754Y57838665D01*
X21215037Y57828260D01*
X21206338Y57818662D01*
X21196740Y57809963D01*
X21186335Y57802246D01*
X21175224Y57795586D01*
X21163514Y57790048D01*
X21151318Y57785684D01*
X21138752Y57782536D01*
X21125938Y57780636D01*
X21113000Y57780000D01*
X19337000Y57780000D01*
X19324062Y57780636D01*
X19311248Y57782536D01*
X19298682Y57785684D01*
X19286486Y57790048D01*
X19274776Y57795586D01*
X19263665Y57802246D01*
X19253260Y57809963D01*
X19243662Y57818662D01*
X19234963Y57828260D01*
X19227246Y57838665D01*
X19220586Y57849776D01*
X19215048Y57861486D01*
X19210684Y57873682D01*
X19207536Y57886248D01*
X19205636Y57899062D01*
X19205000Y57912000D01*
X19205000Y58088000D01*
X19205636Y58100938D01*
X19207536Y58113752D01*
X19210684Y58126318D01*
X19215048Y58138514D01*
X19220586Y58150224D01*
X19227246Y58161335D01*
X19234963Y58171740D01*
X19243662Y58181338D01*
X19253260Y58190037D01*
X19263665Y58197754D01*
X19274776Y58204414D01*
X19286486Y58209952D01*
X19298682Y58214316D01*
X19311248Y58217464D01*
X19324062Y58219364D01*
X19337000Y58220000D01*
X21113000Y58220000D01*
X21125938Y58219364D01*
X21125938Y58219364D01*
G37*
D11*
X20225000Y58000000D03*
D10*
G36*
X27100938Y61794364D02*
G01*
X27113752Y61792464D01*
X27126318Y61789316D01*
X27138514Y61784952D01*
X27150224Y61779414D01*
X27161335Y61772754D01*
X27171740Y61765037D01*
X27181338Y61756338D01*
X27190037Y61746740D01*
X27197754Y61736335D01*
X27204414Y61725224D01*
X27209952Y61713514D01*
X27214316Y61701318D01*
X27217464Y61688752D01*
X27219364Y61675938D01*
X27220000Y61663000D01*
X27220000Y59887000D01*
X27219364Y59874062D01*
X27217464Y59861248D01*
X27214316Y59848682D01*
X27209952Y59836486D01*
X27204414Y59824776D01*
X27197754Y59813665D01*
X27190037Y59803260D01*
X27181338Y59793662D01*
X27171740Y59784963D01*
X27161335Y59777246D01*
X27150224Y59770586D01*
X27138514Y59765048D01*
X27126318Y59760684D01*
X27113752Y59757536D01*
X27100938Y59755636D01*
X27088000Y59755000D01*
X26912000Y59755000D01*
X26899062Y59755636D01*
X26886248Y59757536D01*
X26873682Y59760684D01*
X26861486Y59765048D01*
X26849776Y59770586D01*
X26838665Y59777246D01*
X26828260Y59784963D01*
X26818662Y59793662D01*
X26809963Y59803260D01*
X26802246Y59813665D01*
X26795586Y59824776D01*
X26790048Y59836486D01*
X26785684Y59848682D01*
X26782536Y59861248D01*
X26780636Y59874062D01*
X26780000Y59887000D01*
X26780000Y61663000D01*
X26780636Y61675938D01*
X26782536Y61688752D01*
X26785684Y61701318D01*
X26790048Y61713514D01*
X26795586Y61725224D01*
X26802246Y61736335D01*
X26809963Y61746740D01*
X26818662Y61756338D01*
X26828260Y61765037D01*
X26838665Y61772754D01*
X26849776Y61779414D01*
X26861486Y61784952D01*
X26873682Y61789316D01*
X26886248Y61792464D01*
X26899062Y61794364D01*
X26912000Y61795000D01*
X27088000Y61795000D01*
X27100938Y61794364D01*
X27100938Y61794364D01*
G37*
D11*
X27000000Y60775000D03*
D10*
G36*
X23100938Y52244364D02*
G01*
X23113752Y52242464D01*
X23126318Y52239316D01*
X23138514Y52234952D01*
X23150224Y52229414D01*
X23161335Y52222754D01*
X23171740Y52215037D01*
X23181338Y52206338D01*
X23190037Y52196740D01*
X23197754Y52186335D01*
X23204414Y52175224D01*
X23209952Y52163514D01*
X23214316Y52151318D01*
X23217464Y52138752D01*
X23219364Y52125938D01*
X23220000Y52113000D01*
X23220000Y50337000D01*
X23219364Y50324062D01*
X23217464Y50311248D01*
X23214316Y50298682D01*
X23209952Y50286486D01*
X23204414Y50274776D01*
X23197754Y50263665D01*
X23190037Y50253260D01*
X23181338Y50243662D01*
X23171740Y50234963D01*
X23161335Y50227246D01*
X23150224Y50220586D01*
X23138514Y50215048D01*
X23126318Y50210684D01*
X23113752Y50207536D01*
X23100938Y50205636D01*
X23088000Y50205000D01*
X22912000Y50205000D01*
X22899062Y50205636D01*
X22886248Y50207536D01*
X22873682Y50210684D01*
X22861486Y50215048D01*
X22849776Y50220586D01*
X22838665Y50227246D01*
X22828260Y50234963D01*
X22818662Y50243662D01*
X22809963Y50253260D01*
X22802246Y50263665D01*
X22795586Y50274776D01*
X22790048Y50286486D01*
X22785684Y50298682D01*
X22782536Y50311248D01*
X22780636Y50324062D01*
X22780000Y50337000D01*
X22780000Y52113000D01*
X22780636Y52125938D01*
X22782536Y52138752D01*
X22785684Y52151318D01*
X22790048Y52163514D01*
X22795586Y52175224D01*
X22802246Y52186335D01*
X22809963Y52196740D01*
X22818662Y52206338D01*
X22828260Y52215037D01*
X22838665Y52222754D01*
X22849776Y52229414D01*
X22861486Y52234952D01*
X22873682Y52239316D01*
X22886248Y52242464D01*
X22899062Y52244364D01*
X22912000Y52245000D01*
X23088000Y52245000D01*
X23100938Y52244364D01*
X23100938Y52244364D01*
G37*
D11*
X23000000Y51225000D03*
D10*
G36*
X30675938Y55019364D02*
G01*
X30688752Y55017464D01*
X30701318Y55014316D01*
X30713514Y55009952D01*
X30725224Y55004414D01*
X30736335Y54997754D01*
X30746740Y54990037D01*
X30756338Y54981338D01*
X30765037Y54971740D01*
X30772754Y54961335D01*
X30779414Y54950224D01*
X30784952Y54938514D01*
X30789316Y54926318D01*
X30792464Y54913752D01*
X30794364Y54900938D01*
X30795000Y54888000D01*
X30795000Y54712000D01*
X30794364Y54699062D01*
X30792464Y54686248D01*
X30789316Y54673682D01*
X30784952Y54661486D01*
X30779414Y54649776D01*
X30772754Y54638665D01*
X30765037Y54628260D01*
X30756338Y54618662D01*
X30746740Y54609963D01*
X30736335Y54602246D01*
X30725224Y54595586D01*
X30713514Y54590048D01*
X30701318Y54585684D01*
X30688752Y54582536D01*
X30675938Y54580636D01*
X30663000Y54580000D01*
X28887000Y54580000D01*
X28874062Y54580636D01*
X28861248Y54582536D01*
X28848682Y54585684D01*
X28836486Y54590048D01*
X28824776Y54595586D01*
X28813665Y54602246D01*
X28803260Y54609963D01*
X28793662Y54618662D01*
X28784963Y54628260D01*
X28777246Y54638665D01*
X28770586Y54649776D01*
X28765048Y54661486D01*
X28760684Y54673682D01*
X28757536Y54686248D01*
X28755636Y54699062D01*
X28755000Y54712000D01*
X28755000Y54888000D01*
X28755636Y54900938D01*
X28757536Y54913752D01*
X28760684Y54926318D01*
X28765048Y54938514D01*
X28770586Y54950224D01*
X28777246Y54961335D01*
X28784963Y54971740D01*
X28793662Y54981338D01*
X28803260Y54990037D01*
X28813665Y54997754D01*
X28824776Y55004414D01*
X28836486Y55009952D01*
X28848682Y55014316D01*
X28861248Y55017464D01*
X28874062Y55019364D01*
X28887000Y55020000D01*
X30663000Y55020000D01*
X30675938Y55019364D01*
X30675938Y55019364D01*
G37*
D11*
X29775000Y54800000D03*
D10*
G36*
X21125938Y57419364D02*
G01*
X21138752Y57417464D01*
X21151318Y57414316D01*
X21163514Y57409952D01*
X21175224Y57404414D01*
X21186335Y57397754D01*
X21196740Y57390037D01*
X21206338Y57381338D01*
X21215037Y57371740D01*
X21222754Y57361335D01*
X21229414Y57350224D01*
X21234952Y57338514D01*
X21239316Y57326318D01*
X21242464Y57313752D01*
X21244364Y57300938D01*
X21245000Y57288000D01*
X21245000Y57112000D01*
X21244364Y57099062D01*
X21242464Y57086248D01*
X21239316Y57073682D01*
X21234952Y57061486D01*
X21229414Y57049776D01*
X21222754Y57038665D01*
X21215037Y57028260D01*
X21206338Y57018662D01*
X21196740Y57009963D01*
X21186335Y57002246D01*
X21175224Y56995586D01*
X21163514Y56990048D01*
X21151318Y56985684D01*
X21138752Y56982536D01*
X21125938Y56980636D01*
X21113000Y56980000D01*
X19337000Y56980000D01*
X19324062Y56980636D01*
X19311248Y56982536D01*
X19298682Y56985684D01*
X19286486Y56990048D01*
X19274776Y56995586D01*
X19263665Y57002246D01*
X19253260Y57009963D01*
X19243662Y57018662D01*
X19234963Y57028260D01*
X19227246Y57038665D01*
X19220586Y57049776D01*
X19215048Y57061486D01*
X19210684Y57073682D01*
X19207536Y57086248D01*
X19205636Y57099062D01*
X19205000Y57112000D01*
X19205000Y57288000D01*
X19205636Y57300938D01*
X19207536Y57313752D01*
X19210684Y57326318D01*
X19215048Y57338514D01*
X19220586Y57350224D01*
X19227246Y57361335D01*
X19234963Y57371740D01*
X19243662Y57381338D01*
X19253260Y57390037D01*
X19263665Y57397754D01*
X19274776Y57404414D01*
X19286486Y57409952D01*
X19298682Y57414316D01*
X19311248Y57417464D01*
X19324062Y57419364D01*
X19337000Y57420000D01*
X21113000Y57420000D01*
X21125938Y57419364D01*
X21125938Y57419364D01*
G37*
D11*
X20225000Y57200000D03*
D10*
G36*
X26300938Y61794364D02*
G01*
X26313752Y61792464D01*
X26326318Y61789316D01*
X26338514Y61784952D01*
X26350224Y61779414D01*
X26361335Y61772754D01*
X26371740Y61765037D01*
X26381338Y61756338D01*
X26390037Y61746740D01*
X26397754Y61736335D01*
X26404414Y61725224D01*
X26409952Y61713514D01*
X26414316Y61701318D01*
X26417464Y61688752D01*
X26419364Y61675938D01*
X26420000Y61663000D01*
X26420000Y59887000D01*
X26419364Y59874062D01*
X26417464Y59861248D01*
X26414316Y59848682D01*
X26409952Y59836486D01*
X26404414Y59824776D01*
X26397754Y59813665D01*
X26390037Y59803260D01*
X26381338Y59793662D01*
X26371740Y59784963D01*
X26361335Y59777246D01*
X26350224Y59770586D01*
X26338514Y59765048D01*
X26326318Y59760684D01*
X26313752Y59757536D01*
X26300938Y59755636D01*
X26288000Y59755000D01*
X26112000Y59755000D01*
X26099062Y59755636D01*
X26086248Y59757536D01*
X26073682Y59760684D01*
X26061486Y59765048D01*
X26049776Y59770586D01*
X26038665Y59777246D01*
X26028260Y59784963D01*
X26018662Y59793662D01*
X26009963Y59803260D01*
X26002246Y59813665D01*
X25995586Y59824776D01*
X25990048Y59836486D01*
X25985684Y59848682D01*
X25982536Y59861248D01*
X25980636Y59874062D01*
X25980000Y59887000D01*
X25980000Y61663000D01*
X25980636Y61675938D01*
X25982536Y61688752D01*
X25985684Y61701318D01*
X25990048Y61713514D01*
X25995586Y61725224D01*
X26002246Y61736335D01*
X26009963Y61746740D01*
X26018662Y61756338D01*
X26028260Y61765037D01*
X26038665Y61772754D01*
X26049776Y61779414D01*
X26061486Y61784952D01*
X26073682Y61789316D01*
X26086248Y61792464D01*
X26099062Y61794364D01*
X26112000Y61795000D01*
X26288000Y61795000D01*
X26300938Y61794364D01*
X26300938Y61794364D01*
G37*
D11*
X26200000Y60775000D03*
D10*
G36*
X23900938Y52244364D02*
G01*
X23913752Y52242464D01*
X23926318Y52239316D01*
X23938514Y52234952D01*
X23950224Y52229414D01*
X23961335Y52222754D01*
X23971740Y52215037D01*
X23981338Y52206338D01*
X23990037Y52196740D01*
X23997754Y52186335D01*
X24004414Y52175224D01*
X24009952Y52163514D01*
X24014316Y52151318D01*
X24017464Y52138752D01*
X24019364Y52125938D01*
X24020000Y52113000D01*
X24020000Y50337000D01*
X24019364Y50324062D01*
X24017464Y50311248D01*
X24014316Y50298682D01*
X24009952Y50286486D01*
X24004414Y50274776D01*
X23997754Y50263665D01*
X23990037Y50253260D01*
X23981338Y50243662D01*
X23971740Y50234963D01*
X23961335Y50227246D01*
X23950224Y50220586D01*
X23938514Y50215048D01*
X23926318Y50210684D01*
X23913752Y50207536D01*
X23900938Y50205636D01*
X23888000Y50205000D01*
X23712000Y50205000D01*
X23699062Y50205636D01*
X23686248Y50207536D01*
X23673682Y50210684D01*
X23661486Y50215048D01*
X23649776Y50220586D01*
X23638665Y50227246D01*
X23628260Y50234963D01*
X23618662Y50243662D01*
X23609963Y50253260D01*
X23602246Y50263665D01*
X23595586Y50274776D01*
X23590048Y50286486D01*
X23585684Y50298682D01*
X23582536Y50311248D01*
X23580636Y50324062D01*
X23580000Y50337000D01*
X23580000Y52113000D01*
X23580636Y52125938D01*
X23582536Y52138752D01*
X23585684Y52151318D01*
X23590048Y52163514D01*
X23595586Y52175224D01*
X23602246Y52186335D01*
X23609963Y52196740D01*
X23618662Y52206338D01*
X23628260Y52215037D01*
X23638665Y52222754D01*
X23649776Y52229414D01*
X23661486Y52234952D01*
X23673682Y52239316D01*
X23686248Y52242464D01*
X23699062Y52244364D01*
X23712000Y52245000D01*
X23888000Y52245000D01*
X23900938Y52244364D01*
X23900938Y52244364D01*
G37*
D11*
X23800000Y51225000D03*
D10*
G36*
X30675938Y55819364D02*
G01*
X30688752Y55817464D01*
X30701318Y55814316D01*
X30713514Y55809952D01*
X30725224Y55804414D01*
X30736335Y55797754D01*
X30746740Y55790037D01*
X30756338Y55781338D01*
X30765037Y55771740D01*
X30772754Y55761335D01*
X30779414Y55750224D01*
X30784952Y55738514D01*
X30789316Y55726318D01*
X30792464Y55713752D01*
X30794364Y55700938D01*
X30795000Y55688000D01*
X30795000Y55512000D01*
X30794364Y55499062D01*
X30792464Y55486248D01*
X30789316Y55473682D01*
X30784952Y55461486D01*
X30779414Y55449776D01*
X30772754Y55438665D01*
X30765037Y55428260D01*
X30756338Y55418662D01*
X30746740Y55409963D01*
X30736335Y55402246D01*
X30725224Y55395586D01*
X30713514Y55390048D01*
X30701318Y55385684D01*
X30688752Y55382536D01*
X30675938Y55380636D01*
X30663000Y55380000D01*
X28887000Y55380000D01*
X28874062Y55380636D01*
X28861248Y55382536D01*
X28848682Y55385684D01*
X28836486Y55390048D01*
X28824776Y55395586D01*
X28813665Y55402246D01*
X28803260Y55409963D01*
X28793662Y55418662D01*
X28784963Y55428260D01*
X28777246Y55438665D01*
X28770586Y55449776D01*
X28765048Y55461486D01*
X28760684Y55473682D01*
X28757536Y55486248D01*
X28755636Y55499062D01*
X28755000Y55512000D01*
X28755000Y55688000D01*
X28755636Y55700938D01*
X28757536Y55713752D01*
X28760684Y55726318D01*
X28765048Y55738514D01*
X28770586Y55750224D01*
X28777246Y55761335D01*
X28784963Y55771740D01*
X28793662Y55781338D01*
X28803260Y55790037D01*
X28813665Y55797754D01*
X28824776Y55804414D01*
X28836486Y55809952D01*
X28848682Y55814316D01*
X28861248Y55817464D01*
X28874062Y55819364D01*
X28887000Y55820000D01*
X30663000Y55820000D01*
X30675938Y55819364D01*
X30675938Y55819364D01*
G37*
D11*
X29775000Y55600000D03*
D10*
G36*
X21125938Y56619364D02*
G01*
X21138752Y56617464D01*
X21151318Y56614316D01*
X21163514Y56609952D01*
X21175224Y56604414D01*
X21186335Y56597754D01*
X21196740Y56590037D01*
X21206338Y56581338D01*
X21215037Y56571740D01*
X21222754Y56561335D01*
X21229414Y56550224D01*
X21234952Y56538514D01*
X21239316Y56526318D01*
X21242464Y56513752D01*
X21244364Y56500938D01*
X21245000Y56488000D01*
X21245000Y56312000D01*
X21244364Y56299062D01*
X21242464Y56286248D01*
X21239316Y56273682D01*
X21234952Y56261486D01*
X21229414Y56249776D01*
X21222754Y56238665D01*
X21215037Y56228260D01*
X21206338Y56218662D01*
X21196740Y56209963D01*
X21186335Y56202246D01*
X21175224Y56195586D01*
X21163514Y56190048D01*
X21151318Y56185684D01*
X21138752Y56182536D01*
X21125938Y56180636D01*
X21113000Y56180000D01*
X19337000Y56180000D01*
X19324062Y56180636D01*
X19311248Y56182536D01*
X19298682Y56185684D01*
X19286486Y56190048D01*
X19274776Y56195586D01*
X19263665Y56202246D01*
X19253260Y56209963D01*
X19243662Y56218662D01*
X19234963Y56228260D01*
X19227246Y56238665D01*
X19220586Y56249776D01*
X19215048Y56261486D01*
X19210684Y56273682D01*
X19207536Y56286248D01*
X19205636Y56299062D01*
X19205000Y56312000D01*
X19205000Y56488000D01*
X19205636Y56500938D01*
X19207536Y56513752D01*
X19210684Y56526318D01*
X19215048Y56538514D01*
X19220586Y56550224D01*
X19227246Y56561335D01*
X19234963Y56571740D01*
X19243662Y56581338D01*
X19253260Y56590037D01*
X19263665Y56597754D01*
X19274776Y56604414D01*
X19286486Y56609952D01*
X19298682Y56614316D01*
X19311248Y56617464D01*
X19324062Y56619364D01*
X19337000Y56620000D01*
X21113000Y56620000D01*
X21125938Y56619364D01*
X21125938Y56619364D01*
G37*
D11*
X20225000Y56400000D03*
D10*
G36*
X25500938Y61794364D02*
G01*
X25513752Y61792464D01*
X25526318Y61789316D01*
X25538514Y61784952D01*
X25550224Y61779414D01*
X25561335Y61772754D01*
X25571740Y61765037D01*
X25581338Y61756338D01*
X25590037Y61746740D01*
X25597754Y61736335D01*
X25604414Y61725224D01*
X25609952Y61713514D01*
X25614316Y61701318D01*
X25617464Y61688752D01*
X25619364Y61675938D01*
X25620000Y61663000D01*
X25620000Y59887000D01*
X25619364Y59874062D01*
X25617464Y59861248D01*
X25614316Y59848682D01*
X25609952Y59836486D01*
X25604414Y59824776D01*
X25597754Y59813665D01*
X25590037Y59803260D01*
X25581338Y59793662D01*
X25571740Y59784963D01*
X25561335Y59777246D01*
X25550224Y59770586D01*
X25538514Y59765048D01*
X25526318Y59760684D01*
X25513752Y59757536D01*
X25500938Y59755636D01*
X25488000Y59755000D01*
X25312000Y59755000D01*
X25299062Y59755636D01*
X25286248Y59757536D01*
X25273682Y59760684D01*
X25261486Y59765048D01*
X25249776Y59770586D01*
X25238665Y59777246D01*
X25228260Y59784963D01*
X25218662Y59793662D01*
X25209963Y59803260D01*
X25202246Y59813665D01*
X25195586Y59824776D01*
X25190048Y59836486D01*
X25185684Y59848682D01*
X25182536Y59861248D01*
X25180636Y59874062D01*
X25180000Y59887000D01*
X25180000Y61663000D01*
X25180636Y61675938D01*
X25182536Y61688752D01*
X25185684Y61701318D01*
X25190048Y61713514D01*
X25195586Y61725224D01*
X25202246Y61736335D01*
X25209963Y61746740D01*
X25218662Y61756338D01*
X25228260Y61765037D01*
X25238665Y61772754D01*
X25249776Y61779414D01*
X25261486Y61784952D01*
X25273682Y61789316D01*
X25286248Y61792464D01*
X25299062Y61794364D01*
X25312000Y61795000D01*
X25488000Y61795000D01*
X25500938Y61794364D01*
X25500938Y61794364D01*
G37*
D11*
X25400000Y60775000D03*
D10*
G36*
X24700938Y52244364D02*
G01*
X24713752Y52242464D01*
X24726318Y52239316D01*
X24738514Y52234952D01*
X24750224Y52229414D01*
X24761335Y52222754D01*
X24771740Y52215037D01*
X24781338Y52206338D01*
X24790037Y52196740D01*
X24797754Y52186335D01*
X24804414Y52175224D01*
X24809952Y52163514D01*
X24814316Y52151318D01*
X24817464Y52138752D01*
X24819364Y52125938D01*
X24820000Y52113000D01*
X24820000Y50337000D01*
X24819364Y50324062D01*
X24817464Y50311248D01*
X24814316Y50298682D01*
X24809952Y50286486D01*
X24804414Y50274776D01*
X24797754Y50263665D01*
X24790037Y50253260D01*
X24781338Y50243662D01*
X24771740Y50234963D01*
X24761335Y50227246D01*
X24750224Y50220586D01*
X24738514Y50215048D01*
X24726318Y50210684D01*
X24713752Y50207536D01*
X24700938Y50205636D01*
X24688000Y50205000D01*
X24512000Y50205000D01*
X24499062Y50205636D01*
X24486248Y50207536D01*
X24473682Y50210684D01*
X24461486Y50215048D01*
X24449776Y50220586D01*
X24438665Y50227246D01*
X24428260Y50234963D01*
X24418662Y50243662D01*
X24409963Y50253260D01*
X24402246Y50263665D01*
X24395586Y50274776D01*
X24390048Y50286486D01*
X24385684Y50298682D01*
X24382536Y50311248D01*
X24380636Y50324062D01*
X24380000Y50337000D01*
X24380000Y52113000D01*
X24380636Y52125938D01*
X24382536Y52138752D01*
X24385684Y52151318D01*
X24390048Y52163514D01*
X24395586Y52175224D01*
X24402246Y52186335D01*
X24409963Y52196740D01*
X24418662Y52206338D01*
X24428260Y52215037D01*
X24438665Y52222754D01*
X24449776Y52229414D01*
X24461486Y52234952D01*
X24473682Y52239316D01*
X24486248Y52242464D01*
X24499062Y52244364D01*
X24512000Y52245000D01*
X24688000Y52245000D01*
X24700938Y52244364D01*
X24700938Y52244364D01*
G37*
D11*
X24600000Y51225000D03*
D10*
G36*
X30675938Y56619364D02*
G01*
X30688752Y56617464D01*
X30701318Y56614316D01*
X30713514Y56609952D01*
X30725224Y56604414D01*
X30736335Y56597754D01*
X30746740Y56590037D01*
X30756338Y56581338D01*
X30765037Y56571740D01*
X30772754Y56561335D01*
X30779414Y56550224D01*
X30784952Y56538514D01*
X30789316Y56526318D01*
X30792464Y56513752D01*
X30794364Y56500938D01*
X30795000Y56488000D01*
X30795000Y56312000D01*
X30794364Y56299062D01*
X30792464Y56286248D01*
X30789316Y56273682D01*
X30784952Y56261486D01*
X30779414Y56249776D01*
X30772754Y56238665D01*
X30765037Y56228260D01*
X30756338Y56218662D01*
X30746740Y56209963D01*
X30736335Y56202246D01*
X30725224Y56195586D01*
X30713514Y56190048D01*
X30701318Y56185684D01*
X30688752Y56182536D01*
X30675938Y56180636D01*
X30663000Y56180000D01*
X28887000Y56180000D01*
X28874062Y56180636D01*
X28861248Y56182536D01*
X28848682Y56185684D01*
X28836486Y56190048D01*
X28824776Y56195586D01*
X28813665Y56202246D01*
X28803260Y56209963D01*
X28793662Y56218662D01*
X28784963Y56228260D01*
X28777246Y56238665D01*
X28770586Y56249776D01*
X28765048Y56261486D01*
X28760684Y56273682D01*
X28757536Y56286248D01*
X28755636Y56299062D01*
X28755000Y56312000D01*
X28755000Y56488000D01*
X28755636Y56500938D01*
X28757536Y56513752D01*
X28760684Y56526318D01*
X28765048Y56538514D01*
X28770586Y56550224D01*
X28777246Y56561335D01*
X28784963Y56571740D01*
X28793662Y56581338D01*
X28803260Y56590037D01*
X28813665Y56597754D01*
X28824776Y56604414D01*
X28836486Y56609952D01*
X28848682Y56614316D01*
X28861248Y56617464D01*
X28874062Y56619364D01*
X28887000Y56620000D01*
X30663000Y56620000D01*
X30675938Y56619364D01*
X30675938Y56619364D01*
G37*
D11*
X29775000Y56400000D03*
D10*
G36*
X21125938Y55819364D02*
G01*
X21138752Y55817464D01*
X21151318Y55814316D01*
X21163514Y55809952D01*
X21175224Y55804414D01*
X21186335Y55797754D01*
X21196740Y55790037D01*
X21206338Y55781338D01*
X21215037Y55771740D01*
X21222754Y55761335D01*
X21229414Y55750224D01*
X21234952Y55738514D01*
X21239316Y55726318D01*
X21242464Y55713752D01*
X21244364Y55700938D01*
X21245000Y55688000D01*
X21245000Y55512000D01*
X21244364Y55499062D01*
X21242464Y55486248D01*
X21239316Y55473682D01*
X21234952Y55461486D01*
X21229414Y55449776D01*
X21222754Y55438665D01*
X21215037Y55428260D01*
X21206338Y55418662D01*
X21196740Y55409963D01*
X21186335Y55402246D01*
X21175224Y55395586D01*
X21163514Y55390048D01*
X21151318Y55385684D01*
X21138752Y55382536D01*
X21125938Y55380636D01*
X21113000Y55380000D01*
X19337000Y55380000D01*
X19324062Y55380636D01*
X19311248Y55382536D01*
X19298682Y55385684D01*
X19286486Y55390048D01*
X19274776Y55395586D01*
X19263665Y55402246D01*
X19253260Y55409963D01*
X19243662Y55418662D01*
X19234963Y55428260D01*
X19227246Y55438665D01*
X19220586Y55449776D01*
X19215048Y55461486D01*
X19210684Y55473682D01*
X19207536Y55486248D01*
X19205636Y55499062D01*
X19205000Y55512000D01*
X19205000Y55688000D01*
X19205636Y55700938D01*
X19207536Y55713752D01*
X19210684Y55726318D01*
X19215048Y55738514D01*
X19220586Y55750224D01*
X19227246Y55761335D01*
X19234963Y55771740D01*
X19243662Y55781338D01*
X19253260Y55790037D01*
X19263665Y55797754D01*
X19274776Y55804414D01*
X19286486Y55809952D01*
X19298682Y55814316D01*
X19311248Y55817464D01*
X19324062Y55819364D01*
X19337000Y55820000D01*
X21113000Y55820000D01*
X21125938Y55819364D01*
X21125938Y55819364D01*
G37*
D11*
X20225000Y55600000D03*
D10*
G36*
X24700938Y61794364D02*
G01*
X24713752Y61792464D01*
X24726318Y61789316D01*
X24738514Y61784952D01*
X24750224Y61779414D01*
X24761335Y61772754D01*
X24771740Y61765037D01*
X24781338Y61756338D01*
X24790037Y61746740D01*
X24797754Y61736335D01*
X24804414Y61725224D01*
X24809952Y61713514D01*
X24814316Y61701318D01*
X24817464Y61688752D01*
X24819364Y61675938D01*
X24820000Y61663000D01*
X24820000Y59887000D01*
X24819364Y59874062D01*
X24817464Y59861248D01*
X24814316Y59848682D01*
X24809952Y59836486D01*
X24804414Y59824776D01*
X24797754Y59813665D01*
X24790037Y59803260D01*
X24781338Y59793662D01*
X24771740Y59784963D01*
X24761335Y59777246D01*
X24750224Y59770586D01*
X24738514Y59765048D01*
X24726318Y59760684D01*
X24713752Y59757536D01*
X24700938Y59755636D01*
X24688000Y59755000D01*
X24512000Y59755000D01*
X24499062Y59755636D01*
X24486248Y59757536D01*
X24473682Y59760684D01*
X24461486Y59765048D01*
X24449776Y59770586D01*
X24438665Y59777246D01*
X24428260Y59784963D01*
X24418662Y59793662D01*
X24409963Y59803260D01*
X24402246Y59813665D01*
X24395586Y59824776D01*
X24390048Y59836486D01*
X24385684Y59848682D01*
X24382536Y59861248D01*
X24380636Y59874062D01*
X24380000Y59887000D01*
X24380000Y61663000D01*
X24380636Y61675938D01*
X24382536Y61688752D01*
X24385684Y61701318D01*
X24390048Y61713514D01*
X24395586Y61725224D01*
X24402246Y61736335D01*
X24409963Y61746740D01*
X24418662Y61756338D01*
X24428260Y61765037D01*
X24438665Y61772754D01*
X24449776Y61779414D01*
X24461486Y61784952D01*
X24473682Y61789316D01*
X24486248Y61792464D01*
X24499062Y61794364D01*
X24512000Y61795000D01*
X24688000Y61795000D01*
X24700938Y61794364D01*
X24700938Y61794364D01*
G37*
D11*
X24600000Y60775000D03*
D10*
G36*
X25500938Y52244364D02*
G01*
X25513752Y52242464D01*
X25526318Y52239316D01*
X25538514Y52234952D01*
X25550224Y52229414D01*
X25561335Y52222754D01*
X25571740Y52215037D01*
X25581338Y52206338D01*
X25590037Y52196740D01*
X25597754Y52186335D01*
X25604414Y52175224D01*
X25609952Y52163514D01*
X25614316Y52151318D01*
X25617464Y52138752D01*
X25619364Y52125938D01*
X25620000Y52113000D01*
X25620000Y50337000D01*
X25619364Y50324062D01*
X25617464Y50311248D01*
X25614316Y50298682D01*
X25609952Y50286486D01*
X25604414Y50274776D01*
X25597754Y50263665D01*
X25590037Y50253260D01*
X25581338Y50243662D01*
X25571740Y50234963D01*
X25561335Y50227246D01*
X25550224Y50220586D01*
X25538514Y50215048D01*
X25526318Y50210684D01*
X25513752Y50207536D01*
X25500938Y50205636D01*
X25488000Y50205000D01*
X25312000Y50205000D01*
X25299062Y50205636D01*
X25286248Y50207536D01*
X25273682Y50210684D01*
X25261486Y50215048D01*
X25249776Y50220586D01*
X25238665Y50227246D01*
X25228260Y50234963D01*
X25218662Y50243662D01*
X25209963Y50253260D01*
X25202246Y50263665D01*
X25195586Y50274776D01*
X25190048Y50286486D01*
X25185684Y50298682D01*
X25182536Y50311248D01*
X25180636Y50324062D01*
X25180000Y50337000D01*
X25180000Y52113000D01*
X25180636Y52125938D01*
X25182536Y52138752D01*
X25185684Y52151318D01*
X25190048Y52163514D01*
X25195586Y52175224D01*
X25202246Y52186335D01*
X25209963Y52196740D01*
X25218662Y52206338D01*
X25228260Y52215037D01*
X25238665Y52222754D01*
X25249776Y52229414D01*
X25261486Y52234952D01*
X25273682Y52239316D01*
X25286248Y52242464D01*
X25299062Y52244364D01*
X25312000Y52245000D01*
X25488000Y52245000D01*
X25500938Y52244364D01*
X25500938Y52244364D01*
G37*
D11*
X25400000Y51225000D03*
D10*
G36*
X30675938Y57419364D02*
G01*
X30688752Y57417464D01*
X30701318Y57414316D01*
X30713514Y57409952D01*
X30725224Y57404414D01*
X30736335Y57397754D01*
X30746740Y57390037D01*
X30756338Y57381338D01*
X30765037Y57371740D01*
X30772754Y57361335D01*
X30779414Y57350224D01*
X30784952Y57338514D01*
X30789316Y57326318D01*
X30792464Y57313752D01*
X30794364Y57300938D01*
X30795000Y57288000D01*
X30795000Y57112000D01*
X30794364Y57099062D01*
X30792464Y57086248D01*
X30789316Y57073682D01*
X30784952Y57061486D01*
X30779414Y57049776D01*
X30772754Y57038665D01*
X30765037Y57028260D01*
X30756338Y57018662D01*
X30746740Y57009963D01*
X30736335Y57002246D01*
X30725224Y56995586D01*
X30713514Y56990048D01*
X30701318Y56985684D01*
X30688752Y56982536D01*
X30675938Y56980636D01*
X30663000Y56980000D01*
X28887000Y56980000D01*
X28874062Y56980636D01*
X28861248Y56982536D01*
X28848682Y56985684D01*
X28836486Y56990048D01*
X28824776Y56995586D01*
X28813665Y57002246D01*
X28803260Y57009963D01*
X28793662Y57018662D01*
X28784963Y57028260D01*
X28777246Y57038665D01*
X28770586Y57049776D01*
X28765048Y57061486D01*
X28760684Y57073682D01*
X28757536Y57086248D01*
X28755636Y57099062D01*
X28755000Y57112000D01*
X28755000Y57288000D01*
X28755636Y57300938D01*
X28757536Y57313752D01*
X28760684Y57326318D01*
X28765048Y57338514D01*
X28770586Y57350224D01*
X28777246Y57361335D01*
X28784963Y57371740D01*
X28793662Y57381338D01*
X28803260Y57390037D01*
X28813665Y57397754D01*
X28824776Y57404414D01*
X28836486Y57409952D01*
X28848682Y57414316D01*
X28861248Y57417464D01*
X28874062Y57419364D01*
X28887000Y57420000D01*
X30663000Y57420000D01*
X30675938Y57419364D01*
X30675938Y57419364D01*
G37*
D11*
X29775000Y57200000D03*
D10*
G36*
X21125938Y55019364D02*
G01*
X21138752Y55017464D01*
X21151318Y55014316D01*
X21163514Y55009952D01*
X21175224Y55004414D01*
X21186335Y54997754D01*
X21196740Y54990037D01*
X21206338Y54981338D01*
X21215037Y54971740D01*
X21222754Y54961335D01*
X21229414Y54950224D01*
X21234952Y54938514D01*
X21239316Y54926318D01*
X21242464Y54913752D01*
X21244364Y54900938D01*
X21245000Y54888000D01*
X21245000Y54712000D01*
X21244364Y54699062D01*
X21242464Y54686248D01*
X21239316Y54673682D01*
X21234952Y54661486D01*
X21229414Y54649776D01*
X21222754Y54638665D01*
X21215037Y54628260D01*
X21206338Y54618662D01*
X21196740Y54609963D01*
X21186335Y54602246D01*
X21175224Y54595586D01*
X21163514Y54590048D01*
X21151318Y54585684D01*
X21138752Y54582536D01*
X21125938Y54580636D01*
X21113000Y54580000D01*
X19337000Y54580000D01*
X19324062Y54580636D01*
X19311248Y54582536D01*
X19298682Y54585684D01*
X19286486Y54590048D01*
X19274776Y54595586D01*
X19263665Y54602246D01*
X19253260Y54609963D01*
X19243662Y54618662D01*
X19234963Y54628260D01*
X19227246Y54638665D01*
X19220586Y54649776D01*
X19215048Y54661486D01*
X19210684Y54673682D01*
X19207536Y54686248D01*
X19205636Y54699062D01*
X19205000Y54712000D01*
X19205000Y54888000D01*
X19205636Y54900938D01*
X19207536Y54913752D01*
X19210684Y54926318D01*
X19215048Y54938514D01*
X19220586Y54950224D01*
X19227246Y54961335D01*
X19234963Y54971740D01*
X19243662Y54981338D01*
X19253260Y54990037D01*
X19263665Y54997754D01*
X19274776Y55004414D01*
X19286486Y55009952D01*
X19298682Y55014316D01*
X19311248Y55017464D01*
X19324062Y55019364D01*
X19337000Y55020000D01*
X21113000Y55020000D01*
X21125938Y55019364D01*
X21125938Y55019364D01*
G37*
D11*
X20225000Y54800000D03*
D10*
G36*
X23900938Y61794364D02*
G01*
X23913752Y61792464D01*
X23926318Y61789316D01*
X23938514Y61784952D01*
X23950224Y61779414D01*
X23961335Y61772754D01*
X23971740Y61765037D01*
X23981338Y61756338D01*
X23990037Y61746740D01*
X23997754Y61736335D01*
X24004414Y61725224D01*
X24009952Y61713514D01*
X24014316Y61701318D01*
X24017464Y61688752D01*
X24019364Y61675938D01*
X24020000Y61663000D01*
X24020000Y59887000D01*
X24019364Y59874062D01*
X24017464Y59861248D01*
X24014316Y59848682D01*
X24009952Y59836486D01*
X24004414Y59824776D01*
X23997754Y59813665D01*
X23990037Y59803260D01*
X23981338Y59793662D01*
X23971740Y59784963D01*
X23961335Y59777246D01*
X23950224Y59770586D01*
X23938514Y59765048D01*
X23926318Y59760684D01*
X23913752Y59757536D01*
X23900938Y59755636D01*
X23888000Y59755000D01*
X23712000Y59755000D01*
X23699062Y59755636D01*
X23686248Y59757536D01*
X23673682Y59760684D01*
X23661486Y59765048D01*
X23649776Y59770586D01*
X23638665Y59777246D01*
X23628260Y59784963D01*
X23618662Y59793662D01*
X23609963Y59803260D01*
X23602246Y59813665D01*
X23595586Y59824776D01*
X23590048Y59836486D01*
X23585684Y59848682D01*
X23582536Y59861248D01*
X23580636Y59874062D01*
X23580000Y59887000D01*
X23580000Y61663000D01*
X23580636Y61675938D01*
X23582536Y61688752D01*
X23585684Y61701318D01*
X23590048Y61713514D01*
X23595586Y61725224D01*
X23602246Y61736335D01*
X23609963Y61746740D01*
X23618662Y61756338D01*
X23628260Y61765037D01*
X23638665Y61772754D01*
X23649776Y61779414D01*
X23661486Y61784952D01*
X23673682Y61789316D01*
X23686248Y61792464D01*
X23699062Y61794364D01*
X23712000Y61795000D01*
X23888000Y61795000D01*
X23900938Y61794364D01*
X23900938Y61794364D01*
G37*
D11*
X23800000Y60775000D03*
D10*
G36*
X26300938Y52244364D02*
G01*
X26313752Y52242464D01*
X26326318Y52239316D01*
X26338514Y52234952D01*
X26350224Y52229414D01*
X26361335Y52222754D01*
X26371740Y52215037D01*
X26381338Y52206338D01*
X26390037Y52196740D01*
X26397754Y52186335D01*
X26404414Y52175224D01*
X26409952Y52163514D01*
X26414316Y52151318D01*
X26417464Y52138752D01*
X26419364Y52125938D01*
X26420000Y52113000D01*
X26420000Y50337000D01*
X26419364Y50324062D01*
X26417464Y50311248D01*
X26414316Y50298682D01*
X26409952Y50286486D01*
X26404414Y50274776D01*
X26397754Y50263665D01*
X26390037Y50253260D01*
X26381338Y50243662D01*
X26371740Y50234963D01*
X26361335Y50227246D01*
X26350224Y50220586D01*
X26338514Y50215048D01*
X26326318Y50210684D01*
X26313752Y50207536D01*
X26300938Y50205636D01*
X26288000Y50205000D01*
X26112000Y50205000D01*
X26099062Y50205636D01*
X26086248Y50207536D01*
X26073682Y50210684D01*
X26061486Y50215048D01*
X26049776Y50220586D01*
X26038665Y50227246D01*
X26028260Y50234963D01*
X26018662Y50243662D01*
X26009963Y50253260D01*
X26002246Y50263665D01*
X25995586Y50274776D01*
X25990048Y50286486D01*
X25985684Y50298682D01*
X25982536Y50311248D01*
X25980636Y50324062D01*
X25980000Y50337000D01*
X25980000Y52113000D01*
X25980636Y52125938D01*
X25982536Y52138752D01*
X25985684Y52151318D01*
X25990048Y52163514D01*
X25995586Y52175224D01*
X26002246Y52186335D01*
X26009963Y52196740D01*
X26018662Y52206338D01*
X26028260Y52215037D01*
X26038665Y52222754D01*
X26049776Y52229414D01*
X26061486Y52234952D01*
X26073682Y52239316D01*
X26086248Y52242464D01*
X26099062Y52244364D01*
X26112000Y52245000D01*
X26288000Y52245000D01*
X26300938Y52244364D01*
X26300938Y52244364D01*
G37*
D11*
X26200000Y51225000D03*
D10*
G36*
X30675938Y58219364D02*
G01*
X30688752Y58217464D01*
X30701318Y58214316D01*
X30713514Y58209952D01*
X30725224Y58204414D01*
X30736335Y58197754D01*
X30746740Y58190037D01*
X30756338Y58181338D01*
X30765037Y58171740D01*
X30772754Y58161335D01*
X30779414Y58150224D01*
X30784952Y58138514D01*
X30789316Y58126318D01*
X30792464Y58113752D01*
X30794364Y58100938D01*
X30795000Y58088000D01*
X30795000Y57912000D01*
X30794364Y57899062D01*
X30792464Y57886248D01*
X30789316Y57873682D01*
X30784952Y57861486D01*
X30779414Y57849776D01*
X30772754Y57838665D01*
X30765037Y57828260D01*
X30756338Y57818662D01*
X30746740Y57809963D01*
X30736335Y57802246D01*
X30725224Y57795586D01*
X30713514Y57790048D01*
X30701318Y57785684D01*
X30688752Y57782536D01*
X30675938Y57780636D01*
X30663000Y57780000D01*
X28887000Y57780000D01*
X28874062Y57780636D01*
X28861248Y57782536D01*
X28848682Y57785684D01*
X28836486Y57790048D01*
X28824776Y57795586D01*
X28813665Y57802246D01*
X28803260Y57809963D01*
X28793662Y57818662D01*
X28784963Y57828260D01*
X28777246Y57838665D01*
X28770586Y57849776D01*
X28765048Y57861486D01*
X28760684Y57873682D01*
X28757536Y57886248D01*
X28755636Y57899062D01*
X28755000Y57912000D01*
X28755000Y58088000D01*
X28755636Y58100938D01*
X28757536Y58113752D01*
X28760684Y58126318D01*
X28765048Y58138514D01*
X28770586Y58150224D01*
X28777246Y58161335D01*
X28784963Y58171740D01*
X28793662Y58181338D01*
X28803260Y58190037D01*
X28813665Y58197754D01*
X28824776Y58204414D01*
X28836486Y58209952D01*
X28848682Y58214316D01*
X28861248Y58217464D01*
X28874062Y58219364D01*
X28887000Y58220000D01*
X30663000Y58220000D01*
X30675938Y58219364D01*
X30675938Y58219364D01*
G37*
D11*
X29775000Y58000000D03*
D10*
G36*
X21125938Y54219364D02*
G01*
X21138752Y54217464D01*
X21151318Y54214316D01*
X21163514Y54209952D01*
X21175224Y54204414D01*
X21186335Y54197754D01*
X21196740Y54190037D01*
X21206338Y54181338D01*
X21215037Y54171740D01*
X21222754Y54161335D01*
X21229414Y54150224D01*
X21234952Y54138514D01*
X21239316Y54126318D01*
X21242464Y54113752D01*
X21244364Y54100938D01*
X21245000Y54088000D01*
X21245000Y53912000D01*
X21244364Y53899062D01*
X21242464Y53886248D01*
X21239316Y53873682D01*
X21234952Y53861486D01*
X21229414Y53849776D01*
X21222754Y53838665D01*
X21215037Y53828260D01*
X21206338Y53818662D01*
X21196740Y53809963D01*
X21186335Y53802246D01*
X21175224Y53795586D01*
X21163514Y53790048D01*
X21151318Y53785684D01*
X21138752Y53782536D01*
X21125938Y53780636D01*
X21113000Y53780000D01*
X19337000Y53780000D01*
X19324062Y53780636D01*
X19311248Y53782536D01*
X19298682Y53785684D01*
X19286486Y53790048D01*
X19274776Y53795586D01*
X19263665Y53802246D01*
X19253260Y53809963D01*
X19243662Y53818662D01*
X19234963Y53828260D01*
X19227246Y53838665D01*
X19220586Y53849776D01*
X19215048Y53861486D01*
X19210684Y53873682D01*
X19207536Y53886248D01*
X19205636Y53899062D01*
X19205000Y53912000D01*
X19205000Y54088000D01*
X19205636Y54100938D01*
X19207536Y54113752D01*
X19210684Y54126318D01*
X19215048Y54138514D01*
X19220586Y54150224D01*
X19227246Y54161335D01*
X19234963Y54171740D01*
X19243662Y54181338D01*
X19253260Y54190037D01*
X19263665Y54197754D01*
X19274776Y54204414D01*
X19286486Y54209952D01*
X19298682Y54214316D01*
X19311248Y54217464D01*
X19324062Y54219364D01*
X19337000Y54220000D01*
X21113000Y54220000D01*
X21125938Y54219364D01*
X21125938Y54219364D01*
G37*
D11*
X20225000Y54000000D03*
D10*
G36*
X23100938Y61794364D02*
G01*
X23113752Y61792464D01*
X23126318Y61789316D01*
X23138514Y61784952D01*
X23150224Y61779414D01*
X23161335Y61772754D01*
X23171740Y61765037D01*
X23181338Y61756338D01*
X23190037Y61746740D01*
X23197754Y61736335D01*
X23204414Y61725224D01*
X23209952Y61713514D01*
X23214316Y61701318D01*
X23217464Y61688752D01*
X23219364Y61675938D01*
X23220000Y61663000D01*
X23220000Y59887000D01*
X23219364Y59874062D01*
X23217464Y59861248D01*
X23214316Y59848682D01*
X23209952Y59836486D01*
X23204414Y59824776D01*
X23197754Y59813665D01*
X23190037Y59803260D01*
X23181338Y59793662D01*
X23171740Y59784963D01*
X23161335Y59777246D01*
X23150224Y59770586D01*
X23138514Y59765048D01*
X23126318Y59760684D01*
X23113752Y59757536D01*
X23100938Y59755636D01*
X23088000Y59755000D01*
X22912000Y59755000D01*
X22899062Y59755636D01*
X22886248Y59757536D01*
X22873682Y59760684D01*
X22861486Y59765048D01*
X22849776Y59770586D01*
X22838665Y59777246D01*
X22828260Y59784963D01*
X22818662Y59793662D01*
X22809963Y59803260D01*
X22802246Y59813665D01*
X22795586Y59824776D01*
X22790048Y59836486D01*
X22785684Y59848682D01*
X22782536Y59861248D01*
X22780636Y59874062D01*
X22780000Y59887000D01*
X22780000Y61663000D01*
X22780636Y61675938D01*
X22782536Y61688752D01*
X22785684Y61701318D01*
X22790048Y61713514D01*
X22795586Y61725224D01*
X22802246Y61736335D01*
X22809963Y61746740D01*
X22818662Y61756338D01*
X22828260Y61765037D01*
X22838665Y61772754D01*
X22849776Y61779414D01*
X22861486Y61784952D01*
X22873682Y61789316D01*
X22886248Y61792464D01*
X22899062Y61794364D01*
X22912000Y61795000D01*
X23088000Y61795000D01*
X23100938Y61794364D01*
X23100938Y61794364D01*
G37*
D11*
X23000000Y60775000D03*
D10*
G36*
X27100938Y52244364D02*
G01*
X27113752Y52242464D01*
X27126318Y52239316D01*
X27138514Y52234952D01*
X27150224Y52229414D01*
X27161335Y52222754D01*
X27171740Y52215037D01*
X27181338Y52206338D01*
X27190037Y52196740D01*
X27197754Y52186335D01*
X27204414Y52175224D01*
X27209952Y52163514D01*
X27214316Y52151318D01*
X27217464Y52138752D01*
X27219364Y52125938D01*
X27220000Y52113000D01*
X27220000Y50337000D01*
X27219364Y50324062D01*
X27217464Y50311248D01*
X27214316Y50298682D01*
X27209952Y50286486D01*
X27204414Y50274776D01*
X27197754Y50263665D01*
X27190037Y50253260D01*
X27181338Y50243662D01*
X27171740Y50234963D01*
X27161335Y50227246D01*
X27150224Y50220586D01*
X27138514Y50215048D01*
X27126318Y50210684D01*
X27113752Y50207536D01*
X27100938Y50205636D01*
X27088000Y50205000D01*
X26912000Y50205000D01*
X26899062Y50205636D01*
X26886248Y50207536D01*
X26873682Y50210684D01*
X26861486Y50215048D01*
X26849776Y50220586D01*
X26838665Y50227246D01*
X26828260Y50234963D01*
X26818662Y50243662D01*
X26809963Y50253260D01*
X26802246Y50263665D01*
X26795586Y50274776D01*
X26790048Y50286486D01*
X26785684Y50298682D01*
X26782536Y50311248D01*
X26780636Y50324062D01*
X26780000Y50337000D01*
X26780000Y52113000D01*
X26780636Y52125938D01*
X26782536Y52138752D01*
X26785684Y52151318D01*
X26790048Y52163514D01*
X26795586Y52175224D01*
X26802246Y52186335D01*
X26809963Y52196740D01*
X26818662Y52206338D01*
X26828260Y52215037D01*
X26838665Y52222754D01*
X26849776Y52229414D01*
X26861486Y52234952D01*
X26873682Y52239316D01*
X26886248Y52242464D01*
X26899062Y52244364D01*
X26912000Y52245000D01*
X27088000Y52245000D01*
X27100938Y52244364D01*
X27100938Y52244364D01*
G37*
D11*
X27000000Y51225000D03*
D10*
G36*
X30675938Y59019364D02*
G01*
X30688752Y59017464D01*
X30701318Y59014316D01*
X30713514Y59009952D01*
X30725224Y59004414D01*
X30736335Y58997754D01*
X30746740Y58990037D01*
X30756338Y58981338D01*
X30765037Y58971740D01*
X30772754Y58961335D01*
X30779414Y58950224D01*
X30784952Y58938514D01*
X30789316Y58926318D01*
X30792464Y58913752D01*
X30794364Y58900938D01*
X30795000Y58888000D01*
X30795000Y58712000D01*
X30794364Y58699062D01*
X30792464Y58686248D01*
X30789316Y58673682D01*
X30784952Y58661486D01*
X30779414Y58649776D01*
X30772754Y58638665D01*
X30765037Y58628260D01*
X30756338Y58618662D01*
X30746740Y58609963D01*
X30736335Y58602246D01*
X30725224Y58595586D01*
X30713514Y58590048D01*
X30701318Y58585684D01*
X30688752Y58582536D01*
X30675938Y58580636D01*
X30663000Y58580000D01*
X28887000Y58580000D01*
X28874062Y58580636D01*
X28861248Y58582536D01*
X28848682Y58585684D01*
X28836486Y58590048D01*
X28824776Y58595586D01*
X28813665Y58602246D01*
X28803260Y58609963D01*
X28793662Y58618662D01*
X28784963Y58628260D01*
X28777246Y58638665D01*
X28770586Y58649776D01*
X28765048Y58661486D01*
X28760684Y58673682D01*
X28757536Y58686248D01*
X28755636Y58699062D01*
X28755000Y58712000D01*
X28755000Y58888000D01*
X28755636Y58900938D01*
X28757536Y58913752D01*
X28760684Y58926318D01*
X28765048Y58938514D01*
X28770586Y58950224D01*
X28777246Y58961335D01*
X28784963Y58971740D01*
X28793662Y58981338D01*
X28803260Y58990037D01*
X28813665Y58997754D01*
X28824776Y59004414D01*
X28836486Y59009952D01*
X28848682Y59014316D01*
X28861248Y59017464D01*
X28874062Y59019364D01*
X28887000Y59020000D01*
X30663000Y59020000D01*
X30675938Y59019364D01*
X30675938Y59019364D01*
G37*
D11*
X29775000Y58800000D03*
D10*
G36*
X21125938Y53419364D02*
G01*
X21138752Y53417464D01*
X21151318Y53414316D01*
X21163514Y53409952D01*
X21175224Y53404414D01*
X21186335Y53397754D01*
X21196740Y53390037D01*
X21206338Y53381338D01*
X21215037Y53371740D01*
X21222754Y53361335D01*
X21229414Y53350224D01*
X21234952Y53338514D01*
X21239316Y53326318D01*
X21242464Y53313752D01*
X21244364Y53300938D01*
X21245000Y53288000D01*
X21245000Y53112000D01*
X21244364Y53099062D01*
X21242464Y53086248D01*
X21239316Y53073682D01*
X21234952Y53061486D01*
X21229414Y53049776D01*
X21222754Y53038665D01*
X21215037Y53028260D01*
X21206338Y53018662D01*
X21196740Y53009963D01*
X21186335Y53002246D01*
X21175224Y52995586D01*
X21163514Y52990048D01*
X21151318Y52985684D01*
X21138752Y52982536D01*
X21125938Y52980636D01*
X21113000Y52980000D01*
X19337000Y52980000D01*
X19324062Y52980636D01*
X19311248Y52982536D01*
X19298682Y52985684D01*
X19286486Y52990048D01*
X19274776Y52995586D01*
X19263665Y53002246D01*
X19253260Y53009963D01*
X19243662Y53018662D01*
X19234963Y53028260D01*
X19227246Y53038665D01*
X19220586Y53049776D01*
X19215048Y53061486D01*
X19210684Y53073682D01*
X19207536Y53086248D01*
X19205636Y53099062D01*
X19205000Y53112000D01*
X19205000Y53288000D01*
X19205636Y53300938D01*
X19207536Y53313752D01*
X19210684Y53326318D01*
X19215048Y53338514D01*
X19220586Y53350224D01*
X19227246Y53361335D01*
X19234963Y53371740D01*
X19243662Y53381338D01*
X19253260Y53390037D01*
X19263665Y53397754D01*
X19274776Y53404414D01*
X19286486Y53409952D01*
X19298682Y53414316D01*
X19311248Y53417464D01*
X19324062Y53419364D01*
X19337000Y53420000D01*
X21113000Y53420000D01*
X21125938Y53419364D01*
X21125938Y53419364D01*
G37*
D11*
X20225000Y53200000D03*
D10*
G36*
X22300938Y61794364D02*
G01*
X22313752Y61792464D01*
X22326318Y61789316D01*
X22338514Y61784952D01*
X22350224Y61779414D01*
X22361335Y61772754D01*
X22371740Y61765037D01*
X22381338Y61756338D01*
X22390037Y61746740D01*
X22397754Y61736335D01*
X22404414Y61725224D01*
X22409952Y61713514D01*
X22414316Y61701318D01*
X22417464Y61688752D01*
X22419364Y61675938D01*
X22420000Y61663000D01*
X22420000Y59887000D01*
X22419364Y59874062D01*
X22417464Y59861248D01*
X22414316Y59848682D01*
X22409952Y59836486D01*
X22404414Y59824776D01*
X22397754Y59813665D01*
X22390037Y59803260D01*
X22381338Y59793662D01*
X22371740Y59784963D01*
X22361335Y59777246D01*
X22350224Y59770586D01*
X22338514Y59765048D01*
X22326318Y59760684D01*
X22313752Y59757536D01*
X22300938Y59755636D01*
X22288000Y59755000D01*
X22112000Y59755000D01*
X22099062Y59755636D01*
X22086248Y59757536D01*
X22073682Y59760684D01*
X22061486Y59765048D01*
X22049776Y59770586D01*
X22038665Y59777246D01*
X22028260Y59784963D01*
X22018662Y59793662D01*
X22009963Y59803260D01*
X22002246Y59813665D01*
X21995586Y59824776D01*
X21990048Y59836486D01*
X21985684Y59848682D01*
X21982536Y59861248D01*
X21980636Y59874062D01*
X21980000Y59887000D01*
X21980000Y61663000D01*
X21980636Y61675938D01*
X21982536Y61688752D01*
X21985684Y61701318D01*
X21990048Y61713514D01*
X21995586Y61725224D01*
X22002246Y61736335D01*
X22009963Y61746740D01*
X22018662Y61756338D01*
X22028260Y61765037D01*
X22038665Y61772754D01*
X22049776Y61779414D01*
X22061486Y61784952D01*
X22073682Y61789316D01*
X22086248Y61792464D01*
X22099062Y61794364D01*
X22112000Y61795000D01*
X22288000Y61795000D01*
X22300938Y61794364D01*
X22300938Y61794364D01*
G37*
D11*
X22200000Y60775000D03*
D10*
G36*
X27900938Y52244364D02*
G01*
X27913752Y52242464D01*
X27926318Y52239316D01*
X27938514Y52234952D01*
X27950224Y52229414D01*
X27961335Y52222754D01*
X27971740Y52215037D01*
X27981338Y52206338D01*
X27990037Y52196740D01*
X27997754Y52186335D01*
X28004414Y52175224D01*
X28009952Y52163514D01*
X28014316Y52151318D01*
X28017464Y52138752D01*
X28019364Y52125938D01*
X28020000Y52113000D01*
X28020000Y50337000D01*
X28019364Y50324062D01*
X28017464Y50311248D01*
X28014316Y50298682D01*
X28009952Y50286486D01*
X28004414Y50274776D01*
X27997754Y50263665D01*
X27990037Y50253260D01*
X27981338Y50243662D01*
X27971740Y50234963D01*
X27961335Y50227246D01*
X27950224Y50220586D01*
X27938514Y50215048D01*
X27926318Y50210684D01*
X27913752Y50207536D01*
X27900938Y50205636D01*
X27888000Y50205000D01*
X27712000Y50205000D01*
X27699062Y50205636D01*
X27686248Y50207536D01*
X27673682Y50210684D01*
X27661486Y50215048D01*
X27649776Y50220586D01*
X27638665Y50227246D01*
X27628260Y50234963D01*
X27618662Y50243662D01*
X27609963Y50253260D01*
X27602246Y50263665D01*
X27595586Y50274776D01*
X27590048Y50286486D01*
X27585684Y50298682D01*
X27582536Y50311248D01*
X27580636Y50324062D01*
X27580000Y50337000D01*
X27580000Y52113000D01*
X27580636Y52125938D01*
X27582536Y52138752D01*
X27585684Y52151318D01*
X27590048Y52163514D01*
X27595586Y52175224D01*
X27602246Y52186335D01*
X27609963Y52196740D01*
X27618662Y52206338D01*
X27628260Y52215037D01*
X27638665Y52222754D01*
X27649776Y52229414D01*
X27661486Y52234952D01*
X27673682Y52239316D01*
X27686248Y52242464D01*
X27699062Y52244364D01*
X27712000Y52245000D01*
X27888000Y52245000D01*
X27900938Y52244364D01*
X27900938Y52244364D01*
G37*
D11*
X27800000Y51225000D03*
D10*
G36*
X36700114Y29144307D02*
G01*
X36714093Y29142233D01*
X36727801Y29138799D01*
X36741106Y29134039D01*
X36753881Y29127997D01*
X36766002Y29120732D01*
X36777353Y29112314D01*
X36787823Y29102823D01*
X36797314Y29092353D01*
X36805732Y29081002D01*
X36812997Y29068881D01*
X36819039Y29056106D01*
X36823799Y29042801D01*
X36827233Y29029093D01*
X36829307Y29015114D01*
X36830000Y29001000D01*
X36830000Y28809000D01*
X36829307Y28794886D01*
X36827233Y28780907D01*
X36823799Y28767199D01*
X36819039Y28753894D01*
X36812997Y28741119D01*
X36805732Y28728998D01*
X36797314Y28717647D01*
X36787823Y28707177D01*
X36777353Y28697686D01*
X36766002Y28689268D01*
X36753881Y28682003D01*
X36741106Y28675961D01*
X36727801Y28671201D01*
X36714093Y28667767D01*
X36700114Y28665693D01*
X36686000Y28665000D01*
X35214000Y28665000D01*
X35199886Y28665693D01*
X35185907Y28667767D01*
X35172199Y28671201D01*
X35158894Y28675961D01*
X35146119Y28682003D01*
X35133998Y28689268D01*
X35122647Y28697686D01*
X35112177Y28707177D01*
X35102686Y28717647D01*
X35094268Y28728998D01*
X35087003Y28741119D01*
X35080961Y28753894D01*
X35076201Y28767199D01*
X35072767Y28780907D01*
X35070693Y28794886D01*
X35070000Y28809000D01*
X35070000Y29001000D01*
X35070693Y29015114D01*
X35072767Y29029093D01*
X35076201Y29042801D01*
X35080961Y29056106D01*
X35087003Y29068881D01*
X35094268Y29081002D01*
X35102686Y29092353D01*
X35112177Y29102823D01*
X35122647Y29112314D01*
X35133998Y29120732D01*
X35146119Y29127997D01*
X35158894Y29134039D01*
X35172199Y29138799D01*
X35185907Y29142233D01*
X35199886Y29144307D01*
X35214000Y29145000D01*
X36686000Y29145000D01*
X36700114Y29144307D01*
X36700114Y29144307D01*
G37*
D12*
X35950000Y28905000D03*
D10*
G36*
X42800114Y25334307D02*
G01*
X42814093Y25332233D01*
X42827801Y25328799D01*
X42841106Y25324039D01*
X42853881Y25317997D01*
X42866002Y25310732D01*
X42877353Y25302314D01*
X42887823Y25292823D01*
X42897314Y25282353D01*
X42905732Y25271002D01*
X42912997Y25258881D01*
X42919039Y25246106D01*
X42923799Y25232801D01*
X42927233Y25219093D01*
X42929307Y25205114D01*
X42930000Y25191000D01*
X42930000Y24999000D01*
X42929307Y24984886D01*
X42927233Y24970907D01*
X42923799Y24957199D01*
X42919039Y24943894D01*
X42912997Y24931119D01*
X42905732Y24918998D01*
X42897314Y24907647D01*
X42887823Y24897177D01*
X42877353Y24887686D01*
X42866002Y24879268D01*
X42853881Y24872003D01*
X42841106Y24865961D01*
X42827801Y24861201D01*
X42814093Y24857767D01*
X42800114Y24855693D01*
X42786000Y24855000D01*
X41314000Y24855000D01*
X41299886Y24855693D01*
X41285907Y24857767D01*
X41272199Y24861201D01*
X41258894Y24865961D01*
X41246119Y24872003D01*
X41233998Y24879268D01*
X41222647Y24887686D01*
X41212177Y24897177D01*
X41202686Y24907647D01*
X41194268Y24918998D01*
X41187003Y24931119D01*
X41180961Y24943894D01*
X41176201Y24957199D01*
X41172767Y24970907D01*
X41170693Y24984886D01*
X41170000Y24999000D01*
X41170000Y25191000D01*
X41170693Y25205114D01*
X41172767Y25219093D01*
X41176201Y25232801D01*
X41180961Y25246106D01*
X41187003Y25258881D01*
X41194268Y25271002D01*
X41202686Y25282353D01*
X41212177Y25292823D01*
X41222647Y25302314D01*
X41233998Y25310732D01*
X41246119Y25317997D01*
X41258894Y25324039D01*
X41272199Y25328799D01*
X41285907Y25332233D01*
X41299886Y25334307D01*
X41314000Y25335000D01*
X42786000Y25335000D01*
X42800114Y25334307D01*
X42800114Y25334307D01*
G37*
D12*
X42050000Y25095000D03*
D10*
G36*
X36700114Y27874307D02*
G01*
X36714093Y27872233D01*
X36727801Y27868799D01*
X36741106Y27864039D01*
X36753881Y27857997D01*
X36766002Y27850732D01*
X36777353Y27842314D01*
X36787823Y27832823D01*
X36797314Y27822353D01*
X36805732Y27811002D01*
X36812997Y27798881D01*
X36819039Y27786106D01*
X36823799Y27772801D01*
X36827233Y27759093D01*
X36829307Y27745114D01*
X36830000Y27731000D01*
X36830000Y27539000D01*
X36829307Y27524886D01*
X36827233Y27510907D01*
X36823799Y27497199D01*
X36819039Y27483894D01*
X36812997Y27471119D01*
X36805732Y27458998D01*
X36797314Y27447647D01*
X36787823Y27437177D01*
X36777353Y27427686D01*
X36766002Y27419268D01*
X36753881Y27412003D01*
X36741106Y27405961D01*
X36727801Y27401201D01*
X36714093Y27397767D01*
X36700114Y27395693D01*
X36686000Y27395000D01*
X35214000Y27395000D01*
X35199886Y27395693D01*
X35185907Y27397767D01*
X35172199Y27401201D01*
X35158894Y27405961D01*
X35146119Y27412003D01*
X35133998Y27419268D01*
X35122647Y27427686D01*
X35112177Y27437177D01*
X35102686Y27447647D01*
X35094268Y27458998D01*
X35087003Y27471119D01*
X35080961Y27483894D01*
X35076201Y27497199D01*
X35072767Y27510907D01*
X35070693Y27524886D01*
X35070000Y27539000D01*
X35070000Y27731000D01*
X35070693Y27745114D01*
X35072767Y27759093D01*
X35076201Y27772801D01*
X35080961Y27786106D01*
X35087003Y27798881D01*
X35094268Y27811002D01*
X35102686Y27822353D01*
X35112177Y27832823D01*
X35122647Y27842314D01*
X35133998Y27850732D01*
X35146119Y27857997D01*
X35158894Y27864039D01*
X35172199Y27868799D01*
X35185907Y27872233D01*
X35199886Y27874307D01*
X35214000Y27875000D01*
X36686000Y27875000D01*
X36700114Y27874307D01*
X36700114Y27874307D01*
G37*
D12*
X35950000Y27635000D03*
D10*
G36*
X42800114Y26604307D02*
G01*
X42814093Y26602233D01*
X42827801Y26598799D01*
X42841106Y26594039D01*
X42853881Y26587997D01*
X42866002Y26580732D01*
X42877353Y26572314D01*
X42887823Y26562823D01*
X42897314Y26552353D01*
X42905732Y26541002D01*
X42912997Y26528881D01*
X42919039Y26516106D01*
X42923799Y26502801D01*
X42927233Y26489093D01*
X42929307Y26475114D01*
X42930000Y26461000D01*
X42930000Y26269000D01*
X42929307Y26254886D01*
X42927233Y26240907D01*
X42923799Y26227199D01*
X42919039Y26213894D01*
X42912997Y26201119D01*
X42905732Y26188998D01*
X42897314Y26177647D01*
X42887823Y26167177D01*
X42877353Y26157686D01*
X42866002Y26149268D01*
X42853881Y26142003D01*
X42841106Y26135961D01*
X42827801Y26131201D01*
X42814093Y26127767D01*
X42800114Y26125693D01*
X42786000Y26125000D01*
X41314000Y26125000D01*
X41299886Y26125693D01*
X41285907Y26127767D01*
X41272199Y26131201D01*
X41258894Y26135961D01*
X41246119Y26142003D01*
X41233998Y26149268D01*
X41222647Y26157686D01*
X41212177Y26167177D01*
X41202686Y26177647D01*
X41194268Y26188998D01*
X41187003Y26201119D01*
X41180961Y26213894D01*
X41176201Y26227199D01*
X41172767Y26240907D01*
X41170693Y26254886D01*
X41170000Y26269000D01*
X41170000Y26461000D01*
X41170693Y26475114D01*
X41172767Y26489093D01*
X41176201Y26502801D01*
X41180961Y26516106D01*
X41187003Y26528881D01*
X41194268Y26541002D01*
X41202686Y26552353D01*
X41212177Y26562823D01*
X41222647Y26572314D01*
X41233998Y26580732D01*
X41246119Y26587997D01*
X41258894Y26594039D01*
X41272199Y26598799D01*
X41285907Y26602233D01*
X41299886Y26604307D01*
X41314000Y26605000D01*
X42786000Y26605000D01*
X42800114Y26604307D01*
X42800114Y26604307D01*
G37*
D12*
X42050000Y26365000D03*
D10*
G36*
X36700114Y26604307D02*
G01*
X36714093Y26602233D01*
X36727801Y26598799D01*
X36741106Y26594039D01*
X36753881Y26587997D01*
X36766002Y26580732D01*
X36777353Y26572314D01*
X36787823Y26562823D01*
X36797314Y26552353D01*
X36805732Y26541002D01*
X36812997Y26528881D01*
X36819039Y26516106D01*
X36823799Y26502801D01*
X36827233Y26489093D01*
X36829307Y26475114D01*
X36830000Y26461000D01*
X36830000Y26269000D01*
X36829307Y26254886D01*
X36827233Y26240907D01*
X36823799Y26227199D01*
X36819039Y26213894D01*
X36812997Y26201119D01*
X36805732Y26188998D01*
X36797314Y26177647D01*
X36787823Y26167177D01*
X36777353Y26157686D01*
X36766002Y26149268D01*
X36753881Y26142003D01*
X36741106Y26135961D01*
X36727801Y26131201D01*
X36714093Y26127767D01*
X36700114Y26125693D01*
X36686000Y26125000D01*
X35214000Y26125000D01*
X35199886Y26125693D01*
X35185907Y26127767D01*
X35172199Y26131201D01*
X35158894Y26135961D01*
X35146119Y26142003D01*
X35133998Y26149268D01*
X35122647Y26157686D01*
X35112177Y26167177D01*
X35102686Y26177647D01*
X35094268Y26188998D01*
X35087003Y26201119D01*
X35080961Y26213894D01*
X35076201Y26227199D01*
X35072767Y26240907D01*
X35070693Y26254886D01*
X35070000Y26269000D01*
X35070000Y26461000D01*
X35070693Y26475114D01*
X35072767Y26489093D01*
X35076201Y26502801D01*
X35080961Y26516106D01*
X35087003Y26528881D01*
X35094268Y26541002D01*
X35102686Y26552353D01*
X35112177Y26562823D01*
X35122647Y26572314D01*
X35133998Y26580732D01*
X35146119Y26587997D01*
X35158894Y26594039D01*
X35172199Y26598799D01*
X35185907Y26602233D01*
X35199886Y26604307D01*
X35214000Y26605000D01*
X36686000Y26605000D01*
X36700114Y26604307D01*
X36700114Y26604307D01*
G37*
D12*
X35950000Y26365000D03*
D10*
G36*
X42800114Y27874307D02*
G01*
X42814093Y27872233D01*
X42827801Y27868799D01*
X42841106Y27864039D01*
X42853881Y27857997D01*
X42866002Y27850732D01*
X42877353Y27842314D01*
X42887823Y27832823D01*
X42897314Y27822353D01*
X42905732Y27811002D01*
X42912997Y27798881D01*
X42919039Y27786106D01*
X42923799Y27772801D01*
X42927233Y27759093D01*
X42929307Y27745114D01*
X42930000Y27731000D01*
X42930000Y27539000D01*
X42929307Y27524886D01*
X42927233Y27510907D01*
X42923799Y27497199D01*
X42919039Y27483894D01*
X42912997Y27471119D01*
X42905732Y27458998D01*
X42897314Y27447647D01*
X42887823Y27437177D01*
X42877353Y27427686D01*
X42866002Y27419268D01*
X42853881Y27412003D01*
X42841106Y27405961D01*
X42827801Y27401201D01*
X42814093Y27397767D01*
X42800114Y27395693D01*
X42786000Y27395000D01*
X41314000Y27395000D01*
X41299886Y27395693D01*
X41285907Y27397767D01*
X41272199Y27401201D01*
X41258894Y27405961D01*
X41246119Y27412003D01*
X41233998Y27419268D01*
X41222647Y27427686D01*
X41212177Y27437177D01*
X41202686Y27447647D01*
X41194268Y27458998D01*
X41187003Y27471119D01*
X41180961Y27483894D01*
X41176201Y27497199D01*
X41172767Y27510907D01*
X41170693Y27524886D01*
X41170000Y27539000D01*
X41170000Y27731000D01*
X41170693Y27745114D01*
X41172767Y27759093D01*
X41176201Y27772801D01*
X41180961Y27786106D01*
X41187003Y27798881D01*
X41194268Y27811002D01*
X41202686Y27822353D01*
X41212177Y27832823D01*
X41222647Y27842314D01*
X41233998Y27850732D01*
X41246119Y27857997D01*
X41258894Y27864039D01*
X41272199Y27868799D01*
X41285907Y27872233D01*
X41299886Y27874307D01*
X41314000Y27875000D01*
X42786000Y27875000D01*
X42800114Y27874307D01*
X42800114Y27874307D01*
G37*
D12*
X42050000Y27635000D03*
D10*
G36*
X36700114Y25334307D02*
G01*
X36714093Y25332233D01*
X36727801Y25328799D01*
X36741106Y25324039D01*
X36753881Y25317997D01*
X36766002Y25310732D01*
X36777353Y25302314D01*
X36787823Y25292823D01*
X36797314Y25282353D01*
X36805732Y25271002D01*
X36812997Y25258881D01*
X36819039Y25246106D01*
X36823799Y25232801D01*
X36827233Y25219093D01*
X36829307Y25205114D01*
X36830000Y25191000D01*
X36830000Y24999000D01*
X36829307Y24984886D01*
X36827233Y24970907D01*
X36823799Y24957199D01*
X36819039Y24943894D01*
X36812997Y24931119D01*
X36805732Y24918998D01*
X36797314Y24907647D01*
X36787823Y24897177D01*
X36777353Y24887686D01*
X36766002Y24879268D01*
X36753881Y24872003D01*
X36741106Y24865961D01*
X36727801Y24861201D01*
X36714093Y24857767D01*
X36700114Y24855693D01*
X36686000Y24855000D01*
X35214000Y24855000D01*
X35199886Y24855693D01*
X35185907Y24857767D01*
X35172199Y24861201D01*
X35158894Y24865961D01*
X35146119Y24872003D01*
X35133998Y24879268D01*
X35122647Y24887686D01*
X35112177Y24897177D01*
X35102686Y24907647D01*
X35094268Y24918998D01*
X35087003Y24931119D01*
X35080961Y24943894D01*
X35076201Y24957199D01*
X35072767Y24970907D01*
X35070693Y24984886D01*
X35070000Y24999000D01*
X35070000Y25191000D01*
X35070693Y25205114D01*
X35072767Y25219093D01*
X35076201Y25232801D01*
X35080961Y25246106D01*
X35087003Y25258881D01*
X35094268Y25271002D01*
X35102686Y25282353D01*
X35112177Y25292823D01*
X35122647Y25302314D01*
X35133998Y25310732D01*
X35146119Y25317997D01*
X35158894Y25324039D01*
X35172199Y25328799D01*
X35185907Y25332233D01*
X35199886Y25334307D01*
X35214000Y25335000D01*
X36686000Y25335000D01*
X36700114Y25334307D01*
X36700114Y25334307D01*
G37*
D12*
X35950000Y25095000D03*
D10*
G36*
X42800114Y29144307D02*
G01*
X42814093Y29142233D01*
X42827801Y29138799D01*
X42841106Y29134039D01*
X42853881Y29127997D01*
X42866002Y29120732D01*
X42877353Y29112314D01*
X42887823Y29102823D01*
X42897314Y29092353D01*
X42905732Y29081002D01*
X42912997Y29068881D01*
X42919039Y29056106D01*
X42923799Y29042801D01*
X42927233Y29029093D01*
X42929307Y29015114D01*
X42930000Y29001000D01*
X42930000Y28809000D01*
X42929307Y28794886D01*
X42927233Y28780907D01*
X42923799Y28767199D01*
X42919039Y28753894D01*
X42912997Y28741119D01*
X42905732Y28728998D01*
X42897314Y28717647D01*
X42887823Y28707177D01*
X42877353Y28697686D01*
X42866002Y28689268D01*
X42853881Y28682003D01*
X42841106Y28675961D01*
X42827801Y28671201D01*
X42814093Y28667767D01*
X42800114Y28665693D01*
X42786000Y28665000D01*
X41314000Y28665000D01*
X41299886Y28665693D01*
X41285907Y28667767D01*
X41272199Y28671201D01*
X41258894Y28675961D01*
X41246119Y28682003D01*
X41233998Y28689268D01*
X41222647Y28697686D01*
X41212177Y28707177D01*
X41202686Y28717647D01*
X41194268Y28728998D01*
X41187003Y28741119D01*
X41180961Y28753894D01*
X41176201Y28767199D01*
X41172767Y28780907D01*
X41170693Y28794886D01*
X41170000Y28809000D01*
X41170000Y29001000D01*
X41170693Y29015114D01*
X41172767Y29029093D01*
X41176201Y29042801D01*
X41180961Y29056106D01*
X41187003Y29068881D01*
X41194268Y29081002D01*
X41202686Y29092353D01*
X41212177Y29102823D01*
X41222647Y29112314D01*
X41233998Y29120732D01*
X41246119Y29127997D01*
X41258894Y29134039D01*
X41272199Y29138799D01*
X41285907Y29142233D01*
X41299886Y29144307D01*
X41314000Y29145000D01*
X42786000Y29145000D01*
X42800114Y29144307D01*
X42800114Y29144307D01*
G37*
D12*
X42050000Y28905000D03*
M02*
