%TF.GenerationSoftware,KiCad,Pcbnew,5.1.0*%
%TF.CreationDate,2019-05-24T21:58:45+02:00*%
%TF.ProjectId,c4-blinkenrocket,63342d62-6c69-46e6-9b65-6e726f636b65,rev?*%
%TF.SameCoordinates,PX5f5e100PY8f0d180*%
%TF.FileFunction,Copper,L1,Top*%
%TF.FilePolarity,Positive*%
%FSLAX46Y46*%
G04 Gerber Fmt 4.6, Leading zero omitted, Abs format (unit mm)*
G04 Created by KiCad (PCBNEW 5.1.0) date 2019-05-24 21:58:45*
%MOMM*%
%LPD*%
G04 APERTURE LIST*
%ADD10C,0.081280*%
%ADD11C,0.150000*%
%ADD12C,2.300000*%
%ADD13C,1.800000*%
%ADD14R,1.800000X1.800000*%
%ADD15C,6.400000*%
%ADD16C,2.000000*%
%ADD17O,1.700000X1.700000*%
%ADD18R,1.700000X1.700000*%
%ADD19C,0.800000*%
%ADD20C,0.500000*%
%ADD21C,0.250000*%
%ADD22C,0.200000*%
G04 APERTURE END LIST*
D10*
X39172784Y74466247D02*
X38851051Y74925866D01*
X38621241Y74466247D02*
X38621241Y75431447D01*
X38988936Y75431447D01*
X39080860Y75385485D01*
X39126822Y75339524D01*
X39172784Y75247600D01*
X39172784Y75109714D01*
X39126822Y75017790D01*
X39080860Y74971828D01*
X38988936Y74925866D01*
X38621241Y74925866D01*
X39494517Y75431447D02*
X40137984Y75431447D01*
X39494517Y74466247D01*
X40137984Y74466247D01*
X40965298Y74466247D02*
X40505679Y74466247D01*
X40505679Y75431447D01*
X30366241Y71926247D02*
X30366241Y72569714D01*
X30366241Y72477790D02*
X30412203Y72523752D01*
X30504127Y72569714D01*
X30642012Y72569714D01*
X30733936Y72523752D01*
X30779898Y72431828D01*
X30779898Y71926247D01*
X30779898Y72431828D02*
X30825860Y72523752D01*
X30917784Y72569714D01*
X31055670Y72569714D01*
X31147593Y72523752D01*
X31193555Y72431828D01*
X31193555Y71926247D01*
X32020870Y71972209D02*
X31928946Y71926247D01*
X31745098Y71926247D01*
X31653174Y71972209D01*
X31607212Y72064133D01*
X31607212Y72431828D01*
X31653174Y72523752D01*
X31745098Y72569714D01*
X31928946Y72569714D01*
X32020870Y72523752D01*
X32066832Y72431828D01*
X32066832Y72339905D01*
X31607212Y72247981D01*
X32342603Y72569714D02*
X32710298Y72569714D01*
X32480489Y72891447D02*
X32480489Y72064133D01*
X32526451Y71972209D01*
X32618374Y71926247D01*
X32710298Y71926247D01*
X33445689Y71926247D02*
X33445689Y72431828D01*
X33399727Y72523752D01*
X33307803Y72569714D01*
X33123955Y72569714D01*
X33032032Y72523752D01*
X33445689Y71972209D02*
X33353765Y71926247D01*
X33123955Y71926247D01*
X33032032Y71972209D01*
X32986070Y72064133D01*
X32986070Y72156057D01*
X33032032Y72247981D01*
X33123955Y72293943D01*
X33353765Y72293943D01*
X33445689Y72339905D01*
X34043193Y71926247D02*
X33951270Y71972209D01*
X33905308Y72064133D01*
X33905308Y72891447D01*
X34824546Y71926247D02*
X34824546Y72431828D01*
X34778584Y72523752D01*
X34686660Y72569714D01*
X34502812Y72569714D01*
X34410889Y72523752D01*
X34824546Y71972209D02*
X34732622Y71926247D01*
X34502812Y71926247D01*
X34410889Y71972209D01*
X34364927Y72064133D01*
X34364927Y72156057D01*
X34410889Y72247981D01*
X34502812Y72293943D01*
X34732622Y72293943D01*
X34824546Y72339905D01*
X35284165Y71926247D02*
X35284165Y72891447D01*
X35284165Y72523752D02*
X35376089Y72569714D01*
X35559936Y72569714D01*
X35651860Y72523752D01*
X35697822Y72477790D01*
X35743784Y72385866D01*
X35743784Y72110095D01*
X35697822Y72018171D01*
X35651860Y71972209D01*
X35559936Y71926247D01*
X35376089Y71926247D01*
X35284165Y71972209D01*
X17620279Y69432209D02*
X17712203Y69386247D01*
X17896051Y69386247D01*
X17987974Y69432209D01*
X18033936Y69524133D01*
X18033936Y69570095D01*
X17987974Y69662019D01*
X17896051Y69707981D01*
X17758165Y69707981D01*
X17666241Y69753943D01*
X17620279Y69845866D01*
X17620279Y69891828D01*
X17666241Y69983752D01*
X17758165Y70029714D01*
X17896051Y70029714D01*
X17987974Y69983752D01*
X18447593Y69386247D02*
X18447593Y70351447D01*
X18861251Y69386247D02*
X18861251Y69891828D01*
X18815289Y69983752D01*
X18723365Y70029714D01*
X18585479Y70029714D01*
X18493555Y69983752D01*
X18447593Y69937790D01*
X19734527Y69386247D02*
X19734527Y69891828D01*
X19688565Y69983752D01*
X19596641Y70029714D01*
X19412793Y70029714D01*
X19320870Y69983752D01*
X19734527Y69432209D02*
X19642603Y69386247D01*
X19412793Y69386247D01*
X19320870Y69432209D01*
X19274908Y69524133D01*
X19274908Y69616057D01*
X19320870Y69707981D01*
X19412793Y69753943D01*
X19642603Y69753943D01*
X19734527Y69799905D01*
X20607803Y69432209D02*
X20515879Y69386247D01*
X20332032Y69386247D01*
X20240108Y69432209D01*
X20194146Y69478171D01*
X20148184Y69570095D01*
X20148184Y69845866D01*
X20194146Y69937790D01*
X20240108Y69983752D01*
X20332032Y70029714D01*
X20515879Y70029714D01*
X20607803Y69983752D01*
X21021460Y69386247D02*
X21021460Y70351447D01*
X21113384Y69753943D02*
X21389155Y69386247D01*
X21389155Y70029714D02*
X21021460Y69662019D01*
X21756851Y69432209D02*
X21848774Y69386247D01*
X22032622Y69386247D01*
X22124546Y69432209D01*
X22170508Y69524133D01*
X22170508Y69570095D01*
X22124546Y69662019D01*
X22032622Y69707981D01*
X21894736Y69707981D01*
X21802812Y69753943D01*
X21756851Y69845866D01*
X21756851Y69891828D01*
X21802812Y69983752D01*
X21894736Y70029714D01*
X22032622Y70029714D01*
X22124546Y69983752D01*
X22584165Y70029714D02*
X22584165Y69064514D01*
X22584165Y69983752D02*
X22676089Y70029714D01*
X22859936Y70029714D01*
X22951860Y69983752D01*
X22997822Y69937790D01*
X23043784Y69845866D01*
X23043784Y69570095D01*
X22997822Y69478171D01*
X22951860Y69432209D01*
X22859936Y69386247D01*
X22676089Y69386247D01*
X22584165Y69432209D01*
X23871098Y69386247D02*
X23871098Y69891828D01*
X23825136Y69983752D01*
X23733212Y70029714D01*
X23549365Y70029714D01*
X23457441Y69983752D01*
X23871098Y69432209D02*
X23779174Y69386247D01*
X23549365Y69386247D01*
X23457441Y69432209D01*
X23411479Y69524133D01*
X23411479Y69616057D01*
X23457441Y69707981D01*
X23549365Y69753943D01*
X23779174Y69753943D01*
X23871098Y69799905D01*
X24744374Y69432209D02*
X24652451Y69386247D01*
X24468603Y69386247D01*
X24376679Y69432209D01*
X24330717Y69478171D01*
X24284755Y69570095D01*
X24284755Y69845866D01*
X24330717Y69937790D01*
X24376679Y69983752D01*
X24468603Y70029714D01*
X24652451Y70029714D01*
X24744374Y69983752D01*
X25525727Y69432209D02*
X25433803Y69386247D01*
X25249955Y69386247D01*
X25158032Y69432209D01*
X25112070Y69524133D01*
X25112070Y69891828D01*
X25158032Y69983752D01*
X25249955Y70029714D01*
X25433803Y70029714D01*
X25525727Y69983752D01*
X25571689Y69891828D01*
X25571689Y69799905D01*
X25112070Y69707981D01*
X16809898Y71337209D02*
X16717974Y71291247D01*
X16534127Y71291247D01*
X16442203Y71337209D01*
X16396241Y71383171D01*
X16350279Y71475095D01*
X16350279Y71750866D01*
X16396241Y71842790D01*
X16442203Y71888752D01*
X16534127Y71934714D01*
X16717974Y71934714D01*
X16809898Y71888752D01*
X17223555Y71291247D02*
X17223555Y72256447D01*
X17637212Y71291247D02*
X17637212Y71796828D01*
X17591251Y71888752D01*
X17499327Y71934714D01*
X17361441Y71934714D01*
X17269517Y71888752D01*
X17223555Y71842790D01*
X18510489Y71291247D02*
X18510489Y71796828D01*
X18464527Y71888752D01*
X18372603Y71934714D01*
X18188755Y71934714D01*
X18096832Y71888752D01*
X18510489Y71337209D02*
X18418565Y71291247D01*
X18188755Y71291247D01*
X18096832Y71337209D01*
X18050870Y71429133D01*
X18050870Y71521057D01*
X18096832Y71612981D01*
X18188755Y71658943D01*
X18418565Y71658943D01*
X18510489Y71704905D01*
X19107993Y71291247D02*
X19016070Y71337209D01*
X18970108Y71383171D01*
X18924146Y71475095D01*
X18924146Y71750866D01*
X18970108Y71842790D01*
X19016070Y71888752D01*
X19107993Y71934714D01*
X19245879Y71934714D01*
X19337803Y71888752D01*
X19383765Y71842790D01*
X19429727Y71750866D01*
X19429727Y71475095D01*
X19383765Y71383171D01*
X19337803Y71337209D01*
X19245879Y71291247D01*
X19107993Y71291247D01*
X19797422Y71337209D02*
X19889346Y71291247D01*
X20073193Y71291247D01*
X20165117Y71337209D01*
X20211079Y71429133D01*
X20211079Y71475095D01*
X20165117Y71567019D01*
X20073193Y71612981D01*
X19935308Y71612981D01*
X19843384Y71658943D01*
X19797422Y71750866D01*
X19797422Y71796828D01*
X19843384Y71888752D01*
X19935308Y71934714D01*
X20073193Y71934714D01*
X20165117Y71888752D01*
X21038393Y71291247D02*
X21038393Y72256447D01*
X21038393Y71337209D02*
X20946470Y71291247D01*
X20762622Y71291247D01*
X20670698Y71337209D01*
X20624736Y71383171D01*
X20578774Y71475095D01*
X20578774Y71750866D01*
X20624736Y71842790D01*
X20670698Y71888752D01*
X20762622Y71934714D01*
X20946470Y71934714D01*
X21038393Y71888752D01*
X21635898Y71291247D02*
X21543974Y71337209D01*
X21498012Y71383171D01*
X21452051Y71475095D01*
X21452051Y71750866D01*
X21498012Y71842790D01*
X21543974Y71888752D01*
X21635898Y71934714D01*
X21773784Y71934714D01*
X21865708Y71888752D01*
X21911670Y71842790D01*
X21957632Y71750866D01*
X21957632Y71475095D01*
X21911670Y71383171D01*
X21865708Y71337209D01*
X21773784Y71291247D01*
X21635898Y71291247D01*
X22371289Y71291247D02*
X22371289Y71934714D01*
X22371289Y71750866D02*
X22417251Y71842790D01*
X22463212Y71888752D01*
X22555136Y71934714D01*
X22647060Y71934714D01*
X22830908Y71934714D02*
X23198603Y71934714D01*
X22968793Y71291247D02*
X22968793Y72118562D01*
X23014755Y72210485D01*
X23106679Y72256447D01*
X23198603Y72256447D01*
X15126241Y73196247D02*
X15126241Y73839714D01*
X15126241Y73747790D02*
X15172203Y73793752D01*
X15264127Y73839714D01*
X15402012Y73839714D01*
X15493936Y73793752D01*
X15539898Y73701828D01*
X15539898Y73196247D01*
X15539898Y73701828D02*
X15585860Y73793752D01*
X15677784Y73839714D01*
X15815670Y73839714D01*
X15907593Y73793752D01*
X15953555Y73701828D01*
X15953555Y73196247D01*
X16826832Y73839714D02*
X16826832Y73196247D01*
X16413174Y73839714D02*
X16413174Y73334133D01*
X16459136Y73242209D01*
X16551060Y73196247D01*
X16688946Y73196247D01*
X16780870Y73242209D01*
X16826832Y73288171D01*
X17194527Y73839714D02*
X17700108Y73839714D01*
X17194527Y73196247D01*
X17700108Y73196247D01*
X17975879Y73839714D02*
X18205689Y73196247D01*
X18435498Y73839714D02*
X18205689Y73196247D01*
X18113765Y72966438D01*
X18067803Y72920476D01*
X17975879Y72874514D01*
X30504127Y73831247D02*
X30412203Y73877209D01*
X30366241Y73923171D01*
X30320279Y74015095D01*
X30320279Y74290866D01*
X30366241Y74382790D01*
X30412203Y74428752D01*
X30504127Y74474714D01*
X30642012Y74474714D01*
X30733936Y74428752D01*
X30779898Y74382790D01*
X30825860Y74290866D01*
X30825860Y74015095D01*
X30779898Y73923171D01*
X30733936Y73877209D01*
X30642012Y73831247D01*
X30504127Y73831247D01*
X31147593Y74474714D02*
X31377403Y73831247D01*
X31607212Y74474714D01*
X32342603Y73877209D02*
X32250679Y73831247D01*
X32066832Y73831247D01*
X31974908Y73877209D01*
X31928946Y73969133D01*
X31928946Y74336828D01*
X31974908Y74428752D01*
X32066832Y74474714D01*
X32250679Y74474714D01*
X32342603Y74428752D01*
X32388565Y74336828D01*
X32388565Y74244905D01*
X31928946Y74152981D01*
X32802222Y73831247D02*
X32802222Y74474714D01*
X32802222Y74290866D02*
X32848184Y74382790D01*
X32894146Y74428752D01*
X32986070Y74474714D01*
X33077993Y74474714D01*
X33261841Y74474714D02*
X33629536Y74474714D01*
X33399727Y73831247D02*
X33399727Y74658562D01*
X33445689Y74750485D01*
X33537612Y74796447D01*
X33629536Y74796447D01*
X34089155Y73831247D02*
X33997232Y73877209D01*
X33951270Y73969133D01*
X33951270Y74796447D01*
X34594736Y73831247D02*
X34502812Y73877209D01*
X34456851Y73923171D01*
X34410889Y74015095D01*
X34410889Y74290866D01*
X34456851Y74382790D01*
X34502812Y74428752D01*
X34594736Y74474714D01*
X34732622Y74474714D01*
X34824546Y74428752D01*
X34870508Y74382790D01*
X34916470Y74290866D01*
X34916470Y74015095D01*
X34870508Y73923171D01*
X34824546Y73877209D01*
X34732622Y73831247D01*
X34594736Y73831247D01*
D11*
X8493601Y41400284D02*
G75*
G02X8493600Y38860285I-1813748J-1269999D01*
G01*
X8493601Y38860285D02*
G75*
G03X5953600Y760285I28064427J-21005629D01*
G01*
X13573600Y7745285D02*
G75*
G02X19288600Y19175285I9668372J2309564D01*
G01*
X21828600Y19810285D02*
X28178600Y19810285D01*
X28178600Y19810285D02*
G75*
G02X30718600Y19175285I-162149J-6046100D01*
G01*
X25003600Y96645284D02*
G75*
G02X41513600Y41400285I-21889669J-36631251D01*
G01*
X41513600Y41400285D02*
G75*
G03X41513600Y38860285I1813748J-1270000D01*
G01*
X41513600Y38860284D02*
G75*
G02X44053600Y760285I-28064427J-21005628D01*
G01*
X44053599Y760285D02*
G75*
G02X42148600Y760285I-952499J922906D01*
G01*
X42148600Y760285D02*
G75*
G02X37068600Y5840285I27666882J32746882D01*
G01*
X37068600Y5840284D02*
G75*
G02X36433600Y7745285I1332279J1502427D01*
G01*
X36433601Y7745286D02*
G75*
G03X30718600Y19175285I-9668372J2309563D01*
G01*
X21828600Y19810285D02*
G75*
G03X19288600Y19175285I162150J-6046100D01*
G01*
X25003601Y96645286D02*
G75*
G03X8493600Y41400285I21889669J-36631253D01*
G01*
X5953601Y760285D02*
G75*
G03X7858600Y760285I952499J922906D01*
G01*
X12938600Y5840285D02*
G75*
G03X13573600Y7745285I-1332278J1502426D01*
G01*
X7858600Y760285D02*
G75*
G03X12938600Y5840285I-27666882J32746882D01*
G01*
D12*
X14600000Y77500000D03*
X14600000Y80500000D03*
X35400000Y77500000D03*
X35400000Y80500000D03*
D13*
X13000000Y69890000D03*
X37000000Y69890000D03*
X13000000Y67350000D03*
X37000000Y67350000D03*
X13000000Y64810000D03*
X37000000Y64810000D03*
X13000000Y62270000D03*
X37000000Y62270000D03*
X13000000Y59730000D03*
X37000000Y59730000D03*
X13000000Y57190000D03*
X37000000Y57190000D03*
X13000000Y54650000D03*
X37000000Y54650000D03*
X13000000Y52110000D03*
D14*
X37000000Y52110000D03*
D15*
X42000000Y8250000D03*
X8250000Y8250000D03*
X25000000Y92000000D03*
D16*
X45500000Y18000000D03*
X45500000Y13500000D03*
X39000000Y18000000D03*
X39000000Y13500000D03*
X11000000Y18000000D03*
X11000000Y13500000D03*
X4500000Y18000000D03*
X4500000Y13500000D03*
D11*
G36*
X22588216Y29245666D02*
G01*
X22675582Y29232707D01*
X22761257Y29211246D01*
X22844416Y29181492D01*
X22924258Y29143729D01*
X23000014Y29098323D01*
X23070955Y29045709D01*
X23136397Y28986396D01*
X23195710Y28920954D01*
X23248324Y28850013D01*
X23293730Y28774257D01*
X23331493Y28694415D01*
X23361247Y28611256D01*
X23382708Y28525581D01*
X23395667Y28438215D01*
X23400001Y28350000D01*
X23400001Y27650000D01*
X23395667Y27561785D01*
X23382708Y27474419D01*
X23361247Y27388744D01*
X23331493Y27305585D01*
X23293730Y27225743D01*
X23248324Y27149987D01*
X23195710Y27079046D01*
X23136397Y27013604D01*
X23070955Y26954291D01*
X23000014Y26901677D01*
X22924258Y26856271D01*
X22844416Y26818508D01*
X22761257Y26788754D01*
X22675582Y26767293D01*
X22588216Y26754334D01*
X22500001Y26750000D01*
X22499999Y26750000D01*
X22411784Y26754334D01*
X22324418Y26767293D01*
X22238743Y26788754D01*
X22155584Y26818508D01*
X22075742Y26856271D01*
X21999986Y26901677D01*
X21929045Y26954291D01*
X21863603Y27013604D01*
X21804290Y27079046D01*
X21751676Y27149987D01*
X21706270Y27225743D01*
X21668507Y27305585D01*
X21638753Y27388744D01*
X21617292Y27474419D01*
X21604333Y27561785D01*
X21599999Y27650000D01*
X21599999Y28350000D01*
X21604333Y28438215D01*
X21617292Y28525581D01*
X21638753Y28611256D01*
X21668507Y28694415D01*
X21706270Y28774257D01*
X21751676Y28850013D01*
X21804290Y28920954D01*
X21863603Y28986396D01*
X21929045Y29045709D01*
X21999986Y29098323D01*
X22075742Y29143729D01*
X22155584Y29181492D01*
X22238743Y29211246D01*
X22324418Y29232707D01*
X22411784Y29245666D01*
X22499999Y29250000D01*
X22500001Y29250000D01*
X22588216Y29245666D01*
X22588216Y29245666D01*
G37*
D13*
X22500000Y28000000D03*
D11*
G36*
X27588216Y29245666D02*
G01*
X27675582Y29232707D01*
X27761257Y29211246D01*
X27844416Y29181492D01*
X27924258Y29143729D01*
X28000014Y29098323D01*
X28070955Y29045709D01*
X28136397Y28986396D01*
X28195710Y28920954D01*
X28248324Y28850013D01*
X28293730Y28774257D01*
X28331493Y28694415D01*
X28361247Y28611256D01*
X28382708Y28525581D01*
X28395667Y28438215D01*
X28400001Y28350000D01*
X28400001Y27650000D01*
X28395667Y27561785D01*
X28382708Y27474419D01*
X28361247Y27388744D01*
X28331493Y27305585D01*
X28293730Y27225743D01*
X28248324Y27149987D01*
X28195710Y27079046D01*
X28136397Y27013604D01*
X28070955Y26954291D01*
X28000014Y26901677D01*
X27924258Y26856271D01*
X27844416Y26818508D01*
X27761257Y26788754D01*
X27675582Y26767293D01*
X27588216Y26754334D01*
X27500001Y26750000D01*
X27499999Y26750000D01*
X27411784Y26754334D01*
X27324418Y26767293D01*
X27238743Y26788754D01*
X27155584Y26818508D01*
X27075742Y26856271D01*
X26999986Y26901677D01*
X26929045Y26954291D01*
X26863603Y27013604D01*
X26804290Y27079046D01*
X26751676Y27149987D01*
X26706270Y27225743D01*
X26668507Y27305585D01*
X26638753Y27388744D01*
X26617292Y27474419D01*
X26604333Y27561785D01*
X26599999Y27650000D01*
X26599999Y28350000D01*
X26604333Y28438215D01*
X26617292Y28525581D01*
X26638753Y28611256D01*
X26668507Y28694415D01*
X26706270Y28774257D01*
X26751676Y28850013D01*
X26804290Y28920954D01*
X26863603Y28986396D01*
X26929045Y29045709D01*
X26999986Y29098323D01*
X27075742Y29143729D01*
X27155584Y29181492D01*
X27238743Y29211246D01*
X27324418Y29232707D01*
X27411784Y29245666D01*
X27499999Y29250000D01*
X27500001Y29250000D01*
X27588216Y29245666D01*
X27588216Y29245666D01*
G37*
D13*
X27500000Y28000000D03*
D11*
G36*
X20088216Y29245666D02*
G01*
X20175582Y29232707D01*
X20261257Y29211246D01*
X20344416Y29181492D01*
X20424258Y29143729D01*
X20500014Y29098323D01*
X20570955Y29045709D01*
X20636397Y28986396D01*
X20695710Y28920954D01*
X20748324Y28850013D01*
X20793730Y28774257D01*
X20831493Y28694415D01*
X20861247Y28611256D01*
X20882708Y28525581D01*
X20895667Y28438215D01*
X20900001Y28350000D01*
X20900001Y27650000D01*
X20895667Y27561785D01*
X20882708Y27474419D01*
X20861247Y27388744D01*
X20831493Y27305585D01*
X20793730Y27225743D01*
X20748324Y27149987D01*
X20695710Y27079046D01*
X20636397Y27013604D01*
X20570955Y26954291D01*
X20500014Y26901677D01*
X20424258Y26856271D01*
X20344416Y26818508D01*
X20261257Y26788754D01*
X20175582Y26767293D01*
X20088216Y26754334D01*
X20000001Y26750000D01*
X19999999Y26750000D01*
X19911784Y26754334D01*
X19824418Y26767293D01*
X19738743Y26788754D01*
X19655584Y26818508D01*
X19575742Y26856271D01*
X19499986Y26901677D01*
X19429045Y26954291D01*
X19363603Y27013604D01*
X19304290Y27079046D01*
X19251676Y27149987D01*
X19206270Y27225743D01*
X19168507Y27305585D01*
X19138753Y27388744D01*
X19117292Y27474419D01*
X19104333Y27561785D01*
X19099999Y27650000D01*
X19099999Y28350000D01*
X19104333Y28438215D01*
X19117292Y28525581D01*
X19138753Y28611256D01*
X19168507Y28694415D01*
X19206270Y28774257D01*
X19251676Y28850013D01*
X19304290Y28920954D01*
X19363603Y28986396D01*
X19429045Y29045709D01*
X19499986Y29098323D01*
X19575742Y29143729D01*
X19655584Y29181492D01*
X19738743Y29211246D01*
X19824418Y29232707D01*
X19911784Y29245666D01*
X19999999Y29250000D01*
X20000001Y29250000D01*
X20088216Y29245666D01*
X20088216Y29245666D01*
G37*
D13*
X20000000Y28000000D03*
D11*
G36*
X30088216Y29245666D02*
G01*
X30175582Y29232707D01*
X30261257Y29211246D01*
X30344416Y29181492D01*
X30424258Y29143729D01*
X30500014Y29098323D01*
X30570955Y29045709D01*
X30636397Y28986396D01*
X30695710Y28920954D01*
X30748324Y28850013D01*
X30793730Y28774257D01*
X30831493Y28694415D01*
X30861247Y28611256D01*
X30882708Y28525581D01*
X30895667Y28438215D01*
X30900001Y28350000D01*
X30900001Y27650000D01*
X30895667Y27561785D01*
X30882708Y27474419D01*
X30861247Y27388744D01*
X30831493Y27305585D01*
X30793730Y27225743D01*
X30748324Y27149987D01*
X30695710Y27079046D01*
X30636397Y27013604D01*
X30570955Y26954291D01*
X30500014Y26901677D01*
X30424258Y26856271D01*
X30344416Y26818508D01*
X30261257Y26788754D01*
X30175582Y26767293D01*
X30088216Y26754334D01*
X30000001Y26750000D01*
X29999999Y26750000D01*
X29911784Y26754334D01*
X29824418Y26767293D01*
X29738743Y26788754D01*
X29655584Y26818508D01*
X29575742Y26856271D01*
X29499986Y26901677D01*
X29429045Y26954291D01*
X29363603Y27013604D01*
X29304290Y27079046D01*
X29251676Y27149987D01*
X29206270Y27225743D01*
X29168507Y27305585D01*
X29138753Y27388744D01*
X29117292Y27474419D01*
X29104333Y27561785D01*
X29099999Y27650000D01*
X29099999Y28350000D01*
X29104333Y28438215D01*
X29117292Y28525581D01*
X29138753Y28611256D01*
X29168507Y28694415D01*
X29206270Y28774257D01*
X29251676Y28850013D01*
X29304290Y28920954D01*
X29363603Y28986396D01*
X29429045Y29045709D01*
X29499986Y29098323D01*
X29575742Y29143729D01*
X29655584Y29181492D01*
X29738743Y29211246D01*
X29824418Y29232707D01*
X29911784Y29245666D01*
X29999999Y29250000D01*
X30000001Y29250000D01*
X30088216Y29245666D01*
X30088216Y29245666D01*
G37*
D13*
X30000000Y28000000D03*
D11*
G36*
X25438215Y23895667D02*
G01*
X25525581Y23882708D01*
X25611256Y23861247D01*
X25694415Y23831493D01*
X25774257Y23793730D01*
X25850013Y23748324D01*
X25920954Y23695710D01*
X25986396Y23636397D01*
X26045709Y23570955D01*
X26098323Y23500014D01*
X26143729Y23424258D01*
X26181492Y23344416D01*
X26211246Y23261257D01*
X26232707Y23175582D01*
X26245666Y23088216D01*
X26250000Y23000001D01*
X26250000Y22999999D01*
X26245666Y22911784D01*
X26232707Y22824418D01*
X26211246Y22738743D01*
X26181492Y22655584D01*
X26143729Y22575742D01*
X26098323Y22499986D01*
X26045709Y22429045D01*
X25986396Y22363603D01*
X25920954Y22304290D01*
X25850013Y22251676D01*
X25774257Y22206270D01*
X25694415Y22168507D01*
X25611256Y22138753D01*
X25525581Y22117292D01*
X25438215Y22104333D01*
X25350000Y22099999D01*
X24650000Y22099999D01*
X24561785Y22104333D01*
X24474419Y22117292D01*
X24388744Y22138753D01*
X24305585Y22168507D01*
X24225743Y22206270D01*
X24149987Y22251676D01*
X24079046Y22304290D01*
X24013604Y22363603D01*
X23954291Y22429045D01*
X23901677Y22499986D01*
X23856271Y22575742D01*
X23818508Y22655584D01*
X23788754Y22738743D01*
X23767293Y22824418D01*
X23754334Y22911784D01*
X23750000Y22999999D01*
X23750000Y23000001D01*
X23754334Y23088216D01*
X23767293Y23175582D01*
X23788754Y23261257D01*
X23818508Y23344416D01*
X23856271Y23424258D01*
X23901677Y23500014D01*
X23954291Y23570955D01*
X24013604Y23636397D01*
X24079046Y23695710D01*
X24149987Y23748324D01*
X24225743Y23793730D01*
X24305585Y23831493D01*
X24388744Y23861247D01*
X24474419Y23882708D01*
X24561785Y23895667D01*
X24650000Y23900001D01*
X25350000Y23900001D01*
X25438215Y23895667D01*
X25438215Y23895667D01*
G37*
D13*
X25000000Y23000000D03*
D17*
X6000000Y56880000D03*
X6000000Y59420000D03*
X6000000Y61960000D03*
D18*
X6000000Y64500000D03*
D17*
X44000000Y56880000D03*
X44000000Y59420000D03*
X44000000Y61960000D03*
D18*
X44000000Y64500000D03*
D17*
X27580000Y40540000D03*
X27580000Y38000000D03*
X25040000Y40540000D03*
X25040000Y38000000D03*
X22500000Y40540000D03*
D18*
X22500000Y38000000D03*
D19*
X17500000Y42500000D03*
X17500000Y37500000D03*
X17500000Y32500000D03*
X32500000Y37500000D03*
X32500000Y42500000D03*
X32500000Y27500000D03*
X32500000Y22500000D03*
X7500000Y22500000D03*
X7500000Y30000000D03*
X28925000Y78475000D03*
X25050000Y85200000D03*
X25050000Y87850000D03*
X21125000Y78475000D03*
X24750000Y67250000D03*
X18500000Y68000000D03*
X14000000Y32250000D03*
X14000000Y30250000D03*
X31050000Y77200000D03*
X18950000Y77200000D03*
X12500000Y48750000D03*
X23750000Y63000000D03*
X32250000Y55250000D03*
X22750000Y58250000D03*
X29500000Y65500000D03*
X28250000Y65500000D03*
X26200000Y65500000D03*
X31000000Y65500000D03*
X20750006Y65000000D03*
X32500000Y65500000D03*
X16250000Y56250000D03*
X26750000Y53750000D03*
X21000002Y51250000D03*
X27500000Y54800000D03*
X29250000Y50250000D03*
X21750000Y49250000D03*
X33000000Y34500000D03*
X33750000Y57000000D03*
X37500000Y35000000D03*
X33250000Y58500000D03*
D20*
X17000000Y75000000D02*
X32900000Y75000000D01*
X32900000Y75000000D02*
X35400000Y77500000D01*
X14600000Y77500000D02*
X14600000Y77400000D01*
X14600000Y77400000D02*
X17000000Y75000000D01*
D21*
X29750000Y53500000D02*
X29750000Y56250000D01*
X22250000Y57500000D02*
X21750000Y58000000D01*
X28500000Y57500000D02*
X22250000Y57500000D01*
X29750000Y56250000D02*
X28500000Y57500000D01*
X23350001Y62600001D02*
X23750000Y63000000D01*
X31750000Y51500000D02*
X29750000Y53500000D01*
X12899999Y48350001D02*
X30350001Y48350001D01*
X30350001Y48350001D02*
X31750000Y49750000D01*
X21750000Y61000000D02*
X23350001Y62600001D01*
X31750000Y49750000D02*
X31750000Y51500000D01*
X21750000Y58000000D02*
X21750000Y61000000D01*
X12500000Y48750000D02*
X12899999Y48350001D01*
X29500000Y39920000D02*
X27580000Y38000000D01*
X36500000Y50000000D02*
X29500000Y43000000D01*
X38000000Y50000000D02*
X36500000Y50000000D01*
X34000000Y55250000D02*
X35914999Y53335001D01*
X32250000Y55250000D02*
X34000000Y55250000D01*
X29500000Y43000000D02*
X29500000Y39920000D01*
X35914999Y53335001D02*
X38160001Y53335001D01*
X38160001Y53335001D02*
X38750000Y52745002D01*
X38750000Y50750000D02*
X38000000Y50000000D01*
X38750000Y52745002D02*
X38750000Y50750000D01*
X23864999Y39364999D02*
X24190001Y39690001D01*
X12750000Y46250000D02*
X16750000Y46250000D01*
X16750000Y46250000D02*
X19250000Y43750000D01*
X9500000Y49500000D02*
X12750000Y46250000D01*
X9500000Y60000000D02*
X9500000Y49500000D01*
X24190001Y39690001D02*
X25040000Y40540000D01*
X13000000Y62270000D02*
X11770000Y62270000D01*
X11770000Y62270000D02*
X9500000Y60000000D01*
X19250000Y38000000D02*
X21250000Y36000000D01*
X19250000Y43750000D02*
X19250000Y38000000D01*
X21250000Y36000000D02*
X23000000Y36000000D01*
X23000000Y36000000D02*
X23864999Y36864999D01*
X23864999Y36864999D02*
X23864999Y39364999D01*
X36990000Y52100000D02*
X37000000Y52110000D01*
X33640000Y52110000D02*
X37000000Y52110000D01*
X30500000Y55250000D02*
X33640000Y52110000D01*
X30500000Y56500000D02*
X30500000Y55250000D01*
X22750000Y58250000D02*
X28750000Y58250000D01*
X28750000Y58250000D02*
X30500000Y56500000D01*
X34390000Y49390000D02*
X34390000Y52110000D01*
X20500000Y40000000D02*
X20500000Y42250000D01*
X22500000Y38000000D02*
X20500000Y40000000D01*
X20500000Y42250000D02*
X22000000Y43750000D01*
X22000000Y43750000D02*
X28750000Y43750000D01*
X28750000Y43750000D02*
X34390000Y49390000D01*
X44000000Y59500000D02*
X44000000Y59420000D01*
X39000000Y68750000D02*
X41250000Y66500000D01*
X39000000Y70750000D02*
X39000000Y68750000D01*
X38000000Y71750000D02*
X39000000Y70750000D01*
X29500000Y65500000D02*
X29500000Y67250000D01*
X41250000Y62250000D02*
X44000000Y59500000D01*
X30000000Y67750000D02*
X32121139Y67750000D01*
X41250000Y66500000D02*
X41250000Y62250000D01*
X29500000Y67250000D02*
X30000000Y67750000D01*
X32121139Y67750000D02*
X36121139Y71750000D01*
X36121139Y71750000D02*
X38000000Y71750000D01*
X42250000Y63710000D02*
X44000000Y61960000D01*
X40000000Y69250000D02*
X42250000Y67000000D01*
X28250000Y71250000D02*
X30257097Y73257097D01*
X42250000Y67000000D02*
X42250000Y63710000D01*
X30257097Y73257097D02*
X37992903Y73257097D01*
X28250000Y65500000D02*
X28250000Y71250000D01*
X37992903Y73257097D02*
X40000000Y71250000D01*
X40000000Y71250000D02*
X40000000Y69250000D01*
X9500000Y62920000D02*
X6000000Y59420000D01*
X11250000Y72500000D02*
X9500000Y70750000D01*
X16250000Y68000000D02*
X16250000Y71000000D01*
X9500000Y70750000D02*
X9500000Y62920000D01*
X26200000Y65500000D02*
X22000000Y65500000D01*
X14750000Y72500000D02*
X11250000Y72500000D01*
X16250000Y71000000D02*
X14750000Y72500000D01*
X22000000Y65500000D02*
X21600001Y65899999D01*
X21600001Y65899999D02*
X18350001Y65899999D01*
X18350001Y65899999D02*
X16250000Y68000000D01*
X30000000Y64500000D02*
X31000000Y65500000D01*
X27250000Y65250000D02*
X28000000Y64500000D01*
X28000000Y64500000D02*
X30000000Y64500000D01*
X23750000Y73000000D02*
X27250000Y69500000D01*
X27250000Y69500000D02*
X27250000Y65250000D01*
X8250000Y64210000D02*
X8250000Y71500000D01*
X19900000Y73000000D02*
X23750000Y73000000D01*
X8250000Y71500000D02*
X11100000Y74350000D01*
X6000000Y61960000D02*
X8250000Y64210000D01*
X11100000Y74350000D02*
X18550000Y74350000D01*
X18550000Y74350000D02*
X19900000Y73000000D01*
X10750000Y70250000D02*
X12000000Y71500000D01*
X18000000Y65000000D02*
X20750006Y65000000D01*
X15250000Y67750000D02*
X18000000Y65000000D01*
X11000000Y46500000D02*
X8250000Y49250000D01*
X15250000Y70500006D02*
X15250000Y67750000D01*
X11000000Y18000000D02*
X11000000Y46500000D01*
X10750000Y62750000D02*
X10750000Y70250000D01*
X14250006Y71500000D02*
X15250000Y70500006D01*
X8250000Y49250000D02*
X8250000Y60250000D01*
X12000000Y71500000D02*
X14250006Y71500000D01*
X8250000Y60250000D02*
X10750000Y62750000D01*
X39000000Y33000000D02*
X39000000Y18000000D01*
X40000000Y61750000D02*
X42250000Y59500000D01*
X42250000Y59500000D02*
X42250000Y45750000D01*
X39750000Y36250000D02*
X39750000Y33750000D01*
X37588001Y68575001D02*
X40000000Y66163002D01*
X40000000Y66163002D02*
X40000000Y61750000D01*
X38500000Y37500000D02*
X39750000Y36250000D01*
X38500000Y42000000D02*
X38500000Y37500000D01*
X35575001Y68575001D02*
X37588001Y68575001D01*
X42250000Y45750000D02*
X38500000Y42000000D01*
X32500000Y65500000D02*
X35575001Y68575001D01*
X39750000Y33750000D02*
X39000000Y33000000D01*
X25040000Y35960000D02*
X25040000Y38000000D01*
X41330948Y46580948D02*
X37250000Y42500000D01*
X41330948Y58919052D02*
X41330948Y46580948D01*
X39000000Y61250000D02*
X41330948Y58919052D01*
X37000000Y67350000D02*
X39000000Y65350000D01*
X39000000Y65350000D02*
X39000000Y61250000D01*
X38750000Y35500000D02*
X38750000Y34250000D01*
X38750000Y34250000D02*
X37750000Y33250000D01*
X37250000Y37000000D02*
X38750000Y35500000D01*
X37750000Y33250000D02*
X27750000Y33250000D01*
X37250000Y42500000D02*
X37250000Y37000000D01*
X27750000Y33250000D02*
X25040000Y35960000D01*
X14500000Y67000000D02*
X16250000Y65250000D01*
X13000000Y69890000D02*
X14500000Y68390000D01*
X16250000Y65250000D02*
X16250000Y56815685D01*
X16250000Y56815685D02*
X16250000Y56250000D01*
X14500000Y68390000D02*
X14500000Y67000000D01*
X14250000Y50250000D02*
X17750000Y53750000D01*
X17750000Y53750000D02*
X26750000Y53750000D01*
X11000000Y51750000D02*
X12500000Y50250000D01*
X15000000Y65350000D02*
X15000000Y61500000D01*
X14500000Y61000000D02*
X12000000Y61000000D01*
X13000000Y67350000D02*
X15000000Y65350000D01*
X15000000Y61500000D02*
X14500000Y61000000D01*
X12500000Y50250000D02*
X14250000Y50250000D01*
X11000000Y60000000D02*
X11000000Y51750000D01*
X12000000Y61000000D02*
X11000000Y60000000D01*
X28750000Y53000000D02*
X27000000Y51250000D01*
X22000000Y56000000D02*
X28000000Y56000000D01*
X28750000Y55250000D02*
X28750000Y53000000D01*
X20500000Y62000000D02*
X20500000Y57500000D01*
X28000000Y56000000D02*
X28750000Y55250000D01*
X27000000Y51250000D02*
X21565687Y51250000D01*
X37000000Y62270000D02*
X35520000Y63750000D01*
X35520000Y63750000D02*
X22250000Y63750000D01*
X22250000Y63750000D02*
X20500000Y62000000D01*
X21565687Y51250000D02*
X21000002Y51250000D01*
X20500000Y57500000D02*
X22000000Y56000000D01*
X14400000Y55700000D02*
X14400000Y58330000D01*
X13899999Y58830001D02*
X13000000Y59730000D01*
X14400000Y58330000D02*
X13899999Y58830001D01*
X15300000Y54800000D02*
X14400000Y55700000D01*
X27500000Y54800000D02*
X15300000Y54800000D01*
X29250000Y50250000D02*
X28250000Y49250000D01*
X28250000Y49250000D02*
X22315685Y49250000D01*
X22315685Y49250000D02*
X21750000Y49250000D01*
X34785001Y55964999D02*
X34149999Y56600001D01*
X33000000Y34500000D02*
X35000000Y36500000D01*
X39500000Y55000000D02*
X38535001Y55964999D01*
X34149999Y56600001D02*
X33750000Y57000000D01*
X35000000Y44000000D02*
X39500000Y48500000D01*
X38535001Y55964999D02*
X34785001Y55964999D01*
X35000000Y36500000D02*
X35000000Y44000000D01*
X39500000Y48500000D02*
X39500000Y55000000D01*
X40500000Y56500000D02*
X38500000Y58500000D01*
X37500000Y35000000D02*
X36000000Y36500000D01*
X36000000Y36500000D02*
X36000000Y43250000D01*
X38500000Y58500000D02*
X33815685Y58500000D01*
X40500000Y47750000D02*
X40500000Y56500000D01*
X33815685Y58500000D02*
X33250000Y58500000D01*
X36000000Y43250000D02*
X40500000Y47750000D01*
D22*
G36*
X7525000Y49285597D02*
G01*
X7521494Y49250000D01*
X7525000Y49214403D01*
X7525000Y49214394D01*
X7535491Y49107876D01*
X7563711Y49014848D01*
X7576947Y48971213D01*
X7644269Y48845264D01*
X7707195Y48768589D01*
X7734868Y48734869D01*
X7762524Y48712172D01*
X10275001Y46199694D01*
X10275000Y19431523D01*
X10242116Y19417902D01*
X9980059Y19242801D01*
X9757199Y19019941D01*
X9582098Y18757884D01*
X9461487Y18466703D01*
X9400000Y18157586D01*
X9400000Y17842414D01*
X9461487Y17533297D01*
X9582098Y17242116D01*
X9757199Y16980059D01*
X9980059Y16757199D01*
X10242116Y16582098D01*
X10533297Y16461487D01*
X10842414Y16400000D01*
X11157586Y16400000D01*
X11466703Y16461487D01*
X11757884Y16582098D01*
X12019941Y16757199D01*
X12242801Y16980059D01*
X12417902Y17242116D01*
X12538513Y17533297D01*
X12600000Y17842414D01*
X12600000Y18157586D01*
X12538513Y18466703D01*
X12417902Y18757884D01*
X12242801Y19019941D01*
X12019941Y19242801D01*
X11757884Y19417902D01*
X11725000Y19431523D01*
X11725000Y23118190D01*
X18800000Y23118190D01*
X18800000Y22881810D01*
X18846116Y22649973D01*
X18936574Y22431587D01*
X19067899Y22235045D01*
X19235045Y22067899D01*
X19431587Y21936574D01*
X19649973Y21846116D01*
X19881810Y21800000D01*
X20118190Y21800000D01*
X20350027Y21846116D01*
X20568413Y21936574D01*
X20764955Y22067899D01*
X20797056Y22100000D01*
X23139058Y22100000D01*
X23150797Y21980811D01*
X23185563Y21866203D01*
X23242020Y21760579D01*
X23317999Y21667999D01*
X23410579Y21592020D01*
X23516203Y21535563D01*
X23630811Y21500797D01*
X23750000Y21489058D01*
X24694000Y21492000D01*
X24846000Y21644000D01*
X24846000Y22846000D01*
X25154000Y22846000D01*
X25154000Y21644000D01*
X25306000Y21492000D01*
X26250000Y21489058D01*
X26369189Y21500797D01*
X26483797Y21535563D01*
X26589421Y21592020D01*
X26682001Y21667999D01*
X26757980Y21760579D01*
X26814437Y21866203D01*
X26849203Y21980811D01*
X26860942Y22100000D01*
X26858000Y22694000D01*
X26706000Y22846000D01*
X25154000Y22846000D01*
X24846000Y22846000D01*
X23294000Y22846000D01*
X23142000Y22694000D01*
X23139058Y22100000D01*
X20797056Y22100000D01*
X20932101Y22235045D01*
X21063426Y22431587D01*
X21153884Y22649973D01*
X21200000Y22881810D01*
X21200000Y23118190D01*
X28800000Y23118190D01*
X28800000Y22881810D01*
X28846116Y22649973D01*
X28936574Y22431587D01*
X29067899Y22235045D01*
X29235045Y22067899D01*
X29431587Y21936574D01*
X29649973Y21846116D01*
X29881810Y21800000D01*
X30118190Y21800000D01*
X30350027Y21846116D01*
X30568413Y21936574D01*
X30764955Y22067899D01*
X30932101Y22235045D01*
X31063426Y22431587D01*
X31153884Y22649973D01*
X31200000Y22881810D01*
X31200000Y23118190D01*
X31153884Y23350027D01*
X31063426Y23568413D01*
X30932101Y23764955D01*
X30764955Y23932101D01*
X30568413Y24063426D01*
X30350027Y24153884D01*
X30118190Y24200000D01*
X29881810Y24200000D01*
X29649973Y24153884D01*
X29431587Y24063426D01*
X29235045Y23932101D01*
X29067899Y23764955D01*
X28936574Y23568413D01*
X28846116Y23350027D01*
X28800000Y23118190D01*
X21200000Y23118190D01*
X21153884Y23350027D01*
X21063426Y23568413D01*
X20932101Y23764955D01*
X20797056Y23900000D01*
X23139058Y23900000D01*
X23142000Y23306000D01*
X23294000Y23154000D01*
X24846000Y23154000D01*
X24846000Y24356000D01*
X25154000Y24356000D01*
X25154000Y23154000D01*
X26706000Y23154000D01*
X26858000Y23306000D01*
X26860942Y23900000D01*
X26849203Y24019189D01*
X26814437Y24133797D01*
X26757980Y24239421D01*
X26682001Y24332001D01*
X26589421Y24407980D01*
X26483797Y24464437D01*
X26369189Y24499203D01*
X26250000Y24510942D01*
X25306000Y24508000D01*
X25154000Y24356000D01*
X24846000Y24356000D01*
X24694000Y24508000D01*
X23750000Y24510942D01*
X23630811Y24499203D01*
X23516203Y24464437D01*
X23410579Y24407980D01*
X23317999Y24332001D01*
X23242020Y24239421D01*
X23185563Y24133797D01*
X23150797Y24019189D01*
X23139058Y23900000D01*
X20797056Y23900000D01*
X20764955Y23932101D01*
X20568413Y24063426D01*
X20350027Y24153884D01*
X20118190Y24200000D01*
X19881810Y24200000D01*
X19649973Y24153884D01*
X19431587Y24063426D01*
X19235045Y23932101D01*
X19067899Y23764955D01*
X18936574Y23568413D01*
X18846116Y23350027D01*
X18800000Y23118190D01*
X11725000Y23118190D01*
X11725000Y28350000D01*
X18497096Y28350000D01*
X18497096Y27650000D01*
X18525974Y27356798D01*
X18611498Y27074864D01*
X18750381Y26815032D01*
X18937286Y26587287D01*
X19165031Y26400382D01*
X19424863Y26261499D01*
X19706797Y26175975D01*
X19999999Y26147097D01*
X20000001Y26147097D01*
X20293203Y26175975D01*
X20575137Y26261499D01*
X20834969Y26400382D01*
X21062714Y26587287D01*
X21249619Y26815032D01*
X21250000Y26815745D01*
X21250381Y26815032D01*
X21437286Y26587287D01*
X21665031Y26400382D01*
X21924863Y26261499D01*
X22206797Y26175975D01*
X22499999Y26147097D01*
X22500001Y26147097D01*
X22793203Y26175975D01*
X23075137Y26261499D01*
X23334969Y26400382D01*
X23562714Y26587287D01*
X23749619Y26815032D01*
X23888502Y27074864D01*
X23974026Y27356798D01*
X23975634Y27373129D01*
X24067899Y27235045D01*
X24235045Y27067899D01*
X24431587Y26936574D01*
X24649973Y26846116D01*
X24881810Y26800000D01*
X25118190Y26800000D01*
X25350027Y26846116D01*
X25568413Y26936574D01*
X25764955Y27067899D01*
X25932101Y27235045D01*
X26024366Y27373129D01*
X26025974Y27356798D01*
X26111498Y27074864D01*
X26250381Y26815032D01*
X26437286Y26587287D01*
X26665031Y26400382D01*
X26924863Y26261499D01*
X27206797Y26175975D01*
X27499999Y26147097D01*
X27500001Y26147097D01*
X27793203Y26175975D01*
X28075137Y26261499D01*
X28334969Y26400382D01*
X28562714Y26587287D01*
X28749619Y26815032D01*
X28750000Y26815745D01*
X28750381Y26815032D01*
X28937286Y26587287D01*
X29165031Y26400382D01*
X29424863Y26261499D01*
X29706797Y26175975D01*
X29999999Y26147097D01*
X30000001Y26147097D01*
X30293203Y26175975D01*
X30575137Y26261499D01*
X30834969Y26400382D01*
X31062714Y26587287D01*
X31249619Y26815032D01*
X31388502Y27074864D01*
X31474026Y27356798D01*
X31502904Y27650000D01*
X31502904Y28350000D01*
X31474026Y28643202D01*
X31388502Y28925136D01*
X31249619Y29184968D01*
X31062714Y29412713D01*
X30834969Y29599618D01*
X30575137Y29738501D01*
X30293203Y29824025D01*
X30000001Y29852903D01*
X29999999Y29852903D01*
X29706797Y29824025D01*
X29424863Y29738501D01*
X29165031Y29599618D01*
X28937286Y29412713D01*
X28750381Y29184968D01*
X28750000Y29184255D01*
X28749619Y29184968D01*
X28562714Y29412713D01*
X28334969Y29599618D01*
X28075137Y29738501D01*
X27793203Y29824025D01*
X27500001Y29852903D01*
X27499999Y29852903D01*
X27206797Y29824025D01*
X26924863Y29738501D01*
X26665031Y29599618D01*
X26437286Y29412713D01*
X26250381Y29184968D01*
X26111498Y28925136D01*
X26025974Y28643202D01*
X26024366Y28626871D01*
X25932101Y28764955D01*
X25764955Y28932101D01*
X25568413Y29063426D01*
X25350027Y29153884D01*
X25118190Y29200000D01*
X24881810Y29200000D01*
X24649973Y29153884D01*
X24431587Y29063426D01*
X24235045Y28932101D01*
X24067899Y28764955D01*
X23975634Y28626871D01*
X23974026Y28643202D01*
X23888502Y28925136D01*
X23749619Y29184968D01*
X23562714Y29412713D01*
X23334969Y29599618D01*
X23075137Y29738501D01*
X22793203Y29824025D01*
X22500001Y29852903D01*
X22499999Y29852903D01*
X22206797Y29824025D01*
X21924863Y29738501D01*
X21665031Y29599618D01*
X21437286Y29412713D01*
X21250381Y29184968D01*
X21250000Y29184255D01*
X21249619Y29184968D01*
X21062714Y29412713D01*
X20834969Y29599618D01*
X20575137Y29738501D01*
X20293203Y29824025D01*
X20000001Y29852903D01*
X19999999Y29852903D01*
X19706797Y29824025D01*
X19424863Y29738501D01*
X19165031Y29599618D01*
X18937286Y29412713D01*
X18750381Y29184968D01*
X18611498Y28925136D01*
X18525974Y28643202D01*
X18497096Y28350000D01*
X11725000Y28350000D01*
X11725000Y46249695D01*
X12212172Y45762523D01*
X12234868Y45734868D01*
X12262523Y45712172D01*
X12262525Y45712170D01*
X12312318Y45671306D01*
X12345263Y45644269D01*
X12471212Y45576947D01*
X12607875Y45535491D01*
X12714393Y45525000D01*
X12714402Y45525000D01*
X12749999Y45521494D01*
X12785596Y45525000D01*
X16449696Y45525000D01*
X18525000Y43449695D01*
X18525001Y38035607D01*
X18521494Y38000000D01*
X18535492Y37857876D01*
X18576947Y37721213D01*
X18644269Y37595264D01*
X18712170Y37512526D01*
X18712173Y37512523D01*
X18734869Y37484868D01*
X18762523Y37462173D01*
X20712172Y35512523D01*
X20734868Y35484868D01*
X20762523Y35462172D01*
X20762525Y35462170D01*
X20813955Y35419963D01*
X20845263Y35394269D01*
X20971212Y35326947D01*
X21107875Y35285491D01*
X21214393Y35275000D01*
X21214402Y35275000D01*
X21249999Y35271494D01*
X21285596Y35275000D01*
X22964403Y35275000D01*
X23000000Y35271494D01*
X23035597Y35275000D01*
X23035607Y35275000D01*
X23142125Y35285491D01*
X23278788Y35326947D01*
X23404737Y35394269D01*
X23515132Y35484868D01*
X23537832Y35512528D01*
X24315000Y36289695D01*
X24315000Y35995597D01*
X24311494Y35960000D01*
X24315000Y35924403D01*
X24315000Y35924394D01*
X24325491Y35817876D01*
X24365802Y35684988D01*
X24366947Y35681213D01*
X24434269Y35555264D01*
X24494567Y35481791D01*
X24524868Y35444869D01*
X24552524Y35422172D01*
X27212172Y32762523D01*
X27234868Y32734868D01*
X27262523Y32712172D01*
X27262525Y32712170D01*
X27344832Y32644623D01*
X27345263Y32644269D01*
X27471212Y32576947D01*
X27607875Y32535491D01*
X27714393Y32525000D01*
X27714403Y32525000D01*
X27750000Y32521494D01*
X27785597Y32525000D01*
X37714403Y32525000D01*
X37750000Y32521494D01*
X37785597Y32525000D01*
X37785607Y32525000D01*
X37892125Y32535491D01*
X38028788Y32576947D01*
X38154737Y32644269D01*
X38265132Y32734868D01*
X38275000Y32746892D01*
X38275001Y19431523D01*
X38242116Y19417902D01*
X37980059Y19242801D01*
X37757199Y19019941D01*
X37582098Y18757884D01*
X37461487Y18466703D01*
X37400000Y18157586D01*
X37400000Y17842414D01*
X37461487Y17533297D01*
X37582098Y17242116D01*
X37757199Y16980059D01*
X37980059Y16757199D01*
X38242116Y16582098D01*
X38533297Y16461487D01*
X38842414Y16400000D01*
X39157586Y16400000D01*
X39466703Y16461487D01*
X39757884Y16582098D01*
X40019941Y16757199D01*
X40242801Y16980059D01*
X40417902Y17242116D01*
X40538513Y17533297D01*
X40600000Y17842414D01*
X40600000Y18157586D01*
X43900000Y18157586D01*
X43900000Y17842414D01*
X43961487Y17533297D01*
X44082098Y17242116D01*
X44257199Y16980059D01*
X44480059Y16757199D01*
X44742116Y16582098D01*
X45033297Y16461487D01*
X45342414Y16400000D01*
X45657586Y16400000D01*
X45966703Y16461487D01*
X46257884Y16582098D01*
X46519941Y16757199D01*
X46742801Y16980059D01*
X46917902Y17242116D01*
X47038513Y17533297D01*
X47100000Y17842414D01*
X47100000Y18157586D01*
X47038513Y18466703D01*
X46917902Y18757884D01*
X46742801Y19019941D01*
X46519941Y19242801D01*
X46257884Y19417902D01*
X45966703Y19538513D01*
X45657586Y19600000D01*
X45342414Y19600000D01*
X45033297Y19538513D01*
X44742116Y19417902D01*
X44480059Y19242801D01*
X44257199Y19019941D01*
X44082098Y18757884D01*
X43961487Y18466703D01*
X43900000Y18157586D01*
X40600000Y18157586D01*
X40538513Y18466703D01*
X40417902Y18757884D01*
X40242801Y19019941D01*
X40019941Y19242801D01*
X39757884Y19417902D01*
X39725000Y19431523D01*
X39725000Y32699696D01*
X40237477Y33212172D01*
X40265132Y33234868D01*
X40301176Y33278787D01*
X40355731Y33345263D01*
X40423053Y33471212D01*
X40429361Y33492008D01*
X40464509Y33607875D01*
X40475000Y33714393D01*
X40475000Y33714402D01*
X40478506Y33749999D01*
X40475000Y33785596D01*
X40475000Y36214403D01*
X40478506Y36250000D01*
X40475000Y36285597D01*
X40475000Y36285607D01*
X40464509Y36392125D01*
X40423053Y36528788D01*
X40355731Y36654737D01*
X40352091Y36659172D01*
X40287830Y36737475D01*
X40287823Y36737482D01*
X40265131Y36765132D01*
X40237482Y36787823D01*
X39225000Y37800304D01*
X39225000Y41699696D01*
X42189704Y44664399D01*
X41925857Y43968397D01*
X40920542Y41727414D01*
X40891505Y41683709D01*
X40874350Y41651445D01*
X40854450Y41620802D01*
X40850172Y41612405D01*
X40656681Y41226012D01*
X40634750Y41168879D01*
X40612037Y41112093D01*
X40609470Y41103025D01*
X40494716Y40686409D01*
X40484299Y40626105D01*
X40473049Y40565990D01*
X40472294Y40556605D01*
X40472292Y40556595D01*
X40472292Y40556586D01*
X40440644Y40125625D01*
X40442138Y40064488D01*
X40442779Y40003287D01*
X40443862Y39993926D01*
X40496526Y39565015D01*
X40509874Y39505302D01*
X40522383Y39445424D01*
X40525264Y39436451D01*
X40660234Y39025937D01*
X40684929Y38969945D01*
X40708827Y38913647D01*
X40713396Y38905404D01*
X40925531Y38528925D01*
X40926045Y38528191D01*
X40927356Y38525706D01*
X40950818Y38487588D01*
X40960092Y38473950D01*
X42277698Y36586194D01*
X43455731Y34634431D01*
X44501822Y32608890D01*
X45411369Y30518479D01*
X46180385Y28372362D01*
X46805472Y26180021D01*
X47283892Y23951063D01*
X47613539Y21695298D01*
X47792961Y19422660D01*
X47821372Y17143099D01*
X47698648Y14866695D01*
X47425324Y12603410D01*
X47002608Y10363233D01*
X46432352Y8155983D01*
X45717070Y5991385D01*
X44859902Y3878946D01*
X43861527Y1821586D01*
X43520595Y1193302D01*
X43470056Y1150435D01*
X43359548Y1088917D01*
X43239201Y1050037D01*
X43113583Y1035271D01*
X42987498Y1045185D01*
X42865745Y1079399D01*
X42752946Y1136615D01*
X42632439Y1231091D01*
X42624230Y1239243D01*
X42623333Y1239974D01*
X42599330Y1262747D01*
X40720849Y2947826D01*
X38958472Y4728351D01*
X37573364Y6288435D01*
X37570600Y6291368D01*
X37569946Y6292254D01*
X37563588Y6299209D01*
X37342137Y6538062D01*
X37206008Y6759035D01*
X37115394Y7002232D01*
X37073744Y7258402D01*
X37083376Y7539119D01*
X37095817Y7612951D01*
X37122512Y7728258D01*
X37126375Y7751507D01*
X37131530Y7774502D01*
X37266650Y8624267D01*
X38200000Y8624267D01*
X38200000Y7875733D01*
X38346031Y7141581D01*
X38632483Y6450025D01*
X39048347Y5827641D01*
X39577641Y5298347D01*
X40200025Y4882483D01*
X40891581Y4596031D01*
X41625733Y4450000D01*
X42374267Y4450000D01*
X43108419Y4596031D01*
X43799975Y4882483D01*
X44422359Y5298347D01*
X44951653Y5827641D01*
X45367517Y6450025D01*
X45653969Y7141581D01*
X45800000Y7875733D01*
X45800000Y8624267D01*
X45653969Y9358419D01*
X45367517Y10049975D01*
X44951653Y10672359D01*
X44422359Y11201653D01*
X43799975Y11617517D01*
X43108419Y11903969D01*
X42374267Y12050000D01*
X41625733Y12050000D01*
X40891581Y11903969D01*
X40200025Y11617517D01*
X39577641Y11201653D01*
X39048347Y10672359D01*
X38632483Y10049975D01*
X38346031Y9358419D01*
X38200000Y8624267D01*
X37266650Y8624267D01*
X37327563Y9007339D01*
X37330067Y9033655D01*
X37335592Y9091725D01*
X37375564Y10339411D01*
X37372953Y10424138D01*
X37256233Y11666994D01*
X37243023Y11750726D01*
X37106823Y12361801D01*
X38079590Y12361801D01*
X38179181Y12108238D01*
X38466472Y11974846D01*
X38774265Y11900066D01*
X39090735Y11886770D01*
X39403716Y11935469D01*
X39701184Y12044292D01*
X39820819Y12108238D01*
X39920410Y12361801D01*
X44579590Y12361801D01*
X44679181Y12108238D01*
X44966472Y11974846D01*
X45274265Y11900066D01*
X45590735Y11886770D01*
X45903716Y11935469D01*
X46201184Y12044292D01*
X46320819Y12108238D01*
X46420410Y12361801D01*
X45500000Y13282211D01*
X44579590Y12361801D01*
X39920410Y12361801D01*
X39000000Y13282211D01*
X38079590Y12361801D01*
X37106823Y12361801D01*
X36971452Y12969154D01*
X36964611Y12992753D01*
X36947853Y13050569D01*
X36818962Y13409265D01*
X37386770Y13409265D01*
X37435469Y13096284D01*
X37544292Y12798816D01*
X37608238Y12679181D01*
X37861801Y12579590D01*
X38782211Y13500000D01*
X39217789Y13500000D01*
X40138199Y12579590D01*
X40391762Y12679181D01*
X40525154Y12966472D01*
X40599934Y13274265D01*
X40605605Y13409265D01*
X43886770Y13409265D01*
X43935469Y13096284D01*
X44044292Y12798816D01*
X44108238Y12679181D01*
X44361801Y12579590D01*
X45282211Y13500000D01*
X45717789Y13500000D01*
X46638199Y12579590D01*
X46891762Y12679181D01*
X47025154Y12966472D01*
X47099934Y13274265D01*
X47113230Y13590735D01*
X47064531Y13903716D01*
X46955708Y14201184D01*
X46891762Y14320819D01*
X46638199Y14420410D01*
X45717789Y13500000D01*
X45282211Y13500000D01*
X44361801Y14420410D01*
X44108238Y14320819D01*
X43974846Y14033528D01*
X43900066Y13725735D01*
X43886770Y13409265D01*
X40605605Y13409265D01*
X40613230Y13590735D01*
X40564531Y13903716D01*
X40455708Y14201184D01*
X40391762Y14320819D01*
X40138199Y14420410D01*
X39217789Y13500000D01*
X38782211Y13500000D01*
X37861801Y14420410D01*
X37608238Y14320819D01*
X37474846Y14033528D01*
X37400066Y13725735D01*
X37386770Y13409265D01*
X36818962Y13409265D01*
X36525715Y14225352D01*
X36492097Y14303168D01*
X36492097Y14303169D01*
X36321648Y14638199D01*
X38079590Y14638199D01*
X39000000Y13717789D01*
X39920410Y14638199D01*
X44579590Y14638199D01*
X45500000Y13717789D01*
X46420410Y14638199D01*
X46320819Y14891762D01*
X46033528Y15025154D01*
X45725735Y15099934D01*
X45409265Y15113230D01*
X45096284Y15064531D01*
X44798816Y14955708D01*
X44679181Y14891762D01*
X44579590Y14638199D01*
X39920410Y14638199D01*
X39820819Y14891762D01*
X39533528Y15025154D01*
X39225735Y15099934D01*
X38909265Y15113230D01*
X38596284Y15064531D01*
X38298816Y14955708D01*
X38179181Y14891762D01*
X38079590Y14638199D01*
X36321648Y14638199D01*
X35926047Y15415781D01*
X35903676Y15453661D01*
X35882942Y15488770D01*
X35181909Y16521663D01*
X35135089Y16582098D01*
X35129995Y16588674D01*
X34305034Y17525560D01*
X34273561Y17557071D01*
X34245131Y17585536D01*
X33309252Y18411639D01*
X33255573Y18453329D01*
X33242305Y18463634D01*
X32210267Y19165927D01*
X32137330Y19209121D01*
X31025410Y19776527D01*
X31013436Y19781717D01*
X30984904Y19795533D01*
X30975279Y19799665D01*
X31063426Y19931587D01*
X31153884Y20149973D01*
X31200000Y20381810D01*
X31200000Y20618190D01*
X31153884Y20850027D01*
X31063426Y21068413D01*
X30932101Y21264955D01*
X30764955Y21432101D01*
X30568413Y21563426D01*
X30350027Y21653884D01*
X30118190Y21700000D01*
X29881810Y21700000D01*
X29649973Y21653884D01*
X29431587Y21563426D01*
X29235045Y21432101D01*
X29067899Y21264955D01*
X28936574Y21068413D01*
X28846116Y20850027D01*
X28800000Y20618190D01*
X28800000Y20422369D01*
X28313828Y20474637D01*
X28310923Y20475518D01*
X28211759Y20485285D01*
X21795441Y20485285D01*
X21767091Y20482493D01*
X21200000Y20434511D01*
X21200000Y20618190D01*
X21153884Y20850027D01*
X21063426Y21068413D01*
X20932101Y21264955D01*
X20764955Y21432101D01*
X20568413Y21563426D01*
X20350027Y21653884D01*
X20118190Y21700000D01*
X19881810Y21700000D01*
X19649973Y21653884D01*
X19431587Y21563426D01*
X19235045Y21432101D01*
X19067899Y21264955D01*
X18936574Y21068413D01*
X18846116Y20850027D01*
X18800000Y20618190D01*
X18800000Y20381810D01*
X18846116Y20149973D01*
X18936574Y19931587D01*
X19026690Y19796719D01*
X19015829Y19792716D01*
X18888873Y19736629D01*
X18867956Y19725770D01*
X18846469Y19716098D01*
X17742580Y19133223D01*
X17670254Y19089014D01*
X16648122Y18372380D01*
X16581906Y18319455D01*
X15657655Y17480367D01*
X15657654Y17480366D01*
X15598594Y17419559D01*
X14786794Y16471246D01*
X14764236Y16441272D01*
X14735821Y16403516D01*
X14049278Y15360936D01*
X14029264Y15325939D01*
X14007196Y15287352D01*
X13456736Y14166946D01*
X13424208Y14088668D01*
X13018513Y12908105D01*
X12996052Y12826368D01*
X12741520Y11604268D01*
X12741240Y11602313D01*
X12729481Y11520360D01*
X12630125Y10275995D01*
X12628974Y10207650D01*
X12628698Y10191239D01*
X12686087Y8944234D01*
X12695293Y8859968D01*
X12904625Y7652456D01*
X12936104Y7351187D01*
X12912423Y7092730D01*
X12838995Y6843802D01*
X12718616Y6613881D01*
X12542480Y6395084D01*
X12473406Y6329386D01*
X12471621Y6327321D01*
X12462082Y6318361D01*
X12436138Y6291015D01*
X10751059Y4412534D01*
X8970534Y2650157D01*
X7416134Y1270096D01*
X7275056Y1150435D01*
X7164548Y1088917D01*
X7044201Y1050037D01*
X6918583Y1035271D01*
X6792498Y1045185D01*
X6670745Y1079399D01*
X6557946Y1136615D01*
X6492539Y1187894D01*
X5498134Y3115679D01*
X4589611Y5206543D01*
X3821653Y7353030D01*
X3459869Y8624267D01*
X4450000Y8624267D01*
X4450000Y7875733D01*
X4596031Y7141581D01*
X4882483Y6450025D01*
X5298347Y5827641D01*
X5827641Y5298347D01*
X6450025Y4882483D01*
X7141581Y4596031D01*
X7875733Y4450000D01*
X8624267Y4450000D01*
X9358419Y4596031D01*
X10049975Y4882483D01*
X10672359Y5298347D01*
X11201653Y5827641D01*
X11617517Y6450025D01*
X11903969Y7141581D01*
X12050000Y7875733D01*
X12050000Y8624267D01*
X11903969Y9358419D01*
X11617517Y10049975D01*
X11201653Y10672359D01*
X10672359Y11201653D01*
X10049975Y11617517D01*
X9358419Y11903969D01*
X8624267Y12050000D01*
X7875733Y12050000D01*
X7141581Y11903969D01*
X6450025Y11617517D01*
X5827641Y11201653D01*
X5298347Y10672359D01*
X4882483Y10049975D01*
X4596031Y9358419D01*
X4450000Y8624267D01*
X3459869Y8624267D01*
X3197639Y9545689D01*
X2720318Y11774864D01*
X2634841Y12361801D01*
X3579590Y12361801D01*
X3679181Y12108238D01*
X3966472Y11974846D01*
X4274265Y11900066D01*
X4590735Y11886770D01*
X4903716Y11935469D01*
X5201184Y12044292D01*
X5320819Y12108238D01*
X5420410Y12361801D01*
X10079590Y12361801D01*
X10179181Y12108238D01*
X10466472Y11974846D01*
X10774265Y11900066D01*
X11090735Y11886770D01*
X11403716Y11935469D01*
X11701184Y12044292D01*
X11820819Y12108238D01*
X11920410Y12361801D01*
X11000000Y13282211D01*
X10079590Y12361801D01*
X5420410Y12361801D01*
X4500000Y13282211D01*
X3579590Y12361801D01*
X2634841Y12361801D01*
X2482295Y13409265D01*
X2886770Y13409265D01*
X2935469Y13096284D01*
X3044292Y12798816D01*
X3108238Y12679181D01*
X3361801Y12579590D01*
X4282211Y13500000D01*
X4717789Y13500000D01*
X5638199Y12579590D01*
X5891762Y12679181D01*
X6025154Y12966472D01*
X6099934Y13274265D01*
X6105605Y13409265D01*
X9386770Y13409265D01*
X9435469Y13096284D01*
X9544292Y12798816D01*
X9608238Y12679181D01*
X9861801Y12579590D01*
X10782211Y13500000D01*
X11217789Y13500000D01*
X12138199Y12579590D01*
X12391762Y12679181D01*
X12525154Y12966472D01*
X12599934Y13274265D01*
X12613230Y13590735D01*
X12564531Y13903716D01*
X12455708Y14201184D01*
X12391762Y14320819D01*
X12138199Y14420410D01*
X11217789Y13500000D01*
X10782211Y13500000D01*
X9861801Y14420410D01*
X9608238Y14320819D01*
X9474846Y14033528D01*
X9400066Y13725735D01*
X9386770Y13409265D01*
X6105605Y13409265D01*
X6113230Y13590735D01*
X6064531Y13903716D01*
X5955708Y14201184D01*
X5891762Y14320819D01*
X5638199Y14420410D01*
X4717789Y13500000D01*
X4282211Y13500000D01*
X3361801Y14420410D01*
X3108238Y14320819D01*
X2974846Y14033528D01*
X2900066Y13725735D01*
X2886770Y13409265D01*
X2482295Y13409265D01*
X2391778Y14030801D01*
X2344126Y14638199D01*
X3579590Y14638199D01*
X4500000Y13717789D01*
X5420410Y14638199D01*
X10079590Y14638199D01*
X11000000Y13717789D01*
X11920410Y14638199D01*
X11820819Y14891762D01*
X11533528Y15025154D01*
X11225735Y15099934D01*
X10909265Y15113230D01*
X10596284Y15064531D01*
X10298816Y14955708D01*
X10179181Y14891762D01*
X10079590Y14638199D01*
X5420410Y14638199D01*
X5320819Y14891762D01*
X5033528Y15025154D01*
X4725735Y15099934D01*
X4409265Y15113230D01*
X4096284Y15064531D01*
X3798816Y14955708D01*
X3679181Y14891762D01*
X3579590Y14638199D01*
X2344126Y14638199D01*
X2213473Y16303525D01*
X2191277Y18157586D01*
X2900000Y18157586D01*
X2900000Y17842414D01*
X2961487Y17533297D01*
X3082098Y17242116D01*
X3257199Y16980059D01*
X3480059Y16757199D01*
X3742116Y16582098D01*
X4033297Y16461487D01*
X4342414Y16400000D01*
X4657586Y16400000D01*
X4966703Y16461487D01*
X5257884Y16582098D01*
X5519941Y16757199D01*
X5742801Y16980059D01*
X5917902Y17242116D01*
X6038513Y17533297D01*
X6100000Y17842414D01*
X6100000Y18157586D01*
X6038513Y18466703D01*
X5917902Y18757884D01*
X5742801Y19019941D01*
X5519941Y19242801D01*
X5257884Y19417902D01*
X4966703Y19538513D01*
X4657586Y19600000D01*
X4342414Y19600000D01*
X4033297Y19538513D01*
X3742116Y19417902D01*
X3480059Y19242801D01*
X3257199Y19019941D01*
X3082098Y18757884D01*
X2961487Y18466703D01*
X2900000Y18157586D01*
X2191277Y18157586D01*
X2186182Y18583101D01*
X2310025Y20859446D01*
X2584459Y23122582D01*
X3008279Y25362573D01*
X3579617Y27569536D01*
X4295965Y29733787D01*
X5154167Y31845798D01*
X6150460Y33896298D01*
X7280451Y35876254D01*
X8543098Y37782886D01*
X9038896Y38462443D01*
X9048211Y38476142D01*
X9050551Y38478931D01*
X9055821Y38486744D01*
X9115695Y38576861D01*
X9132851Y38609126D01*
X9152749Y38639767D01*
X9157028Y38648164D01*
X9350519Y39034556D01*
X9372448Y39091685D01*
X9395163Y39148476D01*
X9397729Y39157544D01*
X9512484Y39574159D01*
X9522898Y39634451D01*
X9534151Y39694580D01*
X9534907Y39703973D01*
X9566556Y40134945D01*
X9565062Y40196083D01*
X9564421Y40257280D01*
X9563338Y40266642D01*
X9510675Y40695553D01*
X9497324Y40755283D01*
X9484818Y40815145D01*
X9481940Y40824110D01*
X9481938Y40824117D01*
X9481935Y40824123D01*
X9346967Y41234631D01*
X9322290Y41290581D01*
X9298374Y41346922D01*
X9293806Y41355165D01*
X9096831Y41704737D01*
X8081350Y43968384D01*
X7198050Y46298440D01*
X6454499Y48676757D01*
X5853304Y51094992D01*
X5396589Y53544607D01*
X5123719Y55716428D01*
X5353700Y55573065D01*
X5621089Y55472091D01*
X5846000Y55582150D01*
X5846000Y56726000D01*
X6154000Y56726000D01*
X6154000Y55582150D01*
X6378911Y55472091D01*
X6646300Y55573065D01*
X6888852Y55724264D01*
X7097246Y55919878D01*
X7263473Y56152389D01*
X7381146Y56412861D01*
X7407903Y56501090D01*
X7296889Y56726000D01*
X6154000Y56726000D01*
X5846000Y56726000D01*
X5826000Y56726000D01*
X5826000Y57034000D01*
X5846000Y57034000D01*
X5846000Y57054000D01*
X6154000Y57054000D01*
X6154000Y57034000D01*
X7296889Y57034000D01*
X7407903Y57258910D01*
X7381146Y57347139D01*
X7263473Y57607611D01*
X7097246Y57840122D01*
X6888852Y58035736D01*
X6702970Y58151609D01*
X6809474Y58208536D01*
X7030265Y58389735D01*
X7211464Y58610526D01*
X7346106Y58862424D01*
X7429019Y59135750D01*
X7457015Y59420000D01*
X7429019Y59704250D01*
X7401214Y59795910D01*
X7525001Y59919697D01*
X7525000Y49285597D01*
X7525000Y49285597D01*
G37*
X7525000Y49285597D02*
X7521494Y49250000D01*
X7525000Y49214403D01*
X7525000Y49214394D01*
X7535491Y49107876D01*
X7563711Y49014848D01*
X7576947Y48971213D01*
X7644269Y48845264D01*
X7707195Y48768589D01*
X7734868Y48734869D01*
X7762524Y48712172D01*
X10275001Y46199694D01*
X10275000Y19431523D01*
X10242116Y19417902D01*
X9980059Y19242801D01*
X9757199Y19019941D01*
X9582098Y18757884D01*
X9461487Y18466703D01*
X9400000Y18157586D01*
X9400000Y17842414D01*
X9461487Y17533297D01*
X9582098Y17242116D01*
X9757199Y16980059D01*
X9980059Y16757199D01*
X10242116Y16582098D01*
X10533297Y16461487D01*
X10842414Y16400000D01*
X11157586Y16400000D01*
X11466703Y16461487D01*
X11757884Y16582098D01*
X12019941Y16757199D01*
X12242801Y16980059D01*
X12417902Y17242116D01*
X12538513Y17533297D01*
X12600000Y17842414D01*
X12600000Y18157586D01*
X12538513Y18466703D01*
X12417902Y18757884D01*
X12242801Y19019941D01*
X12019941Y19242801D01*
X11757884Y19417902D01*
X11725000Y19431523D01*
X11725000Y23118190D01*
X18800000Y23118190D01*
X18800000Y22881810D01*
X18846116Y22649973D01*
X18936574Y22431587D01*
X19067899Y22235045D01*
X19235045Y22067899D01*
X19431587Y21936574D01*
X19649973Y21846116D01*
X19881810Y21800000D01*
X20118190Y21800000D01*
X20350027Y21846116D01*
X20568413Y21936574D01*
X20764955Y22067899D01*
X20797056Y22100000D01*
X23139058Y22100000D01*
X23150797Y21980811D01*
X23185563Y21866203D01*
X23242020Y21760579D01*
X23317999Y21667999D01*
X23410579Y21592020D01*
X23516203Y21535563D01*
X23630811Y21500797D01*
X23750000Y21489058D01*
X24694000Y21492000D01*
X24846000Y21644000D01*
X24846000Y22846000D01*
X25154000Y22846000D01*
X25154000Y21644000D01*
X25306000Y21492000D01*
X26250000Y21489058D01*
X26369189Y21500797D01*
X26483797Y21535563D01*
X26589421Y21592020D01*
X26682001Y21667999D01*
X26757980Y21760579D01*
X26814437Y21866203D01*
X26849203Y21980811D01*
X26860942Y22100000D01*
X26858000Y22694000D01*
X26706000Y22846000D01*
X25154000Y22846000D01*
X24846000Y22846000D01*
X23294000Y22846000D01*
X23142000Y22694000D01*
X23139058Y22100000D01*
X20797056Y22100000D01*
X20932101Y22235045D01*
X21063426Y22431587D01*
X21153884Y22649973D01*
X21200000Y22881810D01*
X21200000Y23118190D01*
X28800000Y23118190D01*
X28800000Y22881810D01*
X28846116Y22649973D01*
X28936574Y22431587D01*
X29067899Y22235045D01*
X29235045Y22067899D01*
X29431587Y21936574D01*
X29649973Y21846116D01*
X29881810Y21800000D01*
X30118190Y21800000D01*
X30350027Y21846116D01*
X30568413Y21936574D01*
X30764955Y22067899D01*
X30932101Y22235045D01*
X31063426Y22431587D01*
X31153884Y22649973D01*
X31200000Y22881810D01*
X31200000Y23118190D01*
X31153884Y23350027D01*
X31063426Y23568413D01*
X30932101Y23764955D01*
X30764955Y23932101D01*
X30568413Y24063426D01*
X30350027Y24153884D01*
X30118190Y24200000D01*
X29881810Y24200000D01*
X29649973Y24153884D01*
X29431587Y24063426D01*
X29235045Y23932101D01*
X29067899Y23764955D01*
X28936574Y23568413D01*
X28846116Y23350027D01*
X28800000Y23118190D01*
X21200000Y23118190D01*
X21153884Y23350027D01*
X21063426Y23568413D01*
X20932101Y23764955D01*
X20797056Y23900000D01*
X23139058Y23900000D01*
X23142000Y23306000D01*
X23294000Y23154000D01*
X24846000Y23154000D01*
X24846000Y24356000D01*
X25154000Y24356000D01*
X25154000Y23154000D01*
X26706000Y23154000D01*
X26858000Y23306000D01*
X26860942Y23900000D01*
X26849203Y24019189D01*
X26814437Y24133797D01*
X26757980Y24239421D01*
X26682001Y24332001D01*
X26589421Y24407980D01*
X26483797Y24464437D01*
X26369189Y24499203D01*
X26250000Y24510942D01*
X25306000Y24508000D01*
X25154000Y24356000D01*
X24846000Y24356000D01*
X24694000Y24508000D01*
X23750000Y24510942D01*
X23630811Y24499203D01*
X23516203Y24464437D01*
X23410579Y24407980D01*
X23317999Y24332001D01*
X23242020Y24239421D01*
X23185563Y24133797D01*
X23150797Y24019189D01*
X23139058Y23900000D01*
X20797056Y23900000D01*
X20764955Y23932101D01*
X20568413Y24063426D01*
X20350027Y24153884D01*
X20118190Y24200000D01*
X19881810Y24200000D01*
X19649973Y24153884D01*
X19431587Y24063426D01*
X19235045Y23932101D01*
X19067899Y23764955D01*
X18936574Y23568413D01*
X18846116Y23350027D01*
X18800000Y23118190D01*
X11725000Y23118190D01*
X11725000Y28350000D01*
X18497096Y28350000D01*
X18497096Y27650000D01*
X18525974Y27356798D01*
X18611498Y27074864D01*
X18750381Y26815032D01*
X18937286Y26587287D01*
X19165031Y26400382D01*
X19424863Y26261499D01*
X19706797Y26175975D01*
X19999999Y26147097D01*
X20000001Y26147097D01*
X20293203Y26175975D01*
X20575137Y26261499D01*
X20834969Y26400382D01*
X21062714Y26587287D01*
X21249619Y26815032D01*
X21250000Y26815745D01*
X21250381Y26815032D01*
X21437286Y26587287D01*
X21665031Y26400382D01*
X21924863Y26261499D01*
X22206797Y26175975D01*
X22499999Y26147097D01*
X22500001Y26147097D01*
X22793203Y26175975D01*
X23075137Y26261499D01*
X23334969Y26400382D01*
X23562714Y26587287D01*
X23749619Y26815032D01*
X23888502Y27074864D01*
X23974026Y27356798D01*
X23975634Y27373129D01*
X24067899Y27235045D01*
X24235045Y27067899D01*
X24431587Y26936574D01*
X24649973Y26846116D01*
X24881810Y26800000D01*
X25118190Y26800000D01*
X25350027Y26846116D01*
X25568413Y26936574D01*
X25764955Y27067899D01*
X25932101Y27235045D01*
X26024366Y27373129D01*
X26025974Y27356798D01*
X26111498Y27074864D01*
X26250381Y26815032D01*
X26437286Y26587287D01*
X26665031Y26400382D01*
X26924863Y26261499D01*
X27206797Y26175975D01*
X27499999Y26147097D01*
X27500001Y26147097D01*
X27793203Y26175975D01*
X28075137Y26261499D01*
X28334969Y26400382D01*
X28562714Y26587287D01*
X28749619Y26815032D01*
X28750000Y26815745D01*
X28750381Y26815032D01*
X28937286Y26587287D01*
X29165031Y26400382D01*
X29424863Y26261499D01*
X29706797Y26175975D01*
X29999999Y26147097D01*
X30000001Y26147097D01*
X30293203Y26175975D01*
X30575137Y26261499D01*
X30834969Y26400382D01*
X31062714Y26587287D01*
X31249619Y26815032D01*
X31388502Y27074864D01*
X31474026Y27356798D01*
X31502904Y27650000D01*
X31502904Y28350000D01*
X31474026Y28643202D01*
X31388502Y28925136D01*
X31249619Y29184968D01*
X31062714Y29412713D01*
X30834969Y29599618D01*
X30575137Y29738501D01*
X30293203Y29824025D01*
X30000001Y29852903D01*
X29999999Y29852903D01*
X29706797Y29824025D01*
X29424863Y29738501D01*
X29165031Y29599618D01*
X28937286Y29412713D01*
X28750381Y29184968D01*
X28750000Y29184255D01*
X28749619Y29184968D01*
X28562714Y29412713D01*
X28334969Y29599618D01*
X28075137Y29738501D01*
X27793203Y29824025D01*
X27500001Y29852903D01*
X27499999Y29852903D01*
X27206797Y29824025D01*
X26924863Y29738501D01*
X26665031Y29599618D01*
X26437286Y29412713D01*
X26250381Y29184968D01*
X26111498Y28925136D01*
X26025974Y28643202D01*
X26024366Y28626871D01*
X25932101Y28764955D01*
X25764955Y28932101D01*
X25568413Y29063426D01*
X25350027Y29153884D01*
X25118190Y29200000D01*
X24881810Y29200000D01*
X24649973Y29153884D01*
X24431587Y29063426D01*
X24235045Y28932101D01*
X24067899Y28764955D01*
X23975634Y28626871D01*
X23974026Y28643202D01*
X23888502Y28925136D01*
X23749619Y29184968D01*
X23562714Y29412713D01*
X23334969Y29599618D01*
X23075137Y29738501D01*
X22793203Y29824025D01*
X22500001Y29852903D01*
X22499999Y29852903D01*
X22206797Y29824025D01*
X21924863Y29738501D01*
X21665031Y29599618D01*
X21437286Y29412713D01*
X21250381Y29184968D01*
X21250000Y29184255D01*
X21249619Y29184968D01*
X21062714Y29412713D01*
X20834969Y29599618D01*
X20575137Y29738501D01*
X20293203Y29824025D01*
X20000001Y29852903D01*
X19999999Y29852903D01*
X19706797Y29824025D01*
X19424863Y29738501D01*
X19165031Y29599618D01*
X18937286Y29412713D01*
X18750381Y29184968D01*
X18611498Y28925136D01*
X18525974Y28643202D01*
X18497096Y28350000D01*
X11725000Y28350000D01*
X11725000Y46249695D01*
X12212172Y45762523D01*
X12234868Y45734868D01*
X12262523Y45712172D01*
X12262525Y45712170D01*
X12312318Y45671306D01*
X12345263Y45644269D01*
X12471212Y45576947D01*
X12607875Y45535491D01*
X12714393Y45525000D01*
X12714402Y45525000D01*
X12749999Y45521494D01*
X12785596Y45525000D01*
X16449696Y45525000D01*
X18525000Y43449695D01*
X18525001Y38035607D01*
X18521494Y38000000D01*
X18535492Y37857876D01*
X18576947Y37721213D01*
X18644269Y37595264D01*
X18712170Y37512526D01*
X18712173Y37512523D01*
X18734869Y37484868D01*
X18762523Y37462173D01*
X20712172Y35512523D01*
X20734868Y35484868D01*
X20762523Y35462172D01*
X20762525Y35462170D01*
X20813955Y35419963D01*
X20845263Y35394269D01*
X20971212Y35326947D01*
X21107875Y35285491D01*
X21214393Y35275000D01*
X21214402Y35275000D01*
X21249999Y35271494D01*
X21285596Y35275000D01*
X22964403Y35275000D01*
X23000000Y35271494D01*
X23035597Y35275000D01*
X23035607Y35275000D01*
X23142125Y35285491D01*
X23278788Y35326947D01*
X23404737Y35394269D01*
X23515132Y35484868D01*
X23537832Y35512528D01*
X24315000Y36289695D01*
X24315000Y35995597D01*
X24311494Y35960000D01*
X24315000Y35924403D01*
X24315000Y35924394D01*
X24325491Y35817876D01*
X24365802Y35684988D01*
X24366947Y35681213D01*
X24434269Y35555264D01*
X24494567Y35481791D01*
X24524868Y35444869D01*
X24552524Y35422172D01*
X27212172Y32762523D01*
X27234868Y32734868D01*
X27262523Y32712172D01*
X27262525Y32712170D01*
X27344832Y32644623D01*
X27345263Y32644269D01*
X27471212Y32576947D01*
X27607875Y32535491D01*
X27714393Y32525000D01*
X27714403Y32525000D01*
X27750000Y32521494D01*
X27785597Y32525000D01*
X37714403Y32525000D01*
X37750000Y32521494D01*
X37785597Y32525000D01*
X37785607Y32525000D01*
X37892125Y32535491D01*
X38028788Y32576947D01*
X38154737Y32644269D01*
X38265132Y32734868D01*
X38275000Y32746892D01*
X38275001Y19431523D01*
X38242116Y19417902D01*
X37980059Y19242801D01*
X37757199Y19019941D01*
X37582098Y18757884D01*
X37461487Y18466703D01*
X37400000Y18157586D01*
X37400000Y17842414D01*
X37461487Y17533297D01*
X37582098Y17242116D01*
X37757199Y16980059D01*
X37980059Y16757199D01*
X38242116Y16582098D01*
X38533297Y16461487D01*
X38842414Y16400000D01*
X39157586Y16400000D01*
X39466703Y16461487D01*
X39757884Y16582098D01*
X40019941Y16757199D01*
X40242801Y16980059D01*
X40417902Y17242116D01*
X40538513Y17533297D01*
X40600000Y17842414D01*
X40600000Y18157586D01*
X43900000Y18157586D01*
X43900000Y17842414D01*
X43961487Y17533297D01*
X44082098Y17242116D01*
X44257199Y16980059D01*
X44480059Y16757199D01*
X44742116Y16582098D01*
X45033297Y16461487D01*
X45342414Y16400000D01*
X45657586Y16400000D01*
X45966703Y16461487D01*
X46257884Y16582098D01*
X46519941Y16757199D01*
X46742801Y16980059D01*
X46917902Y17242116D01*
X47038513Y17533297D01*
X47100000Y17842414D01*
X47100000Y18157586D01*
X47038513Y18466703D01*
X46917902Y18757884D01*
X46742801Y19019941D01*
X46519941Y19242801D01*
X46257884Y19417902D01*
X45966703Y19538513D01*
X45657586Y19600000D01*
X45342414Y19600000D01*
X45033297Y19538513D01*
X44742116Y19417902D01*
X44480059Y19242801D01*
X44257199Y19019941D01*
X44082098Y18757884D01*
X43961487Y18466703D01*
X43900000Y18157586D01*
X40600000Y18157586D01*
X40538513Y18466703D01*
X40417902Y18757884D01*
X40242801Y19019941D01*
X40019941Y19242801D01*
X39757884Y19417902D01*
X39725000Y19431523D01*
X39725000Y32699696D01*
X40237477Y33212172D01*
X40265132Y33234868D01*
X40301176Y33278787D01*
X40355731Y33345263D01*
X40423053Y33471212D01*
X40429361Y33492008D01*
X40464509Y33607875D01*
X40475000Y33714393D01*
X40475000Y33714402D01*
X40478506Y33749999D01*
X40475000Y33785596D01*
X40475000Y36214403D01*
X40478506Y36250000D01*
X40475000Y36285597D01*
X40475000Y36285607D01*
X40464509Y36392125D01*
X40423053Y36528788D01*
X40355731Y36654737D01*
X40352091Y36659172D01*
X40287830Y36737475D01*
X40287823Y36737482D01*
X40265131Y36765132D01*
X40237482Y36787823D01*
X39225000Y37800304D01*
X39225000Y41699696D01*
X42189704Y44664399D01*
X41925857Y43968397D01*
X40920542Y41727414D01*
X40891505Y41683709D01*
X40874350Y41651445D01*
X40854450Y41620802D01*
X40850172Y41612405D01*
X40656681Y41226012D01*
X40634750Y41168879D01*
X40612037Y41112093D01*
X40609470Y41103025D01*
X40494716Y40686409D01*
X40484299Y40626105D01*
X40473049Y40565990D01*
X40472294Y40556605D01*
X40472292Y40556595D01*
X40472292Y40556586D01*
X40440644Y40125625D01*
X40442138Y40064488D01*
X40442779Y40003287D01*
X40443862Y39993926D01*
X40496526Y39565015D01*
X40509874Y39505302D01*
X40522383Y39445424D01*
X40525264Y39436451D01*
X40660234Y39025937D01*
X40684929Y38969945D01*
X40708827Y38913647D01*
X40713396Y38905404D01*
X40925531Y38528925D01*
X40926045Y38528191D01*
X40927356Y38525706D01*
X40950818Y38487588D01*
X40960092Y38473950D01*
X42277698Y36586194D01*
X43455731Y34634431D01*
X44501822Y32608890D01*
X45411369Y30518479D01*
X46180385Y28372362D01*
X46805472Y26180021D01*
X47283892Y23951063D01*
X47613539Y21695298D01*
X47792961Y19422660D01*
X47821372Y17143099D01*
X47698648Y14866695D01*
X47425324Y12603410D01*
X47002608Y10363233D01*
X46432352Y8155983D01*
X45717070Y5991385D01*
X44859902Y3878946D01*
X43861527Y1821586D01*
X43520595Y1193302D01*
X43470056Y1150435D01*
X43359548Y1088917D01*
X43239201Y1050037D01*
X43113583Y1035271D01*
X42987498Y1045185D01*
X42865745Y1079399D01*
X42752946Y1136615D01*
X42632439Y1231091D01*
X42624230Y1239243D01*
X42623333Y1239974D01*
X42599330Y1262747D01*
X40720849Y2947826D01*
X38958472Y4728351D01*
X37573364Y6288435D01*
X37570600Y6291368D01*
X37569946Y6292254D01*
X37563588Y6299209D01*
X37342137Y6538062D01*
X37206008Y6759035D01*
X37115394Y7002232D01*
X37073744Y7258402D01*
X37083376Y7539119D01*
X37095817Y7612951D01*
X37122512Y7728258D01*
X37126375Y7751507D01*
X37131530Y7774502D01*
X37266650Y8624267D01*
X38200000Y8624267D01*
X38200000Y7875733D01*
X38346031Y7141581D01*
X38632483Y6450025D01*
X39048347Y5827641D01*
X39577641Y5298347D01*
X40200025Y4882483D01*
X40891581Y4596031D01*
X41625733Y4450000D01*
X42374267Y4450000D01*
X43108419Y4596031D01*
X43799975Y4882483D01*
X44422359Y5298347D01*
X44951653Y5827641D01*
X45367517Y6450025D01*
X45653969Y7141581D01*
X45800000Y7875733D01*
X45800000Y8624267D01*
X45653969Y9358419D01*
X45367517Y10049975D01*
X44951653Y10672359D01*
X44422359Y11201653D01*
X43799975Y11617517D01*
X43108419Y11903969D01*
X42374267Y12050000D01*
X41625733Y12050000D01*
X40891581Y11903969D01*
X40200025Y11617517D01*
X39577641Y11201653D01*
X39048347Y10672359D01*
X38632483Y10049975D01*
X38346031Y9358419D01*
X38200000Y8624267D01*
X37266650Y8624267D01*
X37327563Y9007339D01*
X37330067Y9033655D01*
X37335592Y9091725D01*
X37375564Y10339411D01*
X37372953Y10424138D01*
X37256233Y11666994D01*
X37243023Y11750726D01*
X37106823Y12361801D01*
X38079590Y12361801D01*
X38179181Y12108238D01*
X38466472Y11974846D01*
X38774265Y11900066D01*
X39090735Y11886770D01*
X39403716Y11935469D01*
X39701184Y12044292D01*
X39820819Y12108238D01*
X39920410Y12361801D01*
X44579590Y12361801D01*
X44679181Y12108238D01*
X44966472Y11974846D01*
X45274265Y11900066D01*
X45590735Y11886770D01*
X45903716Y11935469D01*
X46201184Y12044292D01*
X46320819Y12108238D01*
X46420410Y12361801D01*
X45500000Y13282211D01*
X44579590Y12361801D01*
X39920410Y12361801D01*
X39000000Y13282211D01*
X38079590Y12361801D01*
X37106823Y12361801D01*
X36971452Y12969154D01*
X36964611Y12992753D01*
X36947853Y13050569D01*
X36818962Y13409265D01*
X37386770Y13409265D01*
X37435469Y13096284D01*
X37544292Y12798816D01*
X37608238Y12679181D01*
X37861801Y12579590D01*
X38782211Y13500000D01*
X39217789Y13500000D01*
X40138199Y12579590D01*
X40391762Y12679181D01*
X40525154Y12966472D01*
X40599934Y13274265D01*
X40605605Y13409265D01*
X43886770Y13409265D01*
X43935469Y13096284D01*
X44044292Y12798816D01*
X44108238Y12679181D01*
X44361801Y12579590D01*
X45282211Y13500000D01*
X45717789Y13500000D01*
X46638199Y12579590D01*
X46891762Y12679181D01*
X47025154Y12966472D01*
X47099934Y13274265D01*
X47113230Y13590735D01*
X47064531Y13903716D01*
X46955708Y14201184D01*
X46891762Y14320819D01*
X46638199Y14420410D01*
X45717789Y13500000D01*
X45282211Y13500000D01*
X44361801Y14420410D01*
X44108238Y14320819D01*
X43974846Y14033528D01*
X43900066Y13725735D01*
X43886770Y13409265D01*
X40605605Y13409265D01*
X40613230Y13590735D01*
X40564531Y13903716D01*
X40455708Y14201184D01*
X40391762Y14320819D01*
X40138199Y14420410D01*
X39217789Y13500000D01*
X38782211Y13500000D01*
X37861801Y14420410D01*
X37608238Y14320819D01*
X37474846Y14033528D01*
X37400066Y13725735D01*
X37386770Y13409265D01*
X36818962Y13409265D01*
X36525715Y14225352D01*
X36492097Y14303168D01*
X36492097Y14303169D01*
X36321648Y14638199D01*
X38079590Y14638199D01*
X39000000Y13717789D01*
X39920410Y14638199D01*
X44579590Y14638199D01*
X45500000Y13717789D01*
X46420410Y14638199D01*
X46320819Y14891762D01*
X46033528Y15025154D01*
X45725735Y15099934D01*
X45409265Y15113230D01*
X45096284Y15064531D01*
X44798816Y14955708D01*
X44679181Y14891762D01*
X44579590Y14638199D01*
X39920410Y14638199D01*
X39820819Y14891762D01*
X39533528Y15025154D01*
X39225735Y15099934D01*
X38909265Y15113230D01*
X38596284Y15064531D01*
X38298816Y14955708D01*
X38179181Y14891762D01*
X38079590Y14638199D01*
X36321648Y14638199D01*
X35926047Y15415781D01*
X35903676Y15453661D01*
X35882942Y15488770D01*
X35181909Y16521663D01*
X35135089Y16582098D01*
X35129995Y16588674D01*
X34305034Y17525560D01*
X34273561Y17557071D01*
X34245131Y17585536D01*
X33309252Y18411639D01*
X33255573Y18453329D01*
X33242305Y18463634D01*
X32210267Y19165927D01*
X32137330Y19209121D01*
X31025410Y19776527D01*
X31013436Y19781717D01*
X30984904Y19795533D01*
X30975279Y19799665D01*
X31063426Y19931587D01*
X31153884Y20149973D01*
X31200000Y20381810D01*
X31200000Y20618190D01*
X31153884Y20850027D01*
X31063426Y21068413D01*
X30932101Y21264955D01*
X30764955Y21432101D01*
X30568413Y21563426D01*
X30350027Y21653884D01*
X30118190Y21700000D01*
X29881810Y21700000D01*
X29649973Y21653884D01*
X29431587Y21563426D01*
X29235045Y21432101D01*
X29067899Y21264955D01*
X28936574Y21068413D01*
X28846116Y20850027D01*
X28800000Y20618190D01*
X28800000Y20422369D01*
X28313828Y20474637D01*
X28310923Y20475518D01*
X28211759Y20485285D01*
X21795441Y20485285D01*
X21767091Y20482493D01*
X21200000Y20434511D01*
X21200000Y20618190D01*
X21153884Y20850027D01*
X21063426Y21068413D01*
X20932101Y21264955D01*
X20764955Y21432101D01*
X20568413Y21563426D01*
X20350027Y21653884D01*
X20118190Y21700000D01*
X19881810Y21700000D01*
X19649973Y21653884D01*
X19431587Y21563426D01*
X19235045Y21432101D01*
X19067899Y21264955D01*
X18936574Y21068413D01*
X18846116Y20850027D01*
X18800000Y20618190D01*
X18800000Y20381810D01*
X18846116Y20149973D01*
X18936574Y19931587D01*
X19026690Y19796719D01*
X19015829Y19792716D01*
X18888873Y19736629D01*
X18867956Y19725770D01*
X18846469Y19716098D01*
X17742580Y19133223D01*
X17670254Y19089014D01*
X16648122Y18372380D01*
X16581906Y18319455D01*
X15657655Y17480367D01*
X15657654Y17480366D01*
X15598594Y17419559D01*
X14786794Y16471246D01*
X14764236Y16441272D01*
X14735821Y16403516D01*
X14049278Y15360936D01*
X14029264Y15325939D01*
X14007196Y15287352D01*
X13456736Y14166946D01*
X13424208Y14088668D01*
X13018513Y12908105D01*
X12996052Y12826368D01*
X12741520Y11604268D01*
X12741240Y11602313D01*
X12729481Y11520360D01*
X12630125Y10275995D01*
X12628974Y10207650D01*
X12628698Y10191239D01*
X12686087Y8944234D01*
X12695293Y8859968D01*
X12904625Y7652456D01*
X12936104Y7351187D01*
X12912423Y7092730D01*
X12838995Y6843802D01*
X12718616Y6613881D01*
X12542480Y6395084D01*
X12473406Y6329386D01*
X12471621Y6327321D01*
X12462082Y6318361D01*
X12436138Y6291015D01*
X10751059Y4412534D01*
X8970534Y2650157D01*
X7416134Y1270096D01*
X7275056Y1150435D01*
X7164548Y1088917D01*
X7044201Y1050037D01*
X6918583Y1035271D01*
X6792498Y1045185D01*
X6670745Y1079399D01*
X6557946Y1136615D01*
X6492539Y1187894D01*
X5498134Y3115679D01*
X4589611Y5206543D01*
X3821653Y7353030D01*
X3459869Y8624267D01*
X4450000Y8624267D01*
X4450000Y7875733D01*
X4596031Y7141581D01*
X4882483Y6450025D01*
X5298347Y5827641D01*
X5827641Y5298347D01*
X6450025Y4882483D01*
X7141581Y4596031D01*
X7875733Y4450000D01*
X8624267Y4450000D01*
X9358419Y4596031D01*
X10049975Y4882483D01*
X10672359Y5298347D01*
X11201653Y5827641D01*
X11617517Y6450025D01*
X11903969Y7141581D01*
X12050000Y7875733D01*
X12050000Y8624267D01*
X11903969Y9358419D01*
X11617517Y10049975D01*
X11201653Y10672359D01*
X10672359Y11201653D01*
X10049975Y11617517D01*
X9358419Y11903969D01*
X8624267Y12050000D01*
X7875733Y12050000D01*
X7141581Y11903969D01*
X6450025Y11617517D01*
X5827641Y11201653D01*
X5298347Y10672359D01*
X4882483Y10049975D01*
X4596031Y9358419D01*
X4450000Y8624267D01*
X3459869Y8624267D01*
X3197639Y9545689D01*
X2720318Y11774864D01*
X2634841Y12361801D01*
X3579590Y12361801D01*
X3679181Y12108238D01*
X3966472Y11974846D01*
X4274265Y11900066D01*
X4590735Y11886770D01*
X4903716Y11935469D01*
X5201184Y12044292D01*
X5320819Y12108238D01*
X5420410Y12361801D01*
X10079590Y12361801D01*
X10179181Y12108238D01*
X10466472Y11974846D01*
X10774265Y11900066D01*
X11090735Y11886770D01*
X11403716Y11935469D01*
X11701184Y12044292D01*
X11820819Y12108238D01*
X11920410Y12361801D01*
X11000000Y13282211D01*
X10079590Y12361801D01*
X5420410Y12361801D01*
X4500000Y13282211D01*
X3579590Y12361801D01*
X2634841Y12361801D01*
X2482295Y13409265D01*
X2886770Y13409265D01*
X2935469Y13096284D01*
X3044292Y12798816D01*
X3108238Y12679181D01*
X3361801Y12579590D01*
X4282211Y13500000D01*
X4717789Y13500000D01*
X5638199Y12579590D01*
X5891762Y12679181D01*
X6025154Y12966472D01*
X6099934Y13274265D01*
X6105605Y13409265D01*
X9386770Y13409265D01*
X9435469Y13096284D01*
X9544292Y12798816D01*
X9608238Y12679181D01*
X9861801Y12579590D01*
X10782211Y13500000D01*
X11217789Y13500000D01*
X12138199Y12579590D01*
X12391762Y12679181D01*
X12525154Y12966472D01*
X12599934Y13274265D01*
X12613230Y13590735D01*
X12564531Y13903716D01*
X12455708Y14201184D01*
X12391762Y14320819D01*
X12138199Y14420410D01*
X11217789Y13500000D01*
X10782211Y13500000D01*
X9861801Y14420410D01*
X9608238Y14320819D01*
X9474846Y14033528D01*
X9400066Y13725735D01*
X9386770Y13409265D01*
X6105605Y13409265D01*
X6113230Y13590735D01*
X6064531Y13903716D01*
X5955708Y14201184D01*
X5891762Y14320819D01*
X5638199Y14420410D01*
X4717789Y13500000D01*
X4282211Y13500000D01*
X3361801Y14420410D01*
X3108238Y14320819D01*
X2974846Y14033528D01*
X2900066Y13725735D01*
X2886770Y13409265D01*
X2482295Y13409265D01*
X2391778Y14030801D01*
X2344126Y14638199D01*
X3579590Y14638199D01*
X4500000Y13717789D01*
X5420410Y14638199D01*
X10079590Y14638199D01*
X11000000Y13717789D01*
X11920410Y14638199D01*
X11820819Y14891762D01*
X11533528Y15025154D01*
X11225735Y15099934D01*
X10909265Y15113230D01*
X10596284Y15064531D01*
X10298816Y14955708D01*
X10179181Y14891762D01*
X10079590Y14638199D01*
X5420410Y14638199D01*
X5320819Y14891762D01*
X5033528Y15025154D01*
X4725735Y15099934D01*
X4409265Y15113230D01*
X4096284Y15064531D01*
X3798816Y14955708D01*
X3679181Y14891762D01*
X3579590Y14638199D01*
X2344126Y14638199D01*
X2213473Y16303525D01*
X2191277Y18157586D01*
X2900000Y18157586D01*
X2900000Y17842414D01*
X2961487Y17533297D01*
X3082098Y17242116D01*
X3257199Y16980059D01*
X3480059Y16757199D01*
X3742116Y16582098D01*
X4033297Y16461487D01*
X4342414Y16400000D01*
X4657586Y16400000D01*
X4966703Y16461487D01*
X5257884Y16582098D01*
X5519941Y16757199D01*
X5742801Y16980059D01*
X5917902Y17242116D01*
X6038513Y17533297D01*
X6100000Y17842414D01*
X6100000Y18157586D01*
X6038513Y18466703D01*
X5917902Y18757884D01*
X5742801Y19019941D01*
X5519941Y19242801D01*
X5257884Y19417902D01*
X4966703Y19538513D01*
X4657586Y19600000D01*
X4342414Y19600000D01*
X4033297Y19538513D01*
X3742116Y19417902D01*
X3480059Y19242801D01*
X3257199Y19019941D01*
X3082098Y18757884D01*
X2961487Y18466703D01*
X2900000Y18157586D01*
X2191277Y18157586D01*
X2186182Y18583101D01*
X2310025Y20859446D01*
X2584459Y23122582D01*
X3008279Y25362573D01*
X3579617Y27569536D01*
X4295965Y29733787D01*
X5154167Y31845798D01*
X6150460Y33896298D01*
X7280451Y35876254D01*
X8543098Y37782886D01*
X9038896Y38462443D01*
X9048211Y38476142D01*
X9050551Y38478931D01*
X9055821Y38486744D01*
X9115695Y38576861D01*
X9132851Y38609126D01*
X9152749Y38639767D01*
X9157028Y38648164D01*
X9350519Y39034556D01*
X9372448Y39091685D01*
X9395163Y39148476D01*
X9397729Y39157544D01*
X9512484Y39574159D01*
X9522898Y39634451D01*
X9534151Y39694580D01*
X9534907Y39703973D01*
X9566556Y40134945D01*
X9565062Y40196083D01*
X9564421Y40257280D01*
X9563338Y40266642D01*
X9510675Y40695553D01*
X9497324Y40755283D01*
X9484818Y40815145D01*
X9481940Y40824110D01*
X9481938Y40824117D01*
X9481935Y40824123D01*
X9346967Y41234631D01*
X9322290Y41290581D01*
X9298374Y41346922D01*
X9293806Y41355165D01*
X9096831Y41704737D01*
X8081350Y43968384D01*
X7198050Y46298440D01*
X6454499Y48676757D01*
X5853304Y51094992D01*
X5396589Y53544607D01*
X5123719Y55716428D01*
X5353700Y55573065D01*
X5621089Y55472091D01*
X5846000Y55582150D01*
X5846000Y56726000D01*
X6154000Y56726000D01*
X6154000Y55582150D01*
X6378911Y55472091D01*
X6646300Y55573065D01*
X6888852Y55724264D01*
X7097246Y55919878D01*
X7263473Y56152389D01*
X7381146Y56412861D01*
X7407903Y56501090D01*
X7296889Y56726000D01*
X6154000Y56726000D01*
X5846000Y56726000D01*
X5826000Y56726000D01*
X5826000Y57034000D01*
X5846000Y57034000D01*
X5846000Y57054000D01*
X6154000Y57054000D01*
X6154000Y57034000D01*
X7296889Y57034000D01*
X7407903Y57258910D01*
X7381146Y57347139D01*
X7263473Y57607611D01*
X7097246Y57840122D01*
X6888852Y58035736D01*
X6702970Y58151609D01*
X6809474Y58208536D01*
X7030265Y58389735D01*
X7211464Y58610526D01*
X7346106Y58862424D01*
X7429019Y59135750D01*
X7457015Y59420000D01*
X7429019Y59704250D01*
X7401214Y59795910D01*
X7525001Y59919697D01*
X7525000Y49285597D01*
G36*
X38775000Y48800305D02*
G01*
X34512523Y44537827D01*
X34484869Y44515132D01*
X34462173Y44487477D01*
X34462170Y44487474D01*
X34394269Y44404736D01*
X34326947Y44278787D01*
X34304373Y44204369D01*
X34287342Y44148222D01*
X34285492Y44142124D01*
X34271494Y44000000D01*
X34275001Y43964393D01*
X34275000Y36800305D01*
X32974696Y35500000D01*
X32901509Y35500000D01*
X32708311Y35461571D01*
X32526322Y35386189D01*
X32362537Y35276751D01*
X32223249Y35137463D01*
X32113811Y34973678D01*
X32038429Y34791689D01*
X32000000Y34598491D01*
X32000000Y34401509D01*
X32038429Y34208311D01*
X32113811Y34026322D01*
X32148103Y33975000D01*
X28050305Y33975000D01*
X25765000Y36260304D01*
X25765000Y36743384D01*
X25849474Y36788536D01*
X26070265Y36969735D01*
X26251464Y37190526D01*
X26310000Y37300039D01*
X26368536Y37190526D01*
X26549735Y36969735D01*
X26770526Y36788536D01*
X27022424Y36653894D01*
X27295750Y36570981D01*
X27508775Y36550000D01*
X27651225Y36550000D01*
X27864250Y36570981D01*
X28137576Y36653894D01*
X28389474Y36788536D01*
X28610265Y36969735D01*
X28791464Y37190526D01*
X28926106Y37442424D01*
X29009019Y37715750D01*
X29037015Y38000000D01*
X29009019Y38284250D01*
X28981214Y38375910D01*
X29987477Y39382172D01*
X30015132Y39404868D01*
X30037951Y39432672D01*
X30105731Y39515263D01*
X30173053Y39641212D01*
X30183617Y39676037D01*
X30214509Y39777875D01*
X30225000Y39884393D01*
X30225000Y39884402D01*
X30228506Y39919999D01*
X30225000Y39955596D01*
X30225000Y42699696D01*
X36800305Y49275000D01*
X37964403Y49275000D01*
X38000000Y49271494D01*
X38035597Y49275000D01*
X38035607Y49275000D01*
X38142125Y49285491D01*
X38278788Y49326947D01*
X38404737Y49394269D01*
X38515132Y49484868D01*
X38537832Y49512528D01*
X38775000Y49749696D01*
X38775000Y48800305D01*
X38775000Y48800305D01*
G37*
X38775000Y48800305D02*
X34512523Y44537827D01*
X34484869Y44515132D01*
X34462173Y44487477D01*
X34462170Y44487474D01*
X34394269Y44404736D01*
X34326947Y44278787D01*
X34304373Y44204369D01*
X34287342Y44148222D01*
X34285492Y44142124D01*
X34271494Y44000000D01*
X34275001Y43964393D01*
X34275000Y36800305D01*
X32974696Y35500000D01*
X32901509Y35500000D01*
X32708311Y35461571D01*
X32526322Y35386189D01*
X32362537Y35276751D01*
X32223249Y35137463D01*
X32113811Y34973678D01*
X32038429Y34791689D01*
X32000000Y34598491D01*
X32000000Y34401509D01*
X32038429Y34208311D01*
X32113811Y34026322D01*
X32148103Y33975000D01*
X28050305Y33975000D01*
X25765000Y36260304D01*
X25765000Y36743384D01*
X25849474Y36788536D01*
X26070265Y36969735D01*
X26251464Y37190526D01*
X26310000Y37300039D01*
X26368536Y37190526D01*
X26549735Y36969735D01*
X26770526Y36788536D01*
X27022424Y36653894D01*
X27295750Y36570981D01*
X27508775Y36550000D01*
X27651225Y36550000D01*
X27864250Y36570981D01*
X28137576Y36653894D01*
X28389474Y36788536D01*
X28610265Y36969735D01*
X28791464Y37190526D01*
X28926106Y37442424D01*
X29009019Y37715750D01*
X29037015Y38000000D01*
X29009019Y38284250D01*
X28981214Y38375910D01*
X29987477Y39382172D01*
X30015132Y39404868D01*
X30037951Y39432672D01*
X30105731Y39515263D01*
X30173053Y39641212D01*
X30183617Y39676037D01*
X30214509Y39777875D01*
X30225000Y39884393D01*
X30225000Y39884402D01*
X30228506Y39919999D01*
X30225000Y39955596D01*
X30225000Y42699696D01*
X36800305Y49275000D01*
X37964403Y49275000D01*
X38000000Y49271494D01*
X38035597Y49275000D01*
X38035607Y49275000D01*
X38142125Y49285491D01*
X38278788Y49326947D01*
X38404737Y49394269D01*
X38515132Y49484868D01*
X38537832Y49512528D01*
X38775000Y49749696D01*
X38775000Y48800305D01*
G36*
X28750000Y43021494D02*
G01*
X28773842Y43023842D01*
X28771494Y43000000D01*
X28775000Y42964403D01*
X28775001Y41365864D01*
X28735736Y41428852D01*
X28540122Y41637246D01*
X28307611Y41803473D01*
X28047139Y41921146D01*
X27958910Y41947903D01*
X27734000Y41836889D01*
X27734000Y40694000D01*
X27754000Y40694000D01*
X27754000Y40386000D01*
X27734000Y40386000D01*
X27734000Y40366000D01*
X27426000Y40366000D01*
X27426000Y40386000D01*
X27406000Y40386000D01*
X27406000Y40694000D01*
X27426000Y40694000D01*
X27426000Y41836889D01*
X27201090Y41947903D01*
X27112861Y41921146D01*
X26852389Y41803473D01*
X26619878Y41637246D01*
X26424264Y41428852D01*
X26308391Y41242970D01*
X26251464Y41349474D01*
X26070265Y41570265D01*
X25849474Y41751464D01*
X25597576Y41886106D01*
X25324250Y41969019D01*
X25111225Y41990000D01*
X24968775Y41990000D01*
X24755750Y41969019D01*
X24482424Y41886106D01*
X24230526Y41751464D01*
X24009735Y41570265D01*
X23828536Y41349474D01*
X23770000Y41239961D01*
X23711464Y41349474D01*
X23530265Y41570265D01*
X23309474Y41751464D01*
X23057576Y41886106D01*
X22784250Y41969019D01*
X22571225Y41990000D01*
X22428775Y41990000D01*
X22215750Y41969019D01*
X21942424Y41886106D01*
X21690526Y41751464D01*
X21469735Y41570265D01*
X21288536Y41349474D01*
X21225000Y41230606D01*
X21225000Y41949696D01*
X22300305Y43025000D01*
X28714403Y43025000D01*
X28750000Y43021494D01*
X28750000Y43021494D01*
G37*
X28750000Y43021494D02*
X28773842Y43023842D01*
X28771494Y43000000D01*
X28775000Y42964403D01*
X28775001Y41365864D01*
X28735736Y41428852D01*
X28540122Y41637246D01*
X28307611Y41803473D01*
X28047139Y41921146D01*
X27958910Y41947903D01*
X27734000Y41836889D01*
X27734000Y40694000D01*
X27754000Y40694000D01*
X27754000Y40386000D01*
X27734000Y40386000D01*
X27734000Y40366000D01*
X27426000Y40366000D01*
X27426000Y40386000D01*
X27406000Y40386000D01*
X27406000Y40694000D01*
X27426000Y40694000D01*
X27426000Y41836889D01*
X27201090Y41947903D01*
X27112861Y41921146D01*
X26852389Y41803473D01*
X26619878Y41637246D01*
X26424264Y41428852D01*
X26308391Y41242970D01*
X26251464Y41349474D01*
X26070265Y41570265D01*
X25849474Y41751464D01*
X25597576Y41886106D01*
X25324250Y41969019D01*
X25111225Y41990000D01*
X24968775Y41990000D01*
X24755750Y41969019D01*
X24482424Y41886106D01*
X24230526Y41751464D01*
X24009735Y41570265D01*
X23828536Y41349474D01*
X23770000Y41239961D01*
X23711464Y41349474D01*
X23530265Y41570265D01*
X23309474Y41751464D01*
X23057576Y41886106D01*
X22784250Y41969019D01*
X22571225Y41990000D01*
X22428775Y41990000D01*
X22215750Y41969019D01*
X21942424Y41886106D01*
X21690526Y41751464D01*
X21469735Y41570265D01*
X21288536Y41349474D01*
X21225000Y41230606D01*
X21225000Y41949696D01*
X22300305Y43025000D01*
X28714403Y43025000D01*
X28750000Y43021494D01*
G36*
X44154000Y57034000D02*
G01*
X44174000Y57034000D01*
X44174000Y56726000D01*
X44154000Y56726000D01*
X44154000Y55582150D01*
X44378911Y55472091D01*
X44646300Y55573065D01*
X44884094Y55721298D01*
X44610612Y53544607D01*
X44153895Y51094988D01*
X43552702Y48676756D01*
X42975000Y46828923D01*
X42975000Y55852063D01*
X43111148Y55724264D01*
X43353700Y55573065D01*
X43621089Y55472091D01*
X43846000Y55582150D01*
X43846000Y56726000D01*
X43826000Y56726000D01*
X43826000Y57034000D01*
X43846000Y57034000D01*
X43846000Y57054000D01*
X44154000Y57054000D01*
X44154000Y57034000D01*
X44154000Y57034000D01*
G37*
X44154000Y57034000D02*
X44174000Y57034000D01*
X44174000Y56726000D01*
X44154000Y56726000D01*
X44154000Y55582150D01*
X44378911Y55472091D01*
X44646300Y55573065D01*
X44884094Y55721298D01*
X44610612Y53544607D01*
X44153895Y51094988D01*
X43552702Y48676756D01*
X42975000Y46828923D01*
X42975000Y55852063D01*
X43111148Y55724264D01*
X43353700Y55573065D01*
X43621089Y55472091D01*
X43846000Y55582150D01*
X43846000Y56726000D01*
X43826000Y56726000D01*
X43826000Y57034000D01*
X43846000Y57034000D01*
X43846000Y57054000D01*
X44154000Y57054000D01*
X44154000Y57034000D01*
G36*
X28774301Y93261190D02*
G01*
X30700909Y91680840D01*
X32530386Y89989025D01*
X34256318Y88191679D01*
X35872617Y86295138D01*
X37373593Y84306081D01*
X38753971Y82231493D01*
X40008867Y80078722D01*
X41133891Y77855295D01*
X42125074Y75569055D01*
X42978915Y73228079D01*
X43692425Y70840565D01*
X44263083Y68414948D01*
X44688880Y65959758D01*
X44689654Y65952903D01*
X43150000Y65952903D01*
X43032379Y65941318D01*
X42975000Y65923913D01*
X42975000Y66964393D01*
X42978507Y67000000D01*
X42964509Y67142124D01*
X42963859Y67144269D01*
X42923053Y67278788D01*
X42919408Y67285607D01*
X42855732Y67404737D01*
X42787830Y67487475D01*
X42787823Y67487482D01*
X42765131Y67515132D01*
X42737482Y67537823D01*
X40725000Y69550304D01*
X40725000Y71214403D01*
X40728506Y71250000D01*
X40725000Y71285597D01*
X40725000Y71285607D01*
X40714509Y71392125D01*
X40673053Y71528788D01*
X40605731Y71654737D01*
X40596049Y71666535D01*
X40537830Y71737475D01*
X40537823Y71737482D01*
X40515131Y71765132D01*
X40487482Y71787823D01*
X38745595Y73529709D01*
X41685670Y73529709D01*
X41685670Y76258789D01*
X37738600Y76258789D01*
X37738600Y73982097D01*
X35728766Y73982097D01*
X35728766Y75623789D01*
X34725869Y75623789D01*
X34914390Y75812309D01*
X35227640Y75750000D01*
X35572360Y75750000D01*
X35910456Y75817251D01*
X36228936Y75949170D01*
X36515560Y76140686D01*
X36759314Y76384440D01*
X36950830Y76671064D01*
X37082749Y76989544D01*
X37150000Y77327640D01*
X37150000Y77672360D01*
X37082749Y78010456D01*
X36950830Y78328936D01*
X36759314Y78615560D01*
X36515560Y78859314D01*
X36305008Y79000000D01*
X36515560Y79140686D01*
X36759314Y79384440D01*
X36950830Y79671064D01*
X37082749Y79989544D01*
X37150000Y80327640D01*
X37150000Y80672360D01*
X37082749Y81010456D01*
X36950830Y81328936D01*
X36759314Y81615560D01*
X36515560Y81859314D01*
X36228936Y82050830D01*
X35910456Y82182749D01*
X35572360Y82250000D01*
X35227640Y82250000D01*
X34889544Y82182749D01*
X34571064Y82050830D01*
X34284440Y81859314D01*
X34040686Y81615560D01*
X33849170Y81328936D01*
X33717251Y81010456D01*
X33650000Y80672360D01*
X33650000Y80327640D01*
X33717251Y79989544D01*
X33849170Y79671064D01*
X34040686Y79384440D01*
X34284440Y79140686D01*
X34494992Y79000000D01*
X34284440Y78859314D01*
X34040686Y78615560D01*
X33849170Y78328936D01*
X33717251Y78010456D01*
X33650000Y77672360D01*
X33650000Y77327640D01*
X33712309Y77014390D01*
X32547920Y75850000D01*
X17352082Y75850000D01*
X16262184Y76939897D01*
X16282749Y76989544D01*
X16350000Y77327640D01*
X16350000Y77672360D01*
X16282749Y78010456D01*
X16150830Y78328936D01*
X15959314Y78615560D01*
X15715560Y78859314D01*
X15505008Y79000000D01*
X15715560Y79140686D01*
X15959314Y79384440D01*
X16150830Y79671064D01*
X16282749Y79989544D01*
X16350000Y80327640D01*
X16350000Y80672360D01*
X16282749Y81010456D01*
X16150830Y81328936D01*
X15959314Y81615560D01*
X15715560Y81859314D01*
X15428936Y82050830D01*
X15110456Y82182749D01*
X14772360Y82250000D01*
X14427640Y82250000D01*
X14089544Y82182749D01*
X13771064Y82050830D01*
X13484440Y81859314D01*
X13240686Y81615560D01*
X13049170Y81328936D01*
X12917251Y81010456D01*
X12850000Y80672360D01*
X12850000Y80327640D01*
X12917251Y79989544D01*
X13049170Y79671064D01*
X13240686Y79384440D01*
X13484440Y79140686D01*
X13694992Y79000000D01*
X13484440Y78859314D01*
X13240686Y78615560D01*
X13049170Y78328936D01*
X12917251Y78010456D01*
X12850000Y77672360D01*
X12850000Y77327640D01*
X12917251Y76989544D01*
X13049170Y76671064D01*
X13240686Y76384440D01*
X13484440Y76140686D01*
X13771064Y75949170D01*
X14089544Y75817251D01*
X14427640Y75750000D01*
X14772360Y75750000D01*
X15002201Y75795718D01*
X15722919Y75075000D01*
X11135600Y75075000D01*
X11100000Y75078506D01*
X11064400Y75075000D01*
X11064393Y75075000D01*
X10957875Y75064509D01*
X10821212Y75023053D01*
X10695263Y74955731D01*
X10612525Y74887830D01*
X10612523Y74887828D01*
X10584868Y74865132D01*
X10562172Y74837477D01*
X7762523Y72037827D01*
X7734869Y72015132D01*
X7712173Y71987477D01*
X7712170Y71987474D01*
X7644269Y71904736D01*
X7576947Y71778787D01*
X7549014Y71686701D01*
X7538566Y71652257D01*
X7535492Y71642124D01*
X7521494Y71500000D01*
X7525001Y71464393D01*
X7525000Y64510305D01*
X7452903Y64438208D01*
X7452903Y65350000D01*
X7441318Y65467621D01*
X7407010Y65580721D01*
X7351296Y65684955D01*
X7276317Y65776317D01*
X7184955Y65851296D01*
X7080721Y65907010D01*
X6967621Y65941318D01*
X6850000Y65952903D01*
X5317547Y65952903D01*
X5318320Y65959757D01*
X5744118Y68414948D01*
X6314775Y70840565D01*
X7028285Y73228079D01*
X7882127Y75569056D01*
X8873313Y77855302D01*
X9998333Y80078723D01*
X11253233Y82231501D01*
X12633608Y84306081D01*
X14134582Y86295137D01*
X15750883Y88191679D01*
X17476814Y89989026D01*
X19306292Y91680841D01*
X21232900Y93261190D01*
X21485101Y93444165D01*
X21346031Y93108419D01*
X21200000Y92374267D01*
X21200000Y91625733D01*
X21346031Y90891581D01*
X21632483Y90200025D01*
X22048347Y89577641D01*
X22577641Y89048347D01*
X23200025Y88632483D01*
X23891581Y88346031D01*
X24625733Y88200000D01*
X25374267Y88200000D01*
X26108419Y88346031D01*
X26799975Y88632483D01*
X27422359Y89048347D01*
X27951653Y89577641D01*
X28367517Y90200025D01*
X28653969Y90891581D01*
X28800000Y91625733D01*
X28800000Y92374267D01*
X28653969Y93108419D01*
X28511805Y93451632D01*
X28774301Y93261190D01*
X28774301Y93261190D01*
G37*
X28774301Y93261190D02*
X30700909Y91680840D01*
X32530386Y89989025D01*
X34256318Y88191679D01*
X35872617Y86295138D01*
X37373593Y84306081D01*
X38753971Y82231493D01*
X40008867Y80078722D01*
X41133891Y77855295D01*
X42125074Y75569055D01*
X42978915Y73228079D01*
X43692425Y70840565D01*
X44263083Y68414948D01*
X44688880Y65959758D01*
X44689654Y65952903D01*
X43150000Y65952903D01*
X43032379Y65941318D01*
X42975000Y65923913D01*
X42975000Y66964393D01*
X42978507Y67000000D01*
X42964509Y67142124D01*
X42963859Y67144269D01*
X42923053Y67278788D01*
X42919408Y67285607D01*
X42855732Y67404737D01*
X42787830Y67487475D01*
X42787823Y67487482D01*
X42765131Y67515132D01*
X42737482Y67537823D01*
X40725000Y69550304D01*
X40725000Y71214403D01*
X40728506Y71250000D01*
X40725000Y71285597D01*
X40725000Y71285607D01*
X40714509Y71392125D01*
X40673053Y71528788D01*
X40605731Y71654737D01*
X40596049Y71666535D01*
X40537830Y71737475D01*
X40537823Y71737482D01*
X40515131Y71765132D01*
X40487482Y71787823D01*
X38745595Y73529709D01*
X41685670Y73529709D01*
X41685670Y76258789D01*
X37738600Y76258789D01*
X37738600Y73982097D01*
X35728766Y73982097D01*
X35728766Y75623789D01*
X34725869Y75623789D01*
X34914390Y75812309D01*
X35227640Y75750000D01*
X35572360Y75750000D01*
X35910456Y75817251D01*
X36228936Y75949170D01*
X36515560Y76140686D01*
X36759314Y76384440D01*
X36950830Y76671064D01*
X37082749Y76989544D01*
X37150000Y77327640D01*
X37150000Y77672360D01*
X37082749Y78010456D01*
X36950830Y78328936D01*
X36759314Y78615560D01*
X36515560Y78859314D01*
X36305008Y79000000D01*
X36515560Y79140686D01*
X36759314Y79384440D01*
X36950830Y79671064D01*
X37082749Y79989544D01*
X37150000Y80327640D01*
X37150000Y80672360D01*
X37082749Y81010456D01*
X36950830Y81328936D01*
X36759314Y81615560D01*
X36515560Y81859314D01*
X36228936Y82050830D01*
X35910456Y82182749D01*
X35572360Y82250000D01*
X35227640Y82250000D01*
X34889544Y82182749D01*
X34571064Y82050830D01*
X34284440Y81859314D01*
X34040686Y81615560D01*
X33849170Y81328936D01*
X33717251Y81010456D01*
X33650000Y80672360D01*
X33650000Y80327640D01*
X33717251Y79989544D01*
X33849170Y79671064D01*
X34040686Y79384440D01*
X34284440Y79140686D01*
X34494992Y79000000D01*
X34284440Y78859314D01*
X34040686Y78615560D01*
X33849170Y78328936D01*
X33717251Y78010456D01*
X33650000Y77672360D01*
X33650000Y77327640D01*
X33712309Y77014390D01*
X32547920Y75850000D01*
X17352082Y75850000D01*
X16262184Y76939897D01*
X16282749Y76989544D01*
X16350000Y77327640D01*
X16350000Y77672360D01*
X16282749Y78010456D01*
X16150830Y78328936D01*
X15959314Y78615560D01*
X15715560Y78859314D01*
X15505008Y79000000D01*
X15715560Y79140686D01*
X15959314Y79384440D01*
X16150830Y79671064D01*
X16282749Y79989544D01*
X16350000Y80327640D01*
X16350000Y80672360D01*
X16282749Y81010456D01*
X16150830Y81328936D01*
X15959314Y81615560D01*
X15715560Y81859314D01*
X15428936Y82050830D01*
X15110456Y82182749D01*
X14772360Y82250000D01*
X14427640Y82250000D01*
X14089544Y82182749D01*
X13771064Y82050830D01*
X13484440Y81859314D01*
X13240686Y81615560D01*
X13049170Y81328936D01*
X12917251Y81010456D01*
X12850000Y80672360D01*
X12850000Y80327640D01*
X12917251Y79989544D01*
X13049170Y79671064D01*
X13240686Y79384440D01*
X13484440Y79140686D01*
X13694992Y79000000D01*
X13484440Y78859314D01*
X13240686Y78615560D01*
X13049170Y78328936D01*
X12917251Y78010456D01*
X12850000Y77672360D01*
X12850000Y77327640D01*
X12917251Y76989544D01*
X13049170Y76671064D01*
X13240686Y76384440D01*
X13484440Y76140686D01*
X13771064Y75949170D01*
X14089544Y75817251D01*
X14427640Y75750000D01*
X14772360Y75750000D01*
X15002201Y75795718D01*
X15722919Y75075000D01*
X11135600Y75075000D01*
X11100000Y75078506D01*
X11064400Y75075000D01*
X11064393Y75075000D01*
X10957875Y75064509D01*
X10821212Y75023053D01*
X10695263Y74955731D01*
X10612525Y74887830D01*
X10612523Y74887828D01*
X10584868Y74865132D01*
X10562172Y74837477D01*
X7762523Y72037827D01*
X7734869Y72015132D01*
X7712173Y71987477D01*
X7712170Y71987474D01*
X7644269Y71904736D01*
X7576947Y71778787D01*
X7549014Y71686701D01*
X7538566Y71652257D01*
X7535492Y71642124D01*
X7521494Y71500000D01*
X7525001Y71464393D01*
X7525000Y64510305D01*
X7452903Y64438208D01*
X7452903Y65350000D01*
X7441318Y65467621D01*
X7407010Y65580721D01*
X7351296Y65684955D01*
X7276317Y65776317D01*
X7184955Y65851296D01*
X7080721Y65907010D01*
X6967621Y65941318D01*
X6850000Y65952903D01*
X5317547Y65952903D01*
X5318320Y65959757D01*
X5744118Y68414948D01*
X6314775Y70840565D01*
X7028285Y73228079D01*
X7882127Y75569056D01*
X8873313Y77855302D01*
X9998333Y80078723D01*
X11253233Y82231501D01*
X12633608Y84306081D01*
X14134582Y86295137D01*
X15750883Y88191679D01*
X17476814Y89989026D01*
X19306292Y91680841D01*
X21232900Y93261190D01*
X21485101Y93444165D01*
X21346031Y93108419D01*
X21200000Y92374267D01*
X21200000Y91625733D01*
X21346031Y90891581D01*
X21632483Y90200025D01*
X22048347Y89577641D01*
X22577641Y89048347D01*
X23200025Y88632483D01*
X23891581Y88346031D01*
X24625733Y88200000D01*
X25374267Y88200000D01*
X26108419Y88346031D01*
X26799975Y88632483D01*
X27422359Y89048347D01*
X27951653Y89577641D01*
X28367517Y90200025D01*
X28653969Y90891581D01*
X28800000Y91625733D01*
X28800000Y92374267D01*
X28653969Y93108419D01*
X28511805Y93451632D01*
X28774301Y93261190D01*
G36*
X26525000Y69199695D02*
G01*
X26525001Y66447773D01*
X26491689Y66461571D01*
X26298491Y66500000D01*
X26101509Y66500000D01*
X25908311Y66461571D01*
X25726322Y66386189D01*
X25562537Y66276751D01*
X25510786Y66225000D01*
X22300304Y66225000D01*
X22137833Y66387471D01*
X22115133Y66415131D01*
X22004738Y66505730D01*
X21878789Y66573052D01*
X21742126Y66614508D01*
X21635608Y66624999D01*
X21635598Y66624999D01*
X21600001Y66628505D01*
X21564404Y66624999D01*
X18650306Y66624999D01*
X16975000Y68300304D01*
X16975000Y68449709D01*
X26383985Y68449709D01*
X26383985Y69340710D01*
X26525000Y69199695D01*
X26525000Y69199695D01*
G37*
X26525000Y69199695D02*
X26525001Y66447773D01*
X26491689Y66461571D01*
X26298491Y66500000D01*
X26101509Y66500000D01*
X25908311Y66461571D01*
X25726322Y66386189D01*
X25562537Y66276751D01*
X25510786Y66225000D01*
X22300304Y66225000D01*
X22137833Y66387471D01*
X22115133Y66415131D01*
X22004738Y66505730D01*
X21878789Y66573052D01*
X21742126Y66614508D01*
X21635608Y66624999D01*
X21635598Y66624999D01*
X21600001Y66628505D01*
X21564404Y66624999D01*
X18650306Y66624999D01*
X16975000Y68300304D01*
X16975000Y68449709D01*
X26383985Y68449709D01*
X26383985Y69340710D01*
X26525000Y69199695D01*
M02*
